<?xml version="1.0" standalone="no"?>
<!DOCTYPE svg PUBLIC "-//W3C//DTD SVG 1.1//EN" "http://www.w3.org/Graphics/SVG/1.1/DTD/svg11.dtd" >
<svg xmlns="http://www.w3.org/2000/svg" xmlns:xlink="http://www.w3.org/1999/xlink" version="1.1">
<metadata>
Created by FontForge 20170731 at Thu Nov 19 13:02:09 2020
 By Aleksey,,,
Copyright (c) 1995 ParaGraph Intl., (c) 1998 ParaType Inc., ParaType Ltd. All rights reserved.
</metadata>
<defs>
<font id="FuturaPT-MediumObl" horiz-adv-x="1024" >
  <font-face 
    font-family="Futura PT Medium Italic"
    font-weight="400"
    font-style="italic"
    font-stretch="normal"
    units-per-em="2048"
    panose-1="2 11 6 2 2 2 4 9 3 3"
    ascent="1563"
    descent="-485"
    x-height="862"
    cap-height="1366"
    bbox="-618 -614 2433 1956"
    underline-thickness="102"
    underline-position="-307"
    slope="-7"
    unicode-range="U+0020-FB02"
  />
<missing-glyph horiz-adv-x="477" 
 />
    <glyph glyph-name="afii10017.var.accented" unicode="&#x410;`" horiz-adv-x="1343" 
d="M1114 0l-102 330h-584l-190 -330h-230l858 1446l469 -1446h-221zM539 526h413l-147 463zM821 1489l-88 82l318 284l161 -122z" />
    <glyph glyph-name="afii10022.var.accented" unicode="&#x415;`" 
d="M1085 1366l-24 -197h-545l-41 -346h529l-25 -196h-528l-54 -430h545l-24 -197h-754l168 1366h753zM662 1489l-89 82l318 284l162 -122z" />
    <glyph glyph-name="afii10026.var.accented" unicode="&#x418;`" horiz-adv-x="1458" 
d="M1085 0l113 920l-1042 -981l176 1427h209l-113 -924l1040 981l-174 -1423h-209zM879 1489l-88 82l317 284l162 -122z" />
    <glyph glyph-name="afii10032.var.accented" unicode="&#x41e;`" horiz-adv-x="1630" 
d="M979 1391q282 0 461 -179q176 -174 176 -462q0 -347 -215 -566q-64 -65 -137.5 -109t-149 -65t-139.5 -29t-137 -8q-148 0 -263.5 40t-209.5 137q-85 86 -134 206t-49 258q0 161 60 310.5t164 251.5q102 102 251 158.5t322 56.5zM840 166q254 0 401 147q78 76 122 189.5
t44 234.5q0 195 -123 322q-61 63 -149.5 101t-196.5 38q-225 0 -379 -151q-76 -75 -123 -181.5t-47 -236.5q0 -200 127 -332q123 -131 324 -131zM965 1489l-88 82l317 284l162 -122z" />
    <glyph glyph-name="afii10037.var.accented" unicode="&#x423;`" horiz-adv-x="1144" 
d="M180 1366h223l277 -739l403 739h217l-765 -1366h-218l232 416zM713 1489l-88 82l317 284l162 -122z" />
    <glyph glyph-name="afii10045.var.accented" unicode="&#x42b;`" horiz-adv-x="1515" 
d="M1311 1366h209l-168 -1366h-209zM164 0l170 1366h207l-68 -551h143q215 0 330 -104q59 -54 83 -117t24 -143q0 -211 -117 -328q-42 -41 -91.5 -67.5t-106.5 -37.5t-101.5 -14.5t-106.5 -3.5h-159h-207zM449 618l-52 -421h148q51 0 86.5 3t81 19t73.5 45q28 28 44 74.5
t16 91.5q0 91 -70 143q-63 45 -203 45h-124zM907 1489l-88 82l318 284l161 -122z" />
    <glyph glyph-name="afii10047.var.accented" unicode="&#x42d;`" horiz-adv-x="1271" 
d="M219 1047l29 245q167 99 389 99q151 0 267 -45t190 -119q68 -68 115.5 -181t47.5 -274q0 -68 -10 -140t-33.5 -155t-71 -166t-112.5 -149q-105 -106 -233.5 -147.5t-290.5 -41.5q-99 0 -193.5 22t-203.5 85l28 244q143 -158 381 -158q215 0 346 123q56 53 98.5 134
t61.5 171h-676l25 197h671q-3 97 -40.5 176t-90.5 129q-110 102 -297 102q-238 0 -397 -151zM641 1489l-88 82l317 284l162 -122z" />
    <glyph glyph-name="afii10048.var.accented" unicode="&#x42e;`" horiz-adv-x="2062" 
d="M473 823h209q51 213 199 357q211 211 536 211q281 0 455 -174q96 -96 136 -209.5t40 -255.5q0 -353 -215 -570q-207 -209 -533 -209q-140 0 -253.5 41t-208.5 136q-183 183 -183 477h-204l-78 -627h-209l168 1366h209zM1319 166q210 0 354 147q78 78 122 190.5t44 237.5
q0 188 -123 320q-64 67 -149.5 102t-175.5 35q-99 0 -194.5 -38t-170.5 -113t-119.5 -180.5t-44.5 -231.5q0 -97 32.5 -187t90.5 -151q124 -131 334 -131zM1180 1489l-88 82l317 284l162 -122z" />
    <glyph glyph-name="afii10049.var.accented" unicode="&#x42f;`" horiz-adv-x="1093" 
d="M41 0l475 569q-123 27 -199 109q-86 93 -86 237q0 190 101 304q42 48 97 79.5t117 45t110 18t106 4.5h336l-168 -1366h-209l67 547h-49l-440 -547h-258zM864 1174h-106q-192 0 -266 -74q-58 -58 -58 -162q0 -82 47 -129q29 -29 81.5 -46t89.5 -20.5t71 -3.5h88zM696 1489
l-88 82l318 284l161 -122z" />
    <glyph glyph-name="afii10023.var.accented" unicode="&#x401;`" 
d="M1085 1366l-24 -197h-545l-41 -346h529l-25 -196h-528l-54 -430h545l-24 -197h-754l168 1366h753zM610 1499l-69 72l264 284l137 -108zM299 1628q0 51 39 90q37 37 92 37q46 0 72 -26q28 -31 28 -76q0 -52 -38 -90q-35 -35 -91 -35q-48 0 -71 26q-31 31 -31 74zM924 1628
q0 51 39 90q34 37 92 37q43 0 69 -26q31 -34 31 -76q0 -51 -39 -90q-35 -35 -90 -35q-49 0 -72 26q-30 30 -30 74z" />
    <glyph glyph-name="afii10065.var.accented" unicode="&#x430;`" horiz-adv-x="1089" 
d="M856 762l12 100h201l-106 -862h-201l10 90q-58 -62 -115 -86q-74 -31 -157 -31q-146 0 -246 95q-53 52 -86 134t-33 177q0 104 38 207.5t112 177.5q121 121 315 121q91 0 158 -37q55 -28 98 -86zM610 705q-100 0 -172 -68q-42 -41 -69 -106.5t-27 -135.5q0 -109 68 -180
q58 -61 145 -61q113 0 188 75q42 43 65 107t23 129q0 115 -67 182q-58 58 -154 58zM868 1382l172 -94l-354 -295l-102 70z" />
    <glyph glyph-name="afii10070.var.accented" unicode="&#x435;`" horiz-adv-x="1001" 
d="M772 291l158 -94q-60 -101 -160 -162q-105 -62 -242 -62q-170 0 -276 109q-117 117 -117 307q0 222 150 369q130 127 315 127q164 0 260 -101q50 -52 78.5 -130.5t28.5 -170.5q0 -46 -11 -100h-616q0 -47 16.5 -95t46.5 -79q51 -55 142 -55q76 0 137 39q57 38 90 98z
M371 547h401q-11 75 -51 119q-44 47 -125 47q-82 0 -145 -51q-52 -43 -80 -115zM823 1382l172 -94l-354 -295l-102 70z" />
    <glyph glyph-name="afii10074.var.accented" unicode="&#x438;`" horiz-adv-x="1044" 
d="M233 862h201l-61 -489l659 567l-114 -940h-201l61 502l-659 -568zM846 1382l172 -94l-354 -295l-103 70z" />
    <glyph glyph-name="afii10080.var.accented" unicode="&#x43e;`" horiz-adv-x="1093" 
d="M641 885q192 0 307 -115q117 -121 117 -299q0 -220 -150 -365q-75 -72 -160 -102.5t-194 -30.5q-93 0 -167 25t-140 92q-119 125 -119 301q0 109 40 201.5t110 159.5q139 133 356 133zM588 154q114 0 190 82q82 89 82 223q0 111 -67 180q-63 66 -164 66q-119 0 -195 -72
q-94 -88 -94 -225q0 -107 63 -179q14 -16 33.5 -30.5t61.5 -29.5t90 -15zM870 1382l172 -94l-354 -295l-102 70z" />
    <glyph glyph-name="afii10085.var.accented" unicode="&#x443;`" horiz-adv-x="987" 
d="M6 -469l410 629l-297 702h237l195 -485l301 485h229l-850 -1331h-225zM817 1382l172 -94l-354 -295l-103 70z" />
    <glyph glyph-name="afii10093.var.accented" unicode="&#x44b;`" horiz-adv-x="1189" 
d="M862 0l107 862h200l-106 -862h-201zM127 0l104 862h203l-39 -305h109q72 0 128.5 -14.5t106.5 -61.5q70 -70 70 -176q0 -134 -86 -217q-56 -54 -126.5 -71t-156.5 -17h-116h-197zM348 172h94q85 0 125 31q39 31 39 86q0 54 -43 78q-31 18 -98 18h-90zM918 1382l172 -94
l-355 -295l-102 70z" />
    <glyph glyph-name="afii10095.var.accented" unicode="&#x44d;`" horiz-adv-x="878" 
d="M156 643l22 191q109 51 244 51q206 0 321 -119q107 -109 107 -293q0 -117 -39.5 -213.5t-105.5 -161.5q-127 -125 -357 -125q-146 0 -264 54l25 190q107 -63 233 -63q117 0 184 51q72 57 88 151h-399l23 168h393q-16 94 -86 140q-62 41 -156 41q-118 0 -233 -62z
M639 1382l172 -94l-354 -295l-103 70z" />
    <glyph glyph-name="afii10096.var.accented" unicode="&#x44e;`" horiz-adv-x="1437" 
d="M395 543h137q32 140 148 235q128 107 317 107q177 0 291 -107q121 -114 121 -301q0 -228 -143 -371q-75 -75 -159.5 -104t-191.5 -29q-220 0 -329 138q-82 104 -82 247h-133l-43 -358h-201l106 862h201zM983 705q-112 0 -188 -72q-43 -43 -68 -112.5t-25 -133.5
q0 -43 15 -91.5t43 -78.5q56 -63 166 -63q119 0 188 75q43 46 66.5 113t23.5 137q0 108 -63 168q-58 58 -158 58zM1042 1382l172 -94l-354 -295l-102 70z" />
    <glyph glyph-name="afii10097.var.accented" unicode="&#x44f;`" horiz-adv-x="841" 
d="M16 0l299 342q-76 12 -125 61q-57 55 -57 160q0 133 74 209q30 31 68 51t82.5 27.5t74 9.5t72.5 2h317l-106 -862h-201l39 317h-33l-260 -317h-244zM573 481l25 209h-117q-83 0 -116 -20q-52 -29 -52 -97q0 -50 39 -73q31 -19 103 -19h118zM743 1382l172 -94l-354 -295
l-102 70z" />
    <glyph glyph-name="afii10071.var.accented" unicode="&#x451;`" horiz-adv-x="1001" 
d="M772 291l158 -94q-60 -101 -160 -162q-105 -62 -242 -62q-170 0 -276 109q-117 117 -117 307q0 222 150 369q130 127 315 127q164 0 260 -101q50 -52 78.5 -130.5t28.5 -170.5q0 -46 -11 -100h-616q0 -47 16.5 -95t46.5 -79q51 -55 142 -55q76 0 137 39q57 38 90 98z
M371 547h401q-11 75 -51 119q-44 47 -125 47q-82 0 -145 -51q-52 -43 -80 -115zM643 1382l137 -77l-321 -299l-80 57zM172 1163q0 49 39 88q41 41 92 41q41 0 72 -28q28 -25 28 -72q0 -52 -36 -88q-41 -41 -86 -41q-46 0 -80 31q-29 29 -29 69zM735 1163q0 46 39 88
q38 41 94 41q42 0 70 -28q29 -29 29 -72q0 -51 -37 -88q-41 -41 -86 -41q-49 0 -80 31q-29 29 -29 69z" />
    <glyph glyph-name="fi" unicode="fi" horiz-adv-x="956" 
d="M633 678h-217l-84 -678h-201l84 678h-70l23 184h70l32 258q13 107 34 175.5t73 121.5q96 101 270 101q166 0 250 -80q82 -77 82 -228q0 -40 -8 -120h-203q8 54 8 98q0 71 -33 102q-35 35 -102 35q-75 0 -115 -43q-18 -19 -30 -50t-16.5 -56t-10.5 -76l-31 -238h217z
M741 862h201l-106 -862h-201z" />
    <glyph glyph-name="fl" unicode="fl" horiz-adv-x="958" 
d="M633 678h-217l-84 -678h-201l84 678h-70l23 184h70l32 258q13 104 35 174t72 123q97 101 274 101q166 0 252 -88q76 -76 76 -216q0 -44 -10 -127l-133 -1087h-201l131 1075q10 92 10 115q0 65 -33 98q-37 37 -102 37q-72 0 -115 -43q-18 -19 -30 -50.5t-16.5 -56.5
t-10.5 -75l-31 -238h217z" />
    <glyph glyph-name=".notdef" horiz-adv-x="477" 
 />
    <glyph glyph-name=".null" horiz-adv-x="0" 
 />
    <glyph glyph-name="nonmarkingreturn" horiz-adv-x="682" 
 />
    <glyph glyph-name="space" unicode=" " horiz-adv-x="477" 
 />
    <glyph glyph-name="exclam" unicode="!" horiz-adv-x="520" 
d="M403 338h-200l127 1028h200zM147 86q0 54 37 94q36 41 101 41q49 0 80 -31q32 -28 32 -81q0 -56 -41 -97q-37 -37 -94 -37q-53 0 -82 29q-33 29 -33 82z" />
    <glyph glyph-name="quotedbl" unicode="&#x22;" horiz-adv-x="749" 
d="M487 1366l-104 -549h-147l30 549h221zM819 1366l-104 -549h-148l31 549h221z" />
    <glyph glyph-name="numbersign" unicode="#" horiz-adv-x="1228" 
d="M834 0h-201l112 401h-233l-113 -401h-200l112 401h-221l51 181h221l66 229h-221l49 180h221l107 375h200l-106 -375h233l107 375h201l-107 -375h221l-49 -180h-221l-66 -229h222l-52 -181h-221zM797 582l65 229h-233l-66 -229h234z" />
    <glyph glyph-name="dollar" unicode="$" horiz-adv-x="1163" 
d="M1118 1161l-180 -98q-15 60 -61 96q-52 39 -138 39q-92 0 -153 -53q-58 -51 -58 -123q0 -57 50 -104q15 -14 33 -25t29.5 -16.5t35.5 -15.5t35 -15l110 -49q112 -50 172 -125q72 -89 72 -223q0 -204 -125 -338q-111 -118 -274 -131l-27 -205h-152l27 202q-120 13 -205 93
q-54 52 -89 132.5t-38 174.5l211 45q0 -125 47 -184q58 -72 158 -72q123 0 195 82q61 71 61 178q0 71 -53 127q-40 42 -139 86l-105 47q-108 51 -162 109q-76 87 -76 200q0 68 28 138.5t81 126.5q104 109 258 126l21 181h151l-20 -183q95 -14 168 -69q80 -58 112 -154z" />
    <glyph glyph-name="percent" unicode="%" horiz-adv-x="1658" 
d="M395 37l946 1352l91 -56l-947 -1356zM1319 629q139 0 229 -90q82 -82 82 -209q0 -150 -102 -252q-95 -92 -244 -92q-147 0 -233 86t-86 213q0 136 102 241q98 103 252 103zM1288 133q80 0 127 51q26 26 40.5 65t14.5 77q0 73 -49 116q-42 39 -108 39q-81 0 -131 -53
q-54 -54 -54 -137q0 -69 46 -115q43 -43 114 -43zM549 1378q139 0 229 -90q82 -85 82 -209q0 -151 -102 -250q-97 -94 -246 -94q-145 0 -231 86t-86 213q0 64 26.5 128t75.5 114q97 102 252 102zM518 883q80 0 127 51q26 26 40.5 64.5t14.5 76.5q0 74 -49 117
q-42 39 -108 39q-81 0 -131 -53q-54 -54 -54 -138q0 -69 45 -114q43 -43 115 -43z" />
    <glyph glyph-name="ampersand" unicode="&#x26;" horiz-adv-x="1323" 
d="M1178 641l116 -139l-184 -187l213 -315h-254l-115 168q-90 -86 -170 -131q-116 -64 -254 -64q-173 0 -276 103q-100 100 -100 258q0 170 120 293q23 23 53 46t46.5 33.5t54.5 33.5t43 26l43 27l-43 65q-61 92 -61 199q0 135 92 231q99 103 270 103q129 0 215 -82
q82 -78 82 -207q0 -97 -57 -172q-7 -9 -14 -17.5t-15.5 -17l-14 -14t-16 -13.5t-14.5 -11.5t-17 -12.5t-15.5 -11t-18 -12.5t-17.5 -11.5l-73 -49l204 -295zM848 315l-230 328q-114 -56 -174 -113q-86 -83 -86 -192q0 -74 52 -129q56 -59 137 -59t162 51q79 51 139 114z
M692 905l74 47q51 30 82 74q26 39 26 84q0 52 -38 82q-34 27 -82 27q-66 0 -109 -43q-37 -37 -37 -97q0 -54 33 -100z" />
    <glyph glyph-name="quotesingle" unicode="'" horiz-adv-x="417" 
d="M487 1366l-104 -549h-147l30 549h221z" />
    <glyph glyph-name="parenleft" unicode="(" horiz-adv-x="673" 
d="M510 -291l-195 -71q-102 310 -102 622q0 419 131 805q80 236 203 451l176 -72q-117 -241 -180 -426q-123 -362 -123 -715q0 -313 90 -594z" />
    <glyph glyph-name="parenright" unicode=")" horiz-adv-x="673" 
d="M299 1444l193 72q65 -186 85.5 -320.5t20.5 -273.5q0 -200 -27 -397t-108 -443q-80 -246 -203 -444l-174 71q108 189 182 420q123 390 123 786q0 132 -19 246t-73 283z" />
    <glyph glyph-name="asterisk" unicode="*" horiz-adv-x="1126" 
d="M442 1341l207 -92l19 244h159l-49 -242l234 90l30 -147l-241 -57l125 -185l-135 -96l-105 199l-158 -199l-110 96l178 181l-225 57z" />
    <glyph glyph-name="plus" unicode="+" 
d="M154 596v184h348v348h192v-348h348v-184h-348v-348h-192v348h-348z" />
    <glyph glyph-name="comma" unicode="," horiz-adv-x="655" 
d="M-12 -264l272 520l172 -70l-315 -505z" />
    <glyph glyph-name="hyphen" unicode="-" horiz-adv-x="696" 
d="M143 332l25 209h491l-24 -209h-492z" />
    <glyph glyph-name="period" unicode="." horiz-adv-x="516" 
d="M145 86q0 54 37 94q36 41 101 41q48 0 79 -31q33 -29 33 -81q0 -56 -41 -97q-37 -37 -94 -37q-53 0 -82 29q-33 29 -33 82z" />
    <glyph glyph-name="slash" unicode="/" horiz-adv-x="1406" 
d="M-37 -362l1301 1929l159 -74l-1300 -1929z" />
    <glyph glyph-name="zero" unicode="0" horiz-adv-x="1163" 
d="M588 -23q-96 0 -163.5 30t-123.5 97q-129 152 -129 420q0 88 11.5 178t38 190.5t78 194.5t122.5 164q138 138 330 138q147 0 254 -101q153 -144 153 -440q0 -487 -241 -731q-76 -76 -152.5 -108t-177.5 -32zM729 1204q-97 0 -168 -74q-83 -85 -132.5 -252.5t-49.5 -336.5
q0 -232 96 -328q49 -49 125 -49q96 0 168 72q92 94 138 263t46 322q0 247 -100 338q-50 45 -123 45z" />
    <glyph glyph-name="one" unicode="1" horiz-adv-x="1163" 
d="M512 0l143 1174h-237l139 192h332l-168 -1366h-209z" />
    <glyph glyph-name="two" unicode="2" horiz-adv-x="1163" 
d="M1012 193l-25 -193h-917l542 573q160 170 191 207q98 121 98 226q0 92 -65 147q-60 51 -158 51q-103 0 -168 -61q-32 -32 -55 -83.5t-29 -103.5h-201q12 86 47 165.5t84 133.5q121 134 334 134q190 0 303 -101q115 -100 115 -260q0 -154 -113 -305q-64 -86 -250 -279
l-243 -251h510z" />
    <glyph glyph-name="three" unicode="3" horiz-adv-x="1163" 
d="M465 1018h-201q27 153 119 252q112 119 313 119q182 0 285 -101q96 -93 96 -250q0 -121 -55 -204q-55 -89 -148 -121q70 -32 113 -101q43 -70 43 -168q0 -217 -129 -346q-74 -74 -157.5 -97.5t-182.5 -23.5q-96 0 -169.5 22t-135.5 87q-107 116 -113 285h201
q4 -97 64 -154q55 -55 159 -55q113 0 176 61q78 78 78 209q0 119 -80 170q-46 33 -145 33h-27l23 176h43q129 0 184 55q27 27 42.5 71t15.5 85q0 90 -62 141q-48 41 -135 41q-91 0 -145 -49q-57 -57 -70 -137z" />
    <glyph glyph-name="four" unicode="4" horiz-adv-x="1163" 
d="M1090 1466l-125 -1015h147l-22 -193h-148l-33 -258h-200l32 258h-678zM463 451h301l51 423z" />
    <glyph glyph-name="five" unicode="5" horiz-adv-x="1163" 
d="M1141 1366l-25 -192h-422l-96 -236q40 4 61 4q172 0 283 -111q117 -115 117 -313q0 -253 -148 -401q-82 -83 -177 -111.5t-202 -28.5q-171 0 -286 72q-95 60 -152 156l154 123q44 -79 112 -121q73 -45 175 -45q140 0 227 82q88 88 88 241q0 147 -86 220q-68 61 -195 61
q-139 0 -284 -90l290 690h566z" />
    <glyph glyph-name="six" unicode="6" horiz-adv-x="1163" 
d="M922 1413l151 -113l-389 -417q36 4 55 4q87 0 167.5 -33.5t135.5 -89.5q111 -111 111 -291q0 -218 -147 -358q-144 -138 -365 -138q-200 0 -324 119q-69 66 -102 150.5t-33 171.5q0 144 90 287q53 85 205 241zM694 719q-131 0 -217 -86q-84 -87 -84 -215q0 -106 72 -182
q70 -74 184 -74q119 0 207 84q92 92 92 227q0 118 -78 186q-67 60 -176 60z" />
    <glyph glyph-name="seven" unicode="7" horiz-adv-x="1163" 
d="M166 55l756 1119h-668l25 192h1015l-972 -1413z" />
    <glyph glyph-name="eight" unicode="8" horiz-adv-x="1163" 
d="M891 711q78 -38 123 -105q49 -73 49 -174q0 -104 -35 -193t-96 -147q-120 -115 -334 -115q-87 0 -157 22.5t-132 80.5q-114 109 -114 293q0 130 67 223q69 95 187 131q-54 33 -89 80q-53 69 -53 176q0 155 105 272q123 134 321 134q159 0 264 -99q107 -101 107 -264
q0 -115 -53 -195q-57 -84 -160 -120zM688 793q105 0 164 59q61 61 61 166q0 84 -57 137q-52 49 -135 49q-46 0 -90.5 -18t-73.5 -47q-61 -61 -61 -158q0 -80 53 -133q52 -55 139 -55zM608 162q113 0 178 67q68 72 68 187q0 88 -55 145q-57 60 -154 60q-104 0 -174 -66
q-70 -68 -70 -178q0 -90 54 -152q58 -63 153 -63z" />
    <glyph glyph-name="nine" unicode="9" horiz-adv-x="1163" 
d="M514 -47l-152 113l379 409q-30 -6 -63 -6q-159 0 -277 121q-120 124 -120 301q0 207 141 348q71 70 168.5 110t208.5 40q102 0 194.5 -33.5t151.5 -95.5q51 -53 79.5 -130.5t28.5 -158.5q0 -152 -90 -295q-61 -96 -202 -246zM745 647q125 0 207 76q92 82 92 221
q0 119 -75 191q-72 69 -187 69q-118 0 -200 -76q-93 -85 -93 -225q0 -116 74 -186q73 -70 182 -70z" />
    <glyph glyph-name="colon" unicode=":" horiz-adv-x="520" 
d="M147 84q0 54 37 94q36 41 101 41q49 0 80 -31q32 -28 32 -82q0 -55 -41 -96q-37 -37 -94 -37q-53 0 -82 29q-33 29 -33 82zM229 750q0 54 37 94q36 41 101 41q48 0 79 -31q33 -29 33 -82q0 -55 -41 -96q-37 -37 -94 -37q-53 0 -82 29q-33 29 -33 82z" />
    <glyph glyph-name="semicolon" unicode=";" horiz-adv-x="657" 
d="M-12 -264l272 520l172 -70l-315 -505zM276 750q0 54 37 94q36 41 101 41q49 0 80 -31q32 -28 32 -82q0 -55 -41 -96q-37 -37 -94 -37q-53 0 -82 29q-33 29 -33 82z" />
    <glyph glyph-name="less" unicode="&#x3c;" 
d="M391 680l676 -320v-196l-889 432v168l889 432v-197z" />
    <glyph glyph-name="equal" unicode="=" 
d="M154 778v172h888v-172h-888zM154 446v172h888v-172h-888z" />
    <glyph glyph-name="greater" unicode="&#x3e;" 
d="M801 680l-676 319v197l889 -432v-168l-889 -432v196z" />
    <glyph glyph-name="question" unicode="?" horiz-adv-x="892" 
d="M449 993h-209v19q0 83 28 159.5t78 126.5q93 93 260 93q148 0 232 -82q77 -75 77 -201q0 -118 -53 -195q-30 -43 -82.5 -80t-103.5 -59l-43 -18q-44 -18 -62 -23q-56 -19 -65 -24q-90 -40 -90 -117q0 -40 22 -62q23 -26 74 -26q49 0 80 31q16 17 25.5 48.5t11.5 59.5h200
q-2 -63 -26 -127.5t-66 -107.5q-87 -89 -237 -89q-137 0 -211 72q-78 74 -78 193q0 118 80 202q63 68 203 115q10 4 36 13t36.5 12.5t30 11.5t30.5 14t23.5 15t21.5 18q39 42 39 107q0 49 -29 82q-26 32 -88 32q-72 0 -109 -49q-36 -46 -36 -147v-17zM336 84q0 54 37 94
q36 41 100 41q49 0 80 -31q33 -29 33 -82q0 -55 -41 -96q-37 -37 -94 -37q-53 0 -82 29q-33 29 -33 82z" />
    <glyph glyph-name="at" unicode="@" horiz-adv-x="1499" 
d="M1081 899l33 107h139l-137 -437q-18 -56 -18 -80q0 -30 16 -49q18 -20 49 -20q59 0 109 45q61 54 93 152.5t32 193.5q0 199 -125 324q-132 129 -350 129q-135 0 -254.5 -51t-206.5 -144q-84 -88 -133 -215.5t-49 -257.5q0 -105 35.5 -197.5t99.5 -156.5
q140 -144 385 -144q217 0 426 84l18 -127q-201 -80 -446 -80q-141 0 -258.5 36t-216.5 130q-175 167 -175 432q0 185 63 336t169 258q216 219 547 219q283 0 446 -159q158 -158 158 -404q0 -62 -9.5 -125t-45 -147.5t-95.5 -144.5q-106 -103 -231 -103q-71 0 -115 41
q-36 36 -41 86q-31 -55 -92 -94q-68 -45 -162 -45q-117 0 -188 71q-82 82 -82 224q0 90 34.5 180.5t100.5 155.5q108 108 264 108q86 0 144 -43q45 -32 69 -88zM776 434q86 0 144 55q45 42 71.5 110t26.5 128q0 75 -43 121q-35 39 -103 39q-92 0 -159 -72q-38 -41 -61 -100
t-23 -121q0 -82 47 -125q37 -35 100 -35z" />
    <glyph glyph-name="A" unicode="A" horiz-adv-x="1343" 
d="M1114 0l-102 330h-584l-190 -330h-230l858 1446l469 -1446h-221zM539 526h413l-147 463z" />
    <glyph glyph-name="B" unicode="B" horiz-adv-x="1077" 
d="M332 1366h207q124 0 210.5 -23.5t145.5 -82.5q86 -89 86 -232q0 -106 -39 -178q-39 -75 -121 -119q93 -33 150 -106q59 -77 59 -189q0 -187 -108 -299q-44 -46 -99.5 -75.5t-119.5 -42t-111 -16t-109 -3.5h-116h-203zM516 1169l-47 -391h63q121 0 185 56q67 60 67 165
q0 74 -45 119q-51 51 -166 51h-57zM446 606l-49 -409h127q165 0 240 69q63 60 63 158q0 84 -61 133q-60 49 -188 49h-132z" />
    <glyph glyph-name="C" unicode="C" horiz-adv-x="1273" 
d="M1337 1292l-28 -245q-151 151 -375 151q-226 0 -371 -139q-78 -74 -125 -191.5t-47 -251.5q0 -195 119 -321q120 -129 321 -129q202 0 388 158l-29 -248q-113 -61 -201.5 -82t-175.5 -21q-135 0 -244 37.5t-204 132.5q-183 183 -183 473q0 343 226 566q216 209 540 209
q190 0 389 -99z" />
    <glyph glyph-name="D" unicode="D" horiz-adv-x="1323" 
d="M332 1366h286q68 0 126.5 -5.5t131.5 -22t141.5 -52.5t125.5 -90q98 -93 132 -204t34 -242q0 -157 -42 -290.5t-151 -242.5q-57 -57 -128 -98t-137.5 -63.5t-148 -35.5t-144 -16.5t-140.5 -3.5h-45h-209zM516 1169l-119 -972h90q52 0 91.5 2t101 11.5t110 27t102 52
t93.5 81.5q115 134 115 350q0 212 -113 328q-40 41 -91.5 67t-108 36.5t-95 13.5t-86.5 3h-90z" />
    <glyph glyph-name="E" unicode="E" 
d="M1085 1366l-24 -197h-545l-41 -346h529l-25 -196h-528l-54 -430h545l-24 -197h-754l168 1366h753z" />
    <glyph glyph-name="F" unicode="F" horiz-adv-x="921" 
d="M1016 1366l-25 -197h-475l-41 -346h459l-25 -196h-458l-78 -627h-209l168 1366h684z" />
    <glyph glyph-name="G" unicode="G" horiz-adv-x="1538" 
d="M940 518l25 193h563q-4 -61 -16.5 -125t-36.5 -142.5t-68.5 -155.5t-103.5 -136q-181 -179 -488 -179q-134 0 -246 41t-209 142q-178 182 -178 454q0 161 62 310t170 256q218 215 559 215q191 0 332 -84q127 -77 215 -199l-168 -125q-66 89 -150 145q-111 70 -250 70
q-237 0 -391 -154q-84 -83 -126 -191.5t-42 -221.5q0 -99 35.5 -190.5t93.5 -151.5q123 -123 318 -123q184 0 303 108q106 96 137 244h-340z" />
    <glyph glyph-name="H" unicode="H" horiz-adv-x="1331" 
d="M541 1366l-66 -541h586l65 541h209l-168 -1366h-209l78 629h-585l-78 -629h-209l168 1366h209z" />
    <glyph glyph-name="I" unicode="I" horiz-adv-x="536" 
d="M332 1366h209l-168 -1366h-209z" />
    <glyph glyph-name="J" unicode="J" horiz-adv-x="735" 
d="M530 1366h209l-108 -885q-9 -75 -16 -118.5t-22.5 -105t-41.5 -108.5t-64 -83q-59 -57 -126 -75t-144 -18q-149 0 -248 74l117 172q52 -49 131 -49q73 0 121 45q34 33 52.5 96t31.5 170z" />
    <glyph glyph-name="K" unicode="K" horiz-adv-x="1200" 
d="M541 1366l-68 -528l590 528h280l-696 -618l529 -748h-275l-414 606l-45 -41l-69 -565h-209l168 1366h209z" />
    <glyph glyph-name="L" unicode="L" horiz-adv-x="806" 
d="M332 1366h209l-144 -1169h402l-25 -197h-403h-207z" />
    <glyph glyph-name="M" unicode="M" horiz-adv-x="1744" 
d="M340 0h-217l467 1468l344 -1060l610 1060l78 -1468h-209l-39 823l-506 -886l-284 888z" />
    <glyph glyph-name="N" unicode="N" horiz-adv-x="1527" 
d="M373 0h-209l178 1458l864 -1038l117 946h209l-178 -1450l-865 1038z" />
    <glyph glyph-name="O" unicode="O" horiz-adv-x="1630" 
d="M979 1391q282 0 461 -179q176 -174 176 -462q0 -347 -215 -566q-64 -65 -137.5 -109t-149 -65t-139.5 -29t-137 -8q-148 0 -263.5 40t-209.5 137q-85 86 -134 206t-49 258q0 161 60 310.5t164 251.5q102 102 251 158.5t322 56.5zM840 166q254 0 401 147q78 76 122 189.5
t44 234.5q0 195 -123 322q-61 63 -149.5 101t-196.5 38q-225 0 -379 -151q-76 -75 -123 -181.5t-47 -236.5q0 -200 127 -332q123 -131 324 -131z" />
    <glyph glyph-name="P" unicode="P" horiz-adv-x="985" 
d="M332 1366h293q219 0 329 -106q101 -97 101 -267q0 -190 -117 -307q-72 -72 -178 -101.5t-250 -29.5h-70l-67 -555h-209zM516 1174l-51 -426h78q170 0 241 63q70 60 70 170q0 93 -63 145q-59 48 -187 48h-88z" />
    <glyph glyph-name="Q" unicode="Q" horiz-adv-x="1630" 
d="M1296 -27l-84 99q-158 -99 -395 -99q-283 0 -450 164q-185 180 -185 475q0 172 56 314t151 241q210 224 547 224q310 0 496 -177q184 -178 184 -458q0 -184 -74 -338q-66 -136 -180 -232l186 -213h-252zM1047 541l188 -209q77 66 119 151q53 109 53 240
q0 113 -38.5 204.5t-100.5 149.5q-58 54 -143 87.5t-187 33.5q-237 0 -389 -160q-77 -82 -117.5 -193.5t-40.5 -230.5q0 -194 123 -321q122 -127 317 -127q136 0 248 51l-286 324h254z" />
    <glyph glyph-name="R" unicode="R" horiz-adv-x="1093" 
d="M332 1366h243q237 0 345 -84q56 -41 93.5 -115.5t37.5 -173.5q0 -97 -33.5 -172t-85.5 -123q-44 -41 -106.5 -71.5t-127.5 -42.5l355 -584h-252l-322 559h-37l-69 -559h-209zM516 1174l-53 -435h65q156 0 238 66q37 29 60.5 76t23.5 100q0 103 -76 154q-58 39 -186 39
h-72z" />
    <glyph glyph-name="S" unicode="S" horiz-adv-x="1056" 
d="M1065 1161l-180 -98q-15 59 -62 96q-52 39 -135 39q-99 0 -156 -53q-57 -50 -57 -123q0 -58 49 -104q15 -14 33 -25t29.5 -16.5t35.5 -15.5t35 -15l111 -49q112 -50 172 -125q72 -89 72 -223q0 -206 -125 -338q-133 -138 -357 -138q-174 0 -274 97q-54 52 -89 132.5
t-38 174.5l211 45q-2 -46 9.5 -98t37.5 -86q55 -72 174 -72q98 0 162 57q38 34 58 89.5t20 111.5q0 73 -53 129q-39 41 -140 86l-104 47q-108 51 -162 109q-76 87 -76 200q0 16 2 35t11 59t33.5 85.5t62.5 85.5q124 131 325 131q139 0 236 -64q94 -62 129 -166z" />
    <glyph glyph-name="T" unicode="T" horiz-adv-x="876" 
d="M999 1169h-313l-143 -1169h-209l143 1169h-313l24 197h836z" />
    <glyph glyph-name="U" unicode="U" horiz-adv-x="1343" 
d="M336 1366h209l-94 -768q-1 -12 -5.5 -42.5t-7 -59t-2.5 -54.5q0 -130 72 -202q74 -74 192 -74q136 0 228 88q31 31 51.5 64.5t32 75.5t16 70t10.5 79l101 823h209l-109 -879q-17 -140 -70.5 -240t-121.5 -157q-143 -117 -363 -117q-245 0 -371 160q-90 111 -90 281
q0 44 23 227z" />
    <glyph glyph-name="V" unicode="V" horiz-adv-x="1228" 
d="M176 1366h221l265 -952l497 952h230l-785 -1454z" />
    <glyph glyph-name="W" unicode="W" horiz-adv-x="1925" 
d="M176 1366h221l248 -913l490 979l235 -979l485 913h230l-789 -1454l-237 969l-479 -969z" />
    <glyph glyph-name="X" unicode="X" horiz-adv-x="1105" 
d="M20 0l519 713l-297 653h221l209 -463l329 463h234l-473 -653l323 -713h-221l-235 522l-375 -522h-234z" />
    <glyph glyph-name="Y" unicode="Y" horiz-adv-x="1105" 
d="M449 0l71 590l-352 776h233l248 -547l383 547h242l-545 -776l-72 -590h-208z" />
    <glyph glyph-name="Z" unicode="Z" horiz-adv-x="1134" 
d="M1241 1366l-815 -1169h655l-24 -197h-996l816 1169h-562l25 197h901z" />
    <glyph glyph-name="bracketleft" unicode="[" horiz-adv-x="647" 
d="M713 1309h-172l-183 -1487h172l-22 -184h-174h-199l230 1855h372z" />
    <glyph glyph-name="backslash" unicode="\" horiz-adv-x="1374" 
d="M1337 -362l-161 -74l-840 1929l160 74z" />
    <glyph glyph-name="bracketright" unicode="]" horiz-adv-x="647" 
d="M72 -178h172l182 1487h-172l25 184h372l-229 -1855h-209h-164z" />
    <glyph glyph-name="asciicircum" unicode="^" 
d="M600 1208l-266 -491h-213l350 649h258l350 -649h-213z" />
    <glyph glyph-name="underscore" unicode="_" horiz-adv-x="819" 
d="M0 -295v176h819v-176h-819z" />
    <glyph glyph-name="grave" unicode="`" 
d="M616 993l-284 295l196 94l207 -319z" />
    <glyph glyph-name="a" unicode="a" horiz-adv-x="1089" 
d="M856 762l12 100h201l-106 -862h-201l10 90q-58 -62 -115 -86q-74 -31 -157 -31q-146 0 -246 95q-53 52 -86 134t-33 177q0 104 38 207.5t112 177.5q121 121 315 121q91 0 158 -37q55 -28 98 -86zM610 705q-100 0 -172 -68q-42 -41 -69 -106.5t-27 -135.5q0 -109 68 -180
q58 -61 145 -61q113 0 188 75q42 43 65 107t23 129q0 115 -67 182q-58 58 -154 58z" />
    <glyph glyph-name="b" unicode="b" horiz-adv-x="1089" 
d="M512 1493l-90 -731q44 57 100 86q67 37 174 37q157 0 256 -99q109 -109 109 -294q0 -237 -141 -388q-123 -131 -324 -131q-99 0 -170 41q-49 26 -88 76l-10 -90h-201l184 1493h201zM643 705q-115 0 -188 -78q-41 -44 -64.5 -107t-23.5 -129q0 -111 69 -180
q57 -57 148 -57q108 0 182 77q42 43 66 105t24 127q0 116 -68 184q-58 58 -145 58z" />
    <glyph glyph-name="c" unicode="c" horiz-adv-x="864" 
d="M899 811l-27 -217q-51 51 -102 78q-62 33 -127 33q-136 0 -219 -87q-82 -85 -82 -212q0 -59 20.5 -108.5t53.5 -80.5q66 -63 178 -63q76 0 139 30q64 36 98 74l-26 -225q-91 -60 -256 -60q-182 0 -293 111q-121 117 -121 313q0 211 144 355q136 133 352 133
q154 0 268 -74z" />
    <glyph glyph-name="d" unicode="d" horiz-adv-x="1089" 
d="M856 762l90 731h201l-184 -1493h-201l10 90q-51 -59 -110 -86q-61 -31 -148 -31q-157 0 -256 99q-58 58 -90.5 142t-32.5 181q0 106 42 210.5t116 172.5q116 107 295 107q97 0 166 -35q56 -26 102 -88zM606 705q-106 0 -174 -68q-92 -89 -92 -234q0 -117 66 -186
q58 -63 155 -63q111 0 180 69q41 41 64.5 106t23.5 132q0 109 -65 178q-63 66 -158 66z" />
    <glyph glyph-name="e" unicode="e" horiz-adv-x="1001" 
d="M772 291l158 -94q-60 -101 -160 -162q-105 -62 -242 -62q-170 0 -276 109q-117 117 -117 307q0 222 150 369q130 127 315 127q164 0 260 -101q50 -52 78.5 -130.5t28.5 -170.5q0 -46 -11 -100h-616q0 -47 16.5 -95t46.5 -79q51 -55 142 -55q76 0 137 39q57 38 90 98z
M371 547h401q-11 75 -51 119q-44 47 -125 47q-82 0 -145 -51q-52 -43 -80 -115z" />
    <glyph glyph-name="f" unicode="f" horiz-adv-x="538" 
d="M635 678h-217l-84 -678h-201l84 678h-86l23 184h86l41 330q5 46 11.5 78.5t28.5 81t56 82.5q82 82 219 82q69 0 137 -29l-24 -197q-50 33 -101 33q-111 0 -131 -162l-37 -299h217z" />
    <glyph glyph-name="g" unicode="g" horiz-adv-x="1083" 
d="M850 768l12 94h201l-105 -839q-30 -262 -127 -369q-47 -52 -130 -88.5t-201 -36.5q-155 0 -254 82q-64 54 -96 133.5t-35 159.5h194q2 -38 16.5 -79t39.5 -67q49 -49 145 -49q102 0 162 60q62 62 82 217l14 110q-86 -123 -250 -123q-161 0 -272 111q-119 119 -119 307
q0 105 40 203.5t114 171.5q65 64 139.5 91.5t175.5 27.5q163 0 254 -117zM608 705q-117 0 -190 -76q-39 -40 -60.5 -103t-21.5 -125q0 -111 63 -178q65 -69 158 -69q101 0 174 73q92 92 92 240q0 111 -65 176q-62 62 -150 62z" />
    <glyph glyph-name="h" unicode="h" horiz-adv-x="995" 
d="M127 0l184 1493h201l-88 -705q35 39 86 64q65 33 147 33q131 0 205 -74q78 -78 78 -209q0 -35 -18 -178l-54 -424h-200l55 444q10 76 10 115q0 74 -39 111q-38 35 -102 35q-81 0 -129 -48q-63 -60 -84 -241l-51 -416h-201z" />
    <glyph glyph-name="i" unicode="i" horiz-adv-x="456" 
d="M233 862h201l-106 -862h-201zM246 1198q0 64 43 107t104 43q51 0 82 -31q33 -33 33 -78q0 -60 -41 -104q-42 -45 -109 -45q-49 0 -79 30q-33 29 -33 78z" />
    <glyph glyph-name="j" unicode="j" horiz-adv-x="456" 
d="M233 862h201l-164 -1331h-200zM246 1198q0 64 43 107t104 43q51 0 82 -31q33 -33 33 -78q0 -60 -41 -104q-42 -45 -109 -45q-49 0 -79 30q-33 29 -33 78z" />
    <glyph glyph-name="k" unicode="k" horiz-adv-x="905" 
d="M311 1493h201l-115 -920l318 289h266l-420 -360l336 -502h-250l-237 369l-41 -37l-41 -332h-201z" />
    <glyph glyph-name="l" unicode="l" horiz-adv-x="454" 
d="M311 1493h201l-184 -1493h-201z" />
    <glyph glyph-name="m" unicode="m" horiz-adv-x="1437" 
d="M127 0l106 862h201l-10 -80q45 49 84 70q59 33 141 33q73 0 123 -33q55 -35 84 -94q35 51 98 90q62 37 146 37q130 0 203 -70q77 -71 77 -207q0 -52 -16 -174l-53 -434h-201l53 434q1 12 5 37t6 46t2 38q0 80 -35 115q-14 15 -38.5 25t-49.5 10q-53 0 -95 -37
q-64 -59 -84 -224l-55 -444h-201l56 453q10 76 10 108q0 76 -35 111q-33 33 -86 33q-63 0 -106 -43q-56 -56 -74 -218l-55 -444h-201z" />
    <glyph glyph-name="n" unicode="n" horiz-adv-x="993" 
d="M125 0l106 862h201l-10 -78q36 44 86 68q67 33 147 33q131 0 205 -74q78 -78 78 -205q0 -37 -18 -182l-54 -424h-200l55 444q10 76 10 115q0 74 -39 111q-38 35 -102 35q-81 0 -129 -48q-63 -60 -84 -241l-51 -416h-201z" />
    <glyph glyph-name="o" unicode="o" horiz-adv-x="1093" 
d="M641 885q192 0 307 -115q117 -121 117 -299q0 -220 -150 -365q-75 -72 -160 -102.5t-194 -30.5q-93 0 -167 25t-140 92q-119 125 -119 301q0 109 40 201.5t110 159.5q139 133 356 133zM588 154q114 0 190 82q82 89 82 223q0 111 -67 180q-63 66 -164 66q-119 0 -195 -72
q-94 -88 -94 -225q0 -107 63 -179q14 -16 33.5 -30.5t61.5 -29.5t90 -15z" />
    <glyph glyph-name="p" unicode="p" horiz-adv-x="1089" 
d="M340 100l-70 -569h-200l163 1331h201l-12 -94q41 55 102 82q71 35 154 35q80 0 153 -30t121 -81q109 -114 109 -293q0 -109 -40.5 -212t-105.5 -173q-119 -125 -286 -125q-117 0 -195 47q-50 31 -94 82zM631 705q-105 0 -172 -64q-44 -42 -69 -109.5t-25 -140.5
q0 -111 57 -170q64 -67 164 -67q101 0 170 69q43 43 70.5 108.5t27.5 133.5q0 106 -61 174q-60 66 -162 66z" />
    <glyph glyph-name="q" unicode="q" horiz-adv-x="1089" 
d="M856 768l12 94h201l-164 -1331h-200l69 565q-34 -53 -100 -88t-150 -35q-165 0 -268 97q-121 115 -121 299q0 109 40.5 216.5t111.5 178.5q121 121 315 121q77 0 150 -33q68 -30 104 -84zM608 705q-104 0 -172 -68q-46 -48 -70 -115.5t-24 -138.5q0 -109 66 -172
q57 -57 151 -57q109 0 176 67q42 41 69 110.5t27 133.5q0 48 -17 97.5t-48 80.5q-62 62 -158 62z" />
    <glyph glyph-name="r" unicode="r" horiz-adv-x="679" 
d="M127 0l106 862h201l-10 -78q39 47 92 74t131 27q81 0 148 -41l-99 -182q-46 30 -106 30q-82 0 -133 -51q-55 -57 -74 -195l-55 -446h-201z" />
    <glyph glyph-name="s" unicode="s" horiz-adv-x="745" 
d="M725 733l-156 -98q-13 32 -41 53q-26 21 -61 21q-45 0 -70 -25q-18 -18 -18 -45q0 -31 24 -49q6 -5 84 -45l58 -29q68 -34 108 -74q66 -71 66 -178q0 -127 -86 -209q-88 -82 -242 -82q-117 0 -192 56q-76 57 -107 157l174 78q13 -53 47 -84q33 -30 84 -30t80 26
q33 26 33 76q0 43 -29 72q-18 18 -82 49l-55 28q-66 34 -98 66q-60 57 -60 149q0 113 78 191t213 78q88 0 150 -41q57 -37 98 -111z" />
    <glyph glyph-name="t" unicode="t" horiz-adv-x="495" 
d="M571 678h-153l-84 -678h-201l84 678h-84l23 184h84l39 316h200l-39 -316h154z" />
    <glyph glyph-name="u" unicode="u" horiz-adv-x="993" 
d="M236 862h200l-55 -448q-10 -75 -10 -101q0 -77 41 -118t112 -41q34 0 68.5 12.5t56.5 32.5q21 20 34.5 52.5t17.5 54.5t10 63l61 493h201l-62 -500q-7 -60 -14.5 -99.5t-33.5 -98t-68 -98.5q-97 -93 -273 -93q-182 0 -274 95q-80 83 -80 208q0 29 10 117z" />
    <glyph glyph-name="v" unicode="v" horiz-adv-x="917" 
d="M119 862h221l160 -491l282 491h230l-561 -923z" />
    <glyph glyph-name="w" unicode="w" horiz-adv-x="1404" 
d="M119 862h221l162 -493l311 567l172 -567l285 493h229l-563 -923l-174 550l-309 -550z" />
    <glyph glyph-name="x" unicode="x" horiz-adv-x="1015" 
d="M12 0l439 467l-258 395h233l160 -252l223 252h250l-367 -395l312 -467h-238l-209 322l-295 -322h-250z" />
    <glyph glyph-name="y" unicode="y" horiz-adv-x="987" 
d="M6 -469l410 629l-297 702h237l195 -485l301 485h229l-850 -1331h-225z" />
    <glyph glyph-name="z" unicode="z" horiz-adv-x="983" 
d="M1073 862l-639 -678h512l-22 -184h-908l643 678h-440l23 184h831z" />
    <glyph glyph-name="braceleft" unicode="{" horiz-adv-x="1028" 
d="M723 1157l-41 -344q-15 -115 -49 -166q-37 -55 -109 -82q42 -15 66 -49q46 -62 31 -199l-41 -344q-4 -33 -5 -52t7 -47.5t30 -43.5q31 -20 127 -20h17l-21 -172h-96q-134 0 -195 43q-51 36 -66 94.5t-5 146.5l47 391q10 105 -25 142q-25 28 -69 28l20 164q58 5 94 45
q16 18 25.5 43t11 37.5t4.5 44.5l47 391q16 148 88 215q27 25 58 40.5t68 21t60 7t62 1.5h97l-21 -172h-29h-18h-21.5t-19 -1t-22.5 -3t-18.5 -5t-20.5 -8t-17 -12q-18 -15 -29.5 -40.5t-14.5 -43t-7 -51.5z" />
    <glyph glyph-name="bar" unicode="|" horiz-adv-x="772" 
d="M350 -512v2048h197v-2048h-197z" />
    <glyph glyph-name="braceright" unicode="}" horiz-adv-x="1028" 
d="M465 -27l43 344q14 113 51 166q36 56 107 82q-44 22 -74 64q-25 36 -28.5 84t5.5 100l41 344q8 39 3.5 80.5t-33.5 62.5q-35 21 -129 21h-17l21 172h96q140 0 197 -39q92 -60 69 -246l-47 -391q-7 -32 -2.5 -71.5t29.5 -65.5q28 -28 67 -33l-20 -164q-57 -6 -88 -41
q-37 -39 -47 -129l-50 -391q-7 -69 -23.5 -119.5t-55.5 -89.5q-73 -75 -234 -75h-119l21 172h28q104 0 142 34q18 16 28.5 42.5t13 41.5t5.5 45z" />
    <glyph glyph-name="asciitilde" unicode="~" 
d="M977 739l108 -67q-51 -102 -143 -178q-89 -70 -184 -70q-82 0 -207 55q-4 2 -34 16t-50.5 22.5t-52 17t-56.5 8.5q-61 0 -110 -45q-47 -44 -72 -92l-104 73q57 106 123 170q86 86 202 86q38 0 77.5 -10t63 -20t62.5 -29q74 -34 116 -48t81 -14q59 0 104 37q45 36 76 88z
" />
    <glyph glyph-name="uni00A0" unicode="&#xa0;" horiz-adv-x="477" 
 />
    <glyph glyph-name="exclamdown" unicode="&#xa1;" horiz-adv-x="520" 
d="M246 557h200l-127 -1028h-200zM252 784q0 55 37 95q36 41 100 41q49 0 80 -31q33 -29 33 -82q0 -55 -41 -96q-37 -37 -94 -37q-54 0 -82 28q-33 29 -33 82z" />
    <glyph glyph-name="cent" unicode="&#xa2;" horiz-adv-x="1163" 
d="M1030 1073l-26 -219q-99 107 -240 107q-125 0 -201 -72q-43 -42 -66.5 -103t-23.5 -124q0 -124 74 -191q64 -61 170 -61q141 0 244 100l-27 -217q-92 -57 -201 -60l-24 -206h-152l25 209q-123 22 -205 108q-111 114 -111 297q0 111 39.5 206.5t104.5 160.5
q114 114 280 129l27 204h151l-26 -206q99 -6 188 -62z" />
    <glyph glyph-name="sterling" unicode="&#xa3;" horiz-adv-x="1163" 
d="M1167 909h-198q4 24 4 66q0 95 -58 153q-68 68 -174 68q-108 0 -176 -68q-71 -71 -71 -184q0 -87 69 -268h266l-18 -148h-207q10 -44 10 -84q0 -92 -47 -182l80 -31q5 -2 24.5 -9.5t26.5 -10.5t24 -9t26.5 -8.5t24 -5.5t27 -4.5t25.5 -1.5q54 0 93 39q38 42 61 90
l156 -98q-56 -106 -138 -168q-79 -63 -194 -63q-90 0 -195 41l-80 30q-7 2 -33.5 12.5t-36 13.5t-28 7t-33.5 4q-65 0 -110 -45q-33 -29 -54 -76l-165 90q52 94 114 150q74 64 176 74q50 87 50 161q0 39 -19 84h-233l18 148h160q-51 128 -51 256q0 204 133 334
q71 69 151.5 96t186.5 27q202 0 309 -105q111 -109 111 -291q0 -14 -7 -84z" />
    <glyph glyph-name="currency" unicode="&#xa4;" horiz-adv-x="1366" 
d="M281 1352l202 -203q121 98 293 98t293 -98l203 203l110 -111l-202 -203q92 -118 92 -286q0 -169 -92 -287l202 -203l-110 -110l-203 202q-121 -98 -293 -98t-293 98l-202 -202l-111 110l203 203q-92 118 -92 287q0 168 92 286l-203 203zM776 432q134 0 223 92
q88 91 88 228q0 136 -90 229q-90 90 -221 90t-221 -90t-90 -229q0 -137 88 -228q88 -92 223 -92z" />
    <glyph glyph-name="yen" unicode="&#xa5;" horiz-adv-x="1163" 
d="M1165 772h-293l-102 -151h377l-17 -144h-393l-59 -477h-193l60 477h-393l16 144h377l-66 151h-293l19 143h213l-193 451h221l232 -547l366 547h230l-303 -451h213z" />
    <glyph glyph-name="brokenbar" unicode="&#xa6;" horiz-adv-x="772" 
d="M350 799v737h197v-737h-197zM350 -512v737h197v-737h-197z" />
    <glyph glyph-name="section" unicode="&#xa7;" horiz-adv-x="1161" 
d="M1122 1075h-192q4 20 4 55q0 91 -49 140q-49 47 -135 47q-93 0 -144 -51q-51 -48 -51 -125q0 -84 61 -133q7 -5 13.5 -9.5t17 -10t17.5 -9t23.5 -10t25 -10t32.5 -13t37 -14.5q134 -51 199 -123q80 -92 80 -223q0 -121 -72 -213q-63 -80 -149 -111q110 -90 110 -246
q0 -160 -106 -266q-112 -112 -297 -112q-168 0 -262 92q-53 51 -82 131.5t-29 167.5v8h193v-10q0 -111 53 -164q49 -49 139 -49q81 0 129 43q25 22 41 59.5t16 77.5q0 64 -51 115q-15 15 -35.5 28.5t-35 20.5t-41.5 18.5t-37 16.5l-37 16q-5 2 -26.5 11.5t-31 14t-29.5 15
t-33 19.5t-29.5 22t-30.5 28q-82 86 -82 213q0 129 63 218q62 85 170 129q-121 87 -121 237q0 161 105 266q111 111 289 111q186 0 286 -100q88 -88 88 -244q0 -47 -4 -74zM664 772q-89 0 -150 -61q-59 -63 -59 -160q0 -84 49 -131q49 -49 131 -49q102 0 158 59
q59 59 59 164q0 86 -55 133q-52 45 -133 45z" />
    <glyph glyph-name="dieresis" unicode="&#xa8;" 
d="M338 1165q6 53 47.5 90t93.5 37q53 0 86 -37.5t27 -89.5q-8 -53 -49.5 -90t-93.5 -37q-53 0 -85.5 37.5t-25.5 89.5zM707 1165q6 53 47.5 90t93.5 37q53 0 86 -37.5t27 -89.5q-8 -53 -50 -90t-94 -37q-53 0 -85 37.5t-25 89.5z" />
    <glyph glyph-name="copyright" unicode="&#xa9;" horiz-adv-x="1538" 
d="M1122 1044v-178q-106 103 -239 103q-125 0 -207 -82q-80 -80 -80 -209q0 -121 76 -197q84 -84 217 -84q132 0 233 105v-180q-114 -64 -248 -64q-190 0 -317 127q-117 121 -117 297q0 171 115 295q127 131 330 131q132 0 237 -64zM850 1290q-250 0 -422 -172t-172 -436
t172 -436t422 -172t422 172t172 436t-172 436t-422 172zM1559 682q0 -154 -54 -285.5t-147 -224.5q-92 -92 -221.5 -146.5t-286.5 -54.5t-286.5 54.5t-221.5 146.5q-93 93 -147 224.5t-54 285.5t54 285.5t147 224.5q92 92 221.5 146.5t286.5 54.5t286.5 -54.5t221.5 -146.5
q93 -93 147 -224.5t54 -285.5z" />
    <glyph glyph-name="ordfeminine" unicode="&#xaa;" horiz-adv-x="753" 
d="M670 1294l6 60h133l-66 -547h-135l6 51q-65 -65 -161 -65q-111 0 -181 73q-67 70 -67 178q0 142 92 234q88 88 211 88q104 0 162 -72zM510 1249q-64 0 -111 -47q-57 -57 -57 -149q0 -68 41 -109q37 -37 98 -37q68 0 113 45q57 57 57 150q0 69 -37 106q-38 41 -104 41z
M184 702h547l-12 -106h-547z" />
    <glyph glyph-name="guillemotleft" unicode="&#xab;" horiz-adv-x="1048" 
d="M342 440l217 -338l-145 -88l-277 435l395 442l121 -105zM723 440l217 -338l-145 -88l-277 435l395 442l121 -105z" />
    <glyph glyph-name="logicalnot" unicode="&#xac;" 
d="M979 0h-201v367h-688v180h889v-547z" />
    <glyph glyph-name="uni00AD" unicode="&#xad;" horiz-adv-x="696" 
d="M143 332l25 209h491l-24 -209h-492z" />
    <glyph glyph-name="registered" unicode="&#xae;" horiz-adv-x="1552" 
d="M1206 313h-178l-237 303v-303h-146v766h225q132 0 195 -63q57 -57 57 -158q0 -98 -55 -158q-42 -47 -115 -67zM791 950v-213h28q85 0 123 31q37 32 37 84q0 58 -39 80q-27 18 -100 18h-49zM860 1290q-250 0 -422 -172t-172 -436t172 -436t422 -172t422 172t172 436
t-172 436t-422 172zM1569 682q0 -154 -54 -285.5t-147 -224.5q-92 -92 -221.5 -146.5t-286.5 -54.5t-286.5 54.5t-221.5 146.5q-93 93 -146.5 224t-53.5 286t53.5 286t146.5 224q92 92 221.5 146.5t286.5 54.5t286.5 -54.5t221.5 -146.5q93 -93 147 -224.5t54 -285.5z" />
    <glyph glyph-name="macron" unicode="&#xaf;" 
d="M301 1040l21 160h675l-20 -160h-676z" />
    <glyph glyph-name="degree" unicode="&#xb0;" horiz-adv-x="1028" 
d="M344 1044q0 133 84 224q91 98 236 98q119 0 200 -72q82 -74 82 -200q0 -148 -88 -236q-86 -86 -229 -86q-131 0 -213 82q-72 72 -72 190zM471 1055q0 -74 47 -121q43 -43 115 -43q82 0 131 49q55 52 55 143q0 76 -45 121q-43 43 -117 43q-82 0 -133 -51q-53 -53 -53 -141
z" />
    <glyph glyph-name="plusminus" unicode="&#xb1;" 
d="M131 717v184h348v334h193v-334h348v-184h-348v-334h-193v334h-348zM131 123v184h889v-184h-889z" />
    <glyph glyph-name="twosuperior" unicode="&#xb2;" horiz-adv-x="759" 
d="M727 682l-16 -135h-594l340 332q68 65 118 125q58 72 58 129q0 49 -35 81q-36 31 -92 31q-68 0 -107 -39q-42 -42 -49 -110h-143q18 116 92 196q80 88 217 88q136 0 205 -73q61 -61 61 -160q0 -94 -65 -180q-46 -58 -142 -152l-137 -133h289z" />
    <glyph glyph-name="threesuperior" unicode="&#xb3;" horiz-adv-x="761" 
d="M162 791h143q4 -58 37 -91q32 -32 102 -32q66 0 105 34q41 36 41 105q0 58 -43 86q-30 20 -105 20h-28l16 136h49q77 0 109 26q35 26 35 76q0 46 -31 70q-32 24 -84 24q-63 0 -94 -33q-29 -29 -39 -79h-144q15 106 88 176q74 71 197 71q130 0 197 -67q57 -57 57 -150
q0 -79 -41 -127q-36 -43 -90 -57q43 -13 72 -49q34 -43 34 -113q0 -120 -73 -196q-82 -89 -232 -89q-135 0 -207 72q-71 71 -71 187z" />
    <glyph glyph-name="acute" unicode="&#xb4;" 
d="M836 1382l172 -94l-355 -295l-102 70z" />
    <glyph glyph-name="mu" unicode="&#xb5;" horiz-adv-x="1073" 
d="M270 -471h-200l163 1333h201l-45 -370q-12 -114 -12 -138q0 -94 53 -149q49 -49 133 -49q97 0 154 57q28 27 46.5 73t24.5 79.5t13 89.5l51 407h201l-107 -862h-201l17 129q-8 -21 -31.5 -56.5t-56.5 -60.5q-51 -37 -129 -37q-86 0 -135 52q-44 44 -64 123z" />
    <glyph glyph-name="mu" unicode="&#x3bc;" horiz-adv-x="1073" 
d="M270 -471h-200l163 1333h201l-45 -370q-12 -114 -12 -138q0 -94 53 -149q49 -49 133 -49q97 0 154 57q28 27 46.5 73t24.5 79.5t13 89.5l51 407h201l-107 -862h-201l17 129q-8 -21 -31.5 -56.5t-56.5 -60.5q-51 -37 -129 -37q-86 0 -135 52q-44 44 -64 123z" />
    <glyph glyph-name="paragraph" unicode="&#xb6;" horiz-adv-x="1265" 
d="M596 -197h-170l104 846h-14q-172 0 -262 92q-82 86 -82 226q0 171 100 278q69 74 167.5 97.5t240.5 23.5h608l-18 -156h-135l-174 -1407h-168l174 1407h-197z" />
    <glyph glyph-name="periodcentered" unicode="&#xb7;" horiz-adv-x="409" 
d="M129 674q0 77 59 133q52 49 121 49q64 0 105 -41q39 -42 39 -96q0 -74 -54 -131q-48 -51 -123 -51q-65 0 -106 38t-41 99z" />
    <glyph glyph-name="cedilla" unicode="&#xb8;" 
d="M514 -109l162 -65l-244 -275l-123 66z" />
    <glyph glyph-name="onesuperior" unicode="&#xb9;" horiz-adv-x="757" 
d="M399 547l84 684h-159l102 135h225l-100 -819h-152z" />
    <glyph glyph-name="ordmasculine" unicode="&#xba;" horiz-adv-x="755" 
d="M475 791q-132 0 -205 75q-69 69 -69 187q0 133 90 223t239 90q125 0 199 -72q76 -73 76 -192q0 -135 -86 -221q-90 -90 -244 -90zM520 1249q-80 0 -129 -49q-51 -54 -51 -139q0 -72 43 -115q41 -41 109 -41q75 0 124 49q52 56 52 144q0 69 -41 110t-107 41zM184 702h549
l-12 -106h-549z" />
    <glyph glyph-name="guillemotright" unicode="&#xbb;" horiz-adv-x="1048" 
d="M424 455l-223 338l145 90l285 -434l-379 -435l-121 103zM807 455l-223 338l145 90l285 -434l-379 -435l-121 103z" />
    <glyph glyph-name="onequarter" unicode="&#xbc;" horiz-adv-x="1642" 
d="M399 547l84 684h-159l102 135h221l-100 -819h-148zM465 35l948 1354l92 -58l-948 -1354zM1212 283h160l27 211zM1593 881l-73 -590h88l-17 -135h-88l-18 -156h-148l19 156h-428z" />
    <glyph glyph-name="onehalf" unicode="&#xbd;" horiz-adv-x="1638" 
d="M399 547l84 684h-159l102 135h221l-100 -819h-148zM342 35l948 1354l92 -58l-948 -1354zM1540 135l-16 -135h-594l340 332q73 70 119 125q57 71 57 129q0 50 -35 82q-35 30 -92 30q-68 0 -107 -39q-42 -42 -49 -110h-143q18 116 92 196q81 89 217 89q135 0 205 -74
q61 -61 61 -160q0 -94 -65 -180q-49 -62 -141 -152l-138 -133h289z" />
    <glyph glyph-name="threequarters" unicode="&#xbe;" horiz-adv-x="1642" 
d="M162 791h143q4 -58 37 -91q32 -32 102 -32q66 0 105 34q41 36 41 105q0 58 -43 86q-30 20 -105 20h-28l16 136h49q77 0 109 26q35 26 35 78q0 43 -31 68q-32 24 -84 24q-63 0 -94 -33q-29 -29 -39 -79h-144q15 106 88 176q74 71 197 71q130 0 197 -67q57 -57 57 -150
q0 -79 -41 -127q-36 -43 -90 -57q43 -13 72 -49q34 -43 34 -113q0 -120 -73 -196q-82 -89 -232 -89q-135 0 -207 72q-71 71 -71 187zM465 35l948 1354l92 -58l-948 -1354zM1212 283h160l27 211zM1593 881l-73 -590h88l-17 -135h-88l-18 -156h-148l19 156h-428z" />
    <glyph glyph-name="questiondown" unicode="&#xbf;" horiz-adv-x="888" 
d="M573 -98h209v-11q0 -196 -100 -294q-96 -93 -266 -93q-144 0 -230 86q-80 80 -80 203q0 63 23.5 124t67.5 108q68 72 217 125q132 46 155 69q37 32 37 80q0 45 -26 68q-26 24 -72 24q-58 0 -88 -43q-23 -38 -27 -96h-200q6 68 33.5 134.5t66.5 105.5q83 83 229 83
q135 0 209 -71q78 -71 78 -199q0 -118 -76 -194q-64 -64 -168 -103q-73 -26 -101 -36.5t-58 -25.5t-48 -32q-47 -45 -47 -109q0 -51 33 -84q32 -32 92 -32q72 0 109 47q12 15 18 38.5t7.5 38t2 49t0.5 40.5zM432 784q0 55 37 95q36 41 100 41q49 0 80 -31q33 -29 33 -82
q0 -55 -41 -96q-37 -37 -94 -37q-54 0 -82 28q-33 29 -33 82z" />
    <glyph glyph-name="Agrave" unicode="&#xc0;" horiz-adv-x="1343" 
d="M1114 0l-102 330h-584l-190 -330h-230l858 1446l469 -1446h-221zM539 526h413l-147 463zM928 1489l-330 244l190 122l248 -284z" />
    <glyph glyph-name="Aacute" unicode="&#xc1;" horiz-adv-x="1343" 
d="M1114 0l-102 330h-584l-190 -330h-230l858 1446l469 -1446h-221zM539 526h413l-147 463zM821 1489l-88 82l318 284l161 -122z" />
    <glyph glyph-name="Acircumflex" unicode="&#xc2;" horiz-adv-x="1343" 
d="M1114 0l-102 330h-584l-190 -330h-230l858 1446l469 -1446h-221zM539 526h413l-147 463zM879 1663l-224 -168l-127 115l371 274l305 -274l-143 -115z" />
    <glyph glyph-name="Atilde" unicode="&#xc3;" horiz-adv-x="1343" 
d="M1114 0l-102 330h-584l-190 -330h-230l858 1446l469 -1446h-221zM539 526h413l-147 463zM1143 1767l106 -94q-47 -76 -98 -119q-63 -53 -156 -53q-25 0 -49 5.5t-35.5 10t-40.5 17.5l-43 20q-68 33 -100 33q-38 0 -70 -28q-26 -21 -45 -58l-110 84q55 74 100 111
q67 55 152 55q63 0 123 -31l38 -20q73 -39 103 -39q43 0 78 39q22 26 47 67z" />
    <glyph glyph-name="Adieresis" unicode="&#xc4;" horiz-adv-x="1343" 
d="M1114 0l-102 330h-584l-190 -330h-230l858 1446l469 -1446h-221zM539 526h413l-147 463zM948 1614q0 57 43 100q41 41 103 41q48 0 77 -31q33 -33 33 -84q0 -60 -43 -100q-42 -39 -100 -39q-49 0 -80 31q-33 29 -33 82zM549 1614q0 57 43 100q41 41 102 41q49 0 78 -31
q33 -33 33 -84q0 -60 -43 -100q-42 -39 -100 -39q-49 0 -80 31q-33 29 -33 82z" />
    <glyph glyph-name="Aring" unicode="&#xc5;" horiz-adv-x="1343" 
d="M1114 0l-102 330h-584l-190 -330h-230l858 1446l469 -1446h-221zM539 526h413l-147 463zM682 1669q0 87 55 146q63 69 164 69q82 0 131 -49q51 -49 51 -131q0 -97 -59 -156q-61 -61 -160 -61q-80 0 -129 49q-53 53 -53 133zM795 1677q0 -37 22 -59q21 -21 55 -21
q43 0 72 29q27 27 27 70q0 32 -23 55t-55 23q-39 0 -70 -27q-28 -28 -28 -70z" />
    <glyph glyph-name="AE" unicode="&#xc6;" horiz-adv-x="1896" 
d="M1118 0l-102 326h-580l-190 -326h-226l824 1366h604l61 -197h-542l104 -325h528l62 -197h-528l139 -450h543l61 -197h-758zM551 522h405l-139 445z" />
    <glyph glyph-name="Ccedilla" unicode="&#xc7;" horiz-adv-x="1273" 
d="M1337 1292l-28 -245q-151 151 -375 151q-226 0 -371 -139q-78 -74 -125 -191.5t-47 -251.5q0 -195 119 -321q120 -129 321 -129q202 0 388 158l-29 -248q-113 -61 -201.5 -82t-175.5 -21q-135 0 -244 37.5t-204 132.5q-183 183 -183 473q0 343 226 566q216 209 540 209
q190 0 389 -99zM764 -109l168 -77l-264 -273l-123 66z" />
    <glyph glyph-name="Egrave" unicode="&#xc8;" 
d="M1085 1366l-24 -197h-545l-41 -346h529l-25 -196h-528l-54 -430h545l-24 -197h-754l168 1366h753zM768 1489l-330 244l191 122l248 -284z" />
    <glyph glyph-name="Eacute" unicode="&#xc9;" 
d="M1085 1366l-24 -197h-545l-41 -346h529l-25 -196h-528l-54 -430h545l-24 -197h-754l168 1366h753zM662 1489l-89 82l318 284l162 -122z" />
    <glyph glyph-name="Ecircumflex" unicode="&#xca;" 
d="M1085 1366l-24 -197h-545l-41 -346h529l-25 -196h-528l-54 -430h545l-24 -197h-754l168 1366h753zM764 1663l-223 -168l-127 115l370 274l306 -274l-144 -115z" />
    <glyph glyph-name="Edieresis" unicode="&#xcb;" 
d="M1085 1366l-24 -197h-545l-41 -346h529l-25 -196h-528l-54 -430h545l-24 -197h-754l168 1366h753zM825 1614q0 57 43 100q41 41 103 41q49 0 78 -31q32 -32 32 -84q0 -60 -43 -100q-42 -39 -100 -39q-49 0 -80 31q-33 29 -33 82zM426 1614q0 57 43 100q41 41 102 41
q49 0 78 -31q33 -33 33 -84q0 -60 -43 -100q-42 -39 -100 -39q-49 0 -80 31q-33 29 -33 82z" />
    <glyph glyph-name="Igrave" unicode="&#xcc;" horiz-adv-x="536" 
d="M332 1366h209l-168 -1366h-209zM444 1460l-245 330l211 72l157 -346z" />
    <glyph glyph-name="Iacute" unicode="&#xcd;" horiz-adv-x="536" 
d="M332 1366h209l-168 -1366h-209zM586 1862l190 -72l-323 -330l-111 56z" />
    <glyph glyph-name="Icircumflex" unicode="&#xce;" horiz-adv-x="536" 
d="M332 1366h209l-168 -1366h-209zM473 1663l-182 -158l-109 101l316 268l250 -268l-134 -101z" />
    <glyph glyph-name="Idieresis" unicode="&#xcf;" horiz-adv-x="536" 
d="M332 1366h209l-168 -1366h-209zM502 1616q0 55 39 94q38 33 77 33q42 0 66 -31q25 -31 25 -67q0 -55 -37 -95q-32 -37 -78 -37q-35 0 -64 29q-28 32 -28 74zM229 1614q0 55 39 94q33 35 78 35q38 0 66 -31q24 -30 24 -67q0 -55 -37 -95q-32 -37 -77 -37q-35 0 -64 29
q-29 33 -29 72z" />
    <glyph glyph-name="Eth" unicode="&#xd0;" horiz-adv-x="1323" 
d="M266 840l66 526h286q68 0 126.5 -5.5t131.5 -22t141.5 -52.5t125.5 -90q98 -93 132 -204t34 -242q0 -157 -42 -290.5t-151 -242.5q-57 -57 -128 -98t-137.5 -63.5t-148 -35.5t-144 -16.5t-140.5 -3.5h-51h-203l82 664h-164l20 176h164zM516 1169l-41 -329h287l-21 -176
h-286l-58 -467h90q52 0 91.5 2t101 11.5t110 27t102 52t93.5 81.5q115 134 115 350q0 212 -113 328q-40 41 -91.5 67t-108 36.5t-95 13.5t-86.5 3h-90z" />
    <glyph glyph-name="Ntilde" unicode="&#xd1;" horiz-adv-x="1527" 
d="M373 0h-209l178 1458l864 -1038l117 946h209l-178 -1450l-865 1038zM1225 1767l106 -94q-47 -76 -98 -119q-63 -53 -156 -53q-25 0 -49 5.5t-35.5 10t-40.5 17.5l-43 20q-68 33 -100 33q-38 0 -70 -28q-26 -21 -45 -58l-110 84q55 74 100 111q67 55 152 55q62 0 122 -31
l39 -20q73 -39 103 -39q43 0 78 39q22 26 47 67z" />
    <glyph glyph-name="Ograve" unicode="&#xd2;" horiz-adv-x="1630" 
d="M979 1391q282 0 461 -179q176 -174 176 -462q0 -347 -215 -566q-64 -65 -137.5 -109t-149 -65t-139.5 -29t-137 -8q-148 0 -263.5 40t-209.5 137q-85 86 -134 206t-49 258q0 161 60 310.5t164 251.5q102 102 251 158.5t322 56.5zM840 166q254 0 401 147q78 76 122 189.5
t44 234.5q0 195 -123 322q-61 63 -149.5 101t-196.5 38q-225 0 -379 -151q-76 -75 -123 -181.5t-47 -236.5q0 -200 127 -332q123 -131 324 -131zM1075 1489l-330 244l191 122l248 -284z" />
    <glyph glyph-name="Oacute" unicode="&#xd3;" horiz-adv-x="1630" 
d="M979 1391q282 0 461 -179q176 -174 176 -462q0 -347 -215 -566q-64 -65 -137.5 -109t-149 -65t-139.5 -29t-137 -8q-148 0 -263.5 40t-209.5 137q-85 86 -134 206t-49 258q0 161 60 310.5t164 251.5q102 102 251 158.5t322 56.5zM840 166q254 0 401 147q78 76 122 189.5
t44 234.5q0 195 -123 322q-61 63 -149.5 101t-196.5 38q-225 0 -379 -151q-76 -75 -123 -181.5t-47 -236.5q0 -200 127 -332q123 -131 324 -131zM907 1489l-88 82l318 284l161 -122z" />
    <glyph glyph-name="Ocircumflex" unicode="&#xd4;" horiz-adv-x="1630" 
d="M979 1391q282 0 461 -179q176 -174 176 -462q0 -347 -215 -566q-64 -65 -137.5 -109t-149 -65t-139.5 -29t-137 -8q-148 0 -263.5 40t-209.5 137q-85 86 -134 206t-49 258q0 161 60 310.5t164 251.5q102 102 251 158.5t322 56.5zM840 166q254 0 401 147q78 76 122 189.5
t44 234.5q0 195 -123 322q-61 63 -149.5 101t-196.5 38q-225 0 -379 -151q-76 -75 -123 -181.5t-47 -236.5q0 -200 127 -332q123 -131 324 -131zM1020 1663l-223 -168l-127 115l370 274l306 -274l-144 -115z" />
    <glyph glyph-name="Otilde" unicode="&#xd5;" horiz-adv-x="1630" 
d="M979 1391q282 0 461 -179q176 -174 176 -462q0 -347 -215 -566q-64 -65 -137.5 -109t-149 -65t-139.5 -29t-137 -8q-148 0 -263.5 40t-209.5 137q-85 86 -134 206t-49 258q0 161 60 310.5t164 251.5q102 102 251 158.5t322 56.5zM840 166q254 0 401 147q78 76 122 189.5
t44 234.5q0 195 -123 322q-61 63 -149.5 101t-196.5 38q-225 0 -379 -151q-76 -75 -123 -181.5t-47 -236.5q0 -200 127 -332q123 -131 324 -131zM1276 1767l106 -94q-47 -76 -98 -119q-63 -53 -156 -53q-25 0 -49 5.5t-34.5 10t-40.5 17.5l-43 20q-68 33 -101 33
q-37 0 -69 -28q-27 -22 -46 -58l-110 84q55 74 100 111q67 55 152 55q63 0 123 -31l39 -20q73 -39 102 -39q43 0 78 39q22 26 47 67z" />
    <glyph glyph-name="Odieresis" unicode="&#xd6;" horiz-adv-x="1630" 
d="M979 1391q282 0 461 -179q176 -174 176 -462q0 -347 -215 -566q-64 -65 -137.5 -109t-149 -65t-139.5 -29t-137 -8q-148 0 -263.5 40t-209.5 137q-85 86 -134 206t-49 258q0 161 60 310.5t164 251.5q102 102 251 158.5t322 56.5zM840 166q254 0 401 147q78 76 122 189.5
t44 234.5q0 195 -123 322q-61 63 -149.5 101t-196.5 38q-225 0 -379 -151q-76 -75 -123 -181.5t-47 -236.5q0 -200 127 -332q123 -131 324 -131zM1071 1614q0 57 43 100q41 41 103 41q48 0 77 -31q33 -33 33 -84q0 -60 -43 -100q-42 -39 -100 -39q-49 0 -80 31
q-33 29 -33 82zM672 1614q0 57 43 100q41 41 102 41q49 0 78 -31q33 -33 33 -84q0 -60 -43 -100q-42 -39 -101 -39q-48 0 -79 31q-33 29 -33 82z" />
    <glyph glyph-name="multiply" unicode="&#xd7;" 
d="M176 395l291 293l-291 293l129 129l293 -291l293 291l129 -129l-291 -293l291 -293l-129 -129l-293 291l-293 -291z" />
    <glyph glyph-name="Oslash" unicode="&#xd8;" horiz-adv-x="1630" 
d="M53 55l219 195q-104 168 -104 364q0 162 59.5 311t163.5 251q95 94 238.5 154.5t324.5 60.5q140 0 244 -39t193 -109l223 199l102 -117l-221 -197q57 -89 82 -178.5t25 -197.5q0 -348 -216 -568q-64 -65 -137.5 -109t-149 -65t-139.5 -29t-137 -8q-148 0 -252.5 35.5
t-199.5 122.5l-215 -192zM1329 981l-801 -711q129 -104 306 -104q246 0 393 147q78 77 122 191t44 241q0 130 -64 236zM434 393l793 705q-136 100 -303 100q-225 0 -379 -151q-84 -83 -127 -190t-43 -222q0 -131 59 -242z" />
    <glyph glyph-name="Ugrave" unicode="&#xd9;" horiz-adv-x="1343" 
d="M336 1366h209l-94 -768q-1 -12 -5.5 -42.5t-7 -59t-2.5 -54.5q0 -130 72 -202q74 -74 192 -74q136 0 228 88q31 31 51.5 64.5t32 75.5t16 70t10.5 79l101 823h209l-109 -879q-17 -140 -70.5 -240t-121.5 -157q-143 -117 -363 -117q-245 0 -371 160q-90 111 -90 281
q0 44 23 227zM885 1489l-330 244l190 122l248 -284z" />
    <glyph glyph-name="Uacute" unicode="&#xda;" horiz-adv-x="1343" 
d="M336 1366h209l-94 -768q-1 -12 -5.5 -42.5t-7 -59t-2.5 -54.5q0 -130 72 -202q74 -74 192 -74q136 0 228 88q31 31 51.5 64.5t32 75.5t16 70t10.5 79l101 823h209l-109 -879q-17 -140 -70.5 -240t-121.5 -157q-143 -117 -363 -117q-245 0 -371 160q-90 111 -90 281
q0 44 23 227zM819 1489l-88 82l318 284l161 -122z" />
    <glyph glyph-name="Ucircumflex" unicode="&#xdb;" horiz-adv-x="1343" 
d="M336 1366h209l-94 -768q-1 -12 -5.5 -42.5t-7 -59t-2.5 -54.5q0 -130 72 -202q74 -74 192 -74q136 0 228 88q31 31 51.5 64.5t32 75.5t16 70t10.5 79l101 823h209l-109 -879q-17 -140 -70.5 -240t-121.5 -157q-143 -117 -363 -117q-245 0 -371 160q-90 111 -90 281
q0 44 23 227zM881 1663l-224 -168l-127 115l371 274l305 -274l-143 -115z" />
    <glyph glyph-name="Udieresis" unicode="&#xdc;" horiz-adv-x="1343" 
d="M336 1366h209l-94 -768q-1 -12 -5.5 -42.5t-7 -59t-2.5 -54.5q0 -130 72 -202q74 -74 192 -74q136 0 228 88q31 31 51.5 64.5t32 75.5t16 70t10.5 79l101 823h209l-109 -879q-17 -140 -70.5 -240t-121.5 -157q-143 -117 -363 -117q-245 0 -371 160q-90 111 -90 281
q0 44 23 227zM942 1614q0 57 43 100q41 41 102 41q49 0 78 -31q33 -33 33 -84q0 -60 -43 -100q-42 -39 -100 -39q-49 0 -80 31q-33 29 -33 82zM543 1614q0 57 43 100q41 41 102 41q49 0 78 -31q33 -33 33 -84q0 -60 -43 -100q-42 -39 -101 -39q-49 0 -80 31q-32 28 -32 82z
" />
    <glyph glyph-name="Yacute" unicode="&#xdd;" horiz-adv-x="1105" 
d="M449 0l71 590l-352 776h233l248 -547l383 547h242l-545 -776l-72 -590h-208zM702 1489l-88 82l318 284l162 -122z" />
    <glyph glyph-name="Thorn" unicode="&#xde;" horiz-adv-x="987" 
d="M332 1366h209l-25 -205h84q220 0 330 -106q100 -96 100 -267q0 -190 -117 -307q-72 -72 -178 -101.5t-250 -29.5h-69l-43 -350h-209zM492 969l-52 -426h78q171 0 242 63q69 59 69 170q0 94 -63 146q-57 47 -186 47h-88z" />
    <glyph glyph-name="germandbls" unicode="&#xdf;" horiz-adv-x="1144" 
d="M342 0h-201l84 684h-143l22 178h144l26 217q26 209 132 318q116 121 315 121q173 0 274 -99q99 -95 99 -250q0 -102 -52 -190q-51 -78 -129 -117q84 -45 131 -100q76 -90 76 -236q0 -225 -145 -376q-172 -179 -463 -179l25 193q77 0 152 27.5t126 74.5q49 45 74.5 108
t25.5 126q0 110 -69 176q-80 74 -238 74l23 182h26q123 0 185 69q26 29 40.5 71.5t14.5 84.5q0 80 -53 133q-49 47 -135 47q-92 0 -152 -57q-68 -66 -82 -190z" />
    <glyph glyph-name="agrave" unicode="&#xe0;" horiz-adv-x="1089" 
d="M856 762l12 100h201l-106 -862h-201l10 90q-58 -62 -115 -86q-74 -31 -157 -31q-146 0 -246 95q-53 52 -86 134t-33 177q0 104 38 207.5t112 177.5q121 121 315 121q91 0 158 -37q55 -28 98 -86zM610 705q-100 0 -172 -68q-42 -41 -69 -106.5t-27 -135.5q0 -109 68 -180
q58 -61 145 -61q113 0 188 75q42 43 65 107t23 129q0 115 -67 182q-58 58 -154 58zM668 993l-285 295l197 94l206 -319z" />
    <glyph glyph-name="aacute" unicode="&#xe1;" horiz-adv-x="1089" 
d="M856 762l12 100h201l-106 -862h-201l10 90q-58 -62 -115 -86q-74 -31 -157 -31q-146 0 -246 95q-53 52 -86 134t-33 177q0 104 38 207.5t112 177.5q121 121 315 121q91 0 158 -37q55 -28 98 -86zM610 705q-100 0 -172 -68q-42 -41 -69 -106.5t-27 -135.5q0 -109 68 -180
q58 -61 145 -61q113 0 188 75q42 43 65 107t23 129q0 115 -67 182q-58 58 -154 58zM795 1382l172 -94l-355 -295l-102 70z" />
    <glyph glyph-name="acircumflex" unicode="&#xe2;" horiz-adv-x="1089" 
d="M856 762l12 100h201l-106 -862h-201l10 90q-58 -62 -115 -86q-74 -31 -157 -31q-146 0 -246 95q-53 52 -86 134t-33 177q0 104 38 207.5t112 177.5q121 121 315 121q91 0 158 -37q55 -28 98 -86zM610 705q-100 0 -172 -68q-42 -41 -69 -106.5t-27 -135.5q0 -109 68 -180
q58 -61 145 -61q113 0 188 75q42 43 65 107t23 129q0 115 -67 182q-58 58 -154 58zM659 1169l-200 -176l-127 107l350 282l281 -282l-144 -107z" />
    <glyph glyph-name="atilde" unicode="&#xe3;" horiz-adv-x="1089" 
d="M856 762l12 100h201l-106 -862h-201l10 90q-58 -62 -115 -86q-74 -31 -157 -31q-146 0 -246 95q-53 52 -86 134t-33 177q0 104 38 207.5t112 177.5q121 121 315 121q91 0 158 -37q55 -28 98 -86zM610 705q-100 0 -172 -68q-42 -41 -69 -106.5t-27 -135.5q0 -109 68 -180
q58 -61 145 -61q113 0 188 75q42 43 65 107t23 129q0 115 -67 182q-58 58 -154 58zM918 1274l108 -94q-35 -65 -92 -113q-74 -63 -164 -63q-61 0 -123 36l-41 25q-67 37 -102 37q-42 0 -74 -35q-19 -19 -43 -59l-111 84q53 72 101 110q71 55 153 55q70 0 138 -40l30 -21
q55 -37 97 -37q45 0 79 43q31 40 44 72z" />
    <glyph glyph-name="adieresis" unicode="&#xe4;" horiz-adv-x="1089" 
d="M856 762l12 100h201l-106 -862h-201l10 90q-58 -62 -115 -86q-74 -31 -157 -31q-146 0 -246 95q-53 52 -86 134t-33 177q0 104 38 207.5t112 177.5q121 121 315 121q91 0 158 -37q55 -28 98 -86zM610 705q-100 0 -172 -68q-42 -41 -69 -106.5t-27 -135.5q0 -109 68 -180
q58 -61 145 -61q113 0 188 75q42 43 65 107t23 129q0 115 -67 182q-58 58 -154 58zM338 1165q6 53 47.5 90t93.5 37q53 0 86 -37.5t27 -89.5q-8 -53 -49.5 -90t-93.5 -37q-53 0 -85.5 37.5t-25.5 89.5zM707 1165q6 53 47.5 90t93.5 37q53 0 86 -37.5t27 -89.5
q-8 -53 -50 -90t-94 -37q-53 0 -85 37.5t-25 89.5z" />
    <glyph glyph-name="aring" unicode="&#xe5;" horiz-adv-x="1089" 
d="M856 762l12 100h201l-106 -862h-201l10 90q-58 -62 -115 -86q-74 -31 -157 -31q-146 0 -246 95q-53 52 -86 134t-33 177q0 104 38 207.5t112 177.5q121 121 315 121q91 0 158 -37q55 -28 98 -86zM610 705q-100 0 -172 -68q-42 -41 -69 -106.5t-27 -135.5q0 -109 68 -180
q58 -61 145 -61q113 0 188 75q42 43 65 107t23 129q0 115 -67 182q-58 58 -154 58zM463 1174q0 86 53 143q58 61 154 61q80 0 131 -47q51 -49 51 -127q0 -94 -59 -153q-58 -58 -144 -58q-83 0 -137 54q-49 53 -49 127zM567 1178q0 -35 23 -58q22 -22 59 -22q44 0 68 24
q28 25 28 74q0 37 -26 59q-22 19 -57 19q-41 0 -70 -29q-25 -28 -25 -67z" />
    <glyph glyph-name="ae" unicode="&#xe6;" horiz-adv-x="1560" 
d="M287 672l22 186q132 27 244 27q115 0 186 -31q68 -31 109 -88q55 51 117 78q93 41 194 41q161 0 260 -101q107 -113 107 -301q0 -51 -10 -100h-617q0 -47 17 -95t47 -79q51 -55 141 -55q76 0 137 39q57 38 90 98l158 -94q-60 -101 -160 -162q-102 -62 -242 -62
q-108 0 -190 39q-68 30 -121 101q-57 -72 -135 -105q-77 -35 -199 -35q-138 0 -225 66q-44 33 -73 87.5t-29 127.5q0 122 88 207q98 94 276 94q148 0 232 -57q4 18 4 49q0 82 -56 123q-47 35 -143 35q-110 0 -229 -33zM500 383q-99 0 -154 -47q-37 -32 -37 -80q0 -46 49 -80
q46 -31 117 -31q86 0 137 33q58 37 58 96q0 48 -45 78q-45 31 -125 31zM930 547h401q-11 75 -51 119q-44 47 -125 47q-82 0 -145 -51q-52 -43 -80 -115z" />
    <glyph glyph-name="ccedilla" unicode="&#xe7;" horiz-adv-x="864" 
d="M899 811l-27 -217q-51 51 -102 78q-62 33 -127 33q-136 0 -219 -87q-82 -85 -82 -212q0 -59 20.5 -108.5t53.5 -80.5q66 -63 178 -63q76 0 139 30q64 36 98 74l-26 -225q-91 -60 -256 -60q-182 0 -293 111q-121 117 -121 313q0 211 144 355q136 133 352 133
q154 0 268 -74zM494 -109l161 -65l-243 -275l-123 66z" />
    <glyph glyph-name="egrave" unicode="&#xe8;" horiz-adv-x="1001" 
d="M772 291l158 -94q-60 -101 -160 -162q-105 -62 -242 -62q-170 0 -276 109q-117 117 -117 307q0 222 150 369q130 127 315 127q164 0 260 -101q50 -52 78.5 -130.5t28.5 -170.5q0 -46 -11 -100h-616q0 -47 16.5 -95t46.5 -79q51 -55 142 -55q76 0 137 39q57 38 90 98z
M371 547h401q-11 75 -51 119q-44 47 -125 47q-82 0 -145 -51q-52 -43 -80 -115zM678 993l-285 295l197 94l207 -319z" />
    <glyph glyph-name="eacute" unicode="&#xe9;" horiz-adv-x="1001" 
d="M772 291l158 -94q-60 -101 -160 -162q-105 -62 -242 -62q-170 0 -276 109q-117 117 -117 307q0 222 150 369q130 127 315 127q164 0 260 -101q50 -52 78.5 -130.5t28.5 -170.5q0 -46 -11 -100h-616q0 -47 16.5 -95t46.5 -79q51 -55 142 -55q76 0 137 39q57 38 90 98z
M371 547h401q-11 75 -51 119q-44 47 -125 47q-82 0 -145 -51q-52 -43 -80 -115zM795 1382l172 -94l-355 -295l-102 70z" />
    <glyph glyph-name="ecircumflex" unicode="&#xea;" horiz-adv-x="1001" 
d="M772 291l158 -94q-60 -101 -160 -162q-105 -62 -242 -62q-170 0 -276 109q-117 117 -117 307q0 222 150 369q130 127 315 127q164 0 260 -101q50 -52 78.5 -130.5t28.5 -170.5q0 -46 -11 -100h-616q0 -47 16.5 -95t46.5 -79q51 -55 142 -55q76 0 137 39q57 38 90 98z
M371 547h401q-11 75 -51 119q-44 47 -125 47q-82 0 -145 -51q-52 -43 -80 -115zM631 1169l-201 -176l-127 107l350 282l281 -282l-143 -107z" />
    <glyph glyph-name="edieresis" unicode="&#xeb;" horiz-adv-x="1001" 
d="M772 291l158 -94q-60 -101 -160 -162q-105 -62 -242 -62q-170 0 -276 109q-117 117 -117 307q0 222 150 369q130 127 315 127q164 0 260 -101q50 -52 78.5 -130.5t28.5 -170.5q0 -46 -11 -100h-616q0 -47 16.5 -95t46.5 -79q51 -55 142 -55q76 0 137 39q57 38 90 98z
M371 547h401q-11 75 -51 119q-44 47 -125 47q-82 0 -145 -51q-52 -43 -80 -115zM309 1165q6 52 47.5 89.5t94.5 37.5q52 0 85 -37t27 -90q-8 -53 -49.5 -90t-93.5 -37q-53 0 -85.5 37.5t-25.5 89.5zM678 1165q6 53 47.5 90t93.5 37q53 0 86 -37.5t27 -89.5q-8 -53 -50 -90
t-94 -37q-53 0 -85 37.5t-25 89.5z" />
    <glyph glyph-name="igrave" unicode="&#xec;" horiz-adv-x="456" 
d="M236 862h200l-106 -862h-201zM346 973l-190 364l213 47l106 -374z" />
    <glyph glyph-name="iacute" unicode="&#xed;" horiz-adv-x="456" 
d="M236 862h200l-106 -862h-201zM430 1384l201 -47l-281 -364l-117 37z" />
    <glyph glyph-name="icircumflex" unicode="&#xee;" horiz-adv-x="456" 
d="M236 862h200l-106 -862h-201zM373 1163l-162 -149l-100 94l286 256l221 -256l-120 -94z" />
    <glyph glyph-name="idieresis" unicode="&#xef;" horiz-adv-x="456" 
d="M236 862h200l-106 -862h-201zM61 1165q6 52 47.5 89.5t94.5 37.5q52 0 85 -37t27 -90q-8 -53 -49.5 -90t-93.5 -37q-53 0 -85.5 37.5t-25.5 89.5zM430 1165q6 53 47.5 90t93.5 37q53 0 86 -37.5t27 -89.5q-8 -53 -49.5 -90t-93.5 -37q-53 0 -85.5 37.5t-25.5 89.5z" />
    <glyph glyph-name="eth" unicode="&#xf0;" horiz-adv-x="1079" 
d="M319 1214l82 158q227 -13 400 -135l272 86l35 -119l-211 -65q84 -76 131 -193t47 -297q0 -176 -37 -315.5t-139 -237.5q-73 -70 -152.5 -96.5t-179.5 -26.5q-103 0 -179.5 24.5t-141.5 90.5q-113 116 -113 297q0 110 37 203t98 157q49 54 134.5 97t205.5 43
q168 0 260 -97q-2 23 -8.5 48.5t-23 69t-53 88t-87.5 79.5l-379 -121l-34 121l288 92q-119 52 -252 49zM559 154q130 0 209 86q82 89 82 223q0 125 -78 190q-64 52 -158 52q-117 0 -194 -80q-39 -42 -60.5 -104.5t-21.5 -127.5q0 -121 65 -182q57 -57 156 -57z" />
    <glyph glyph-name="ntilde" unicode="&#xf1;" horiz-adv-x="993" 
d="M125 0l106 862h201l-10 -78q36 44 86 68q67 33 147 33q131 0 205 -74q78 -78 78 -205q0 -37 -18 -182l-54 -424h-200l55 444q10 76 10 115q0 74 -39 111q-38 35 -102 35q-81 0 -129 -48q-63 -60 -84 -241l-51 -416h-201zM903 1274l109 -94q-35 -65 -92 -113
q-74 -63 -164 -63q-61 0 -123 36l-41 25q-67 37 -103 37q-41 0 -73 -35q-19 -19 -43 -59l-111 84q54 74 100 110q71 55 154 55q70 0 137 -40l31 -21q56 -37 96 -37q46 0 80 43q29 37 43 72z" />
    <glyph glyph-name="ograve" unicode="&#xf2;" horiz-adv-x="1093" 
d="M641 885q192 0 307 -115q117 -121 117 -299q0 -220 -150 -365q-75 -72 -160 -102.5t-194 -30.5q-93 0 -167 25t-140 92q-119 125 -119 301q0 109 40 201.5t110 159.5q139 133 356 133zM588 154q114 0 190 82q82 89 82 223q0 111 -67 180q-63 66 -164 66q-119 0 -195 -72
q-94 -88 -94 -225q0 -107 63 -179q14 -16 33.5 -30.5t61.5 -29.5t90 -15zM678 993l-285 295l197 94l207 -319z" />
    <glyph glyph-name="oacute" unicode="&#xf3;" horiz-adv-x="1093" 
d="M641 885q192 0 307 -115q117 -121 117 -299q0 -220 -150 -365q-75 -72 -160 -102.5t-194 -30.5q-93 0 -167 25t-140 92q-119 125 -119 301q0 109 40 201.5t110 159.5q139 133 356 133zM588 154q114 0 190 82q82 89 82 223q0 111 -67 180q-63 66 -164 66q-119 0 -195 -72
q-94 -88 -94 -225q0 -107 63 -179q14 -16 33.5 -30.5t61.5 -29.5t90 -15zM825 1382l172 -94l-354 -295l-102 70z" />
    <glyph glyph-name="ocircumflex" unicode="&#xf4;" horiz-adv-x="1093" 
d="M641 885q192 0 307 -115q117 -121 117 -299q0 -220 -150 -365q-75 -72 -160 -102.5t-194 -30.5q-93 0 -167 25t-140 92q-119 125 -119 301q0 109 40 201.5t110 159.5q139 133 356 133zM588 154q114 0 190 82q82 89 82 223q0 111 -67 180q-63 66 -164 66q-119 0 -195 -72
q-94 -88 -94 -225q0 -107 63 -179q14 -16 33.5 -30.5t61.5 -29.5t90 -15zM670 1169l-201 -176l-127 107l350 282l281 -282l-144 -107z" />
    <glyph glyph-name="otilde" unicode="&#xf5;" horiz-adv-x="1093" 
d="M641 885q192 0 307 -115q117 -121 117 -299q0 -220 -150 -365q-75 -72 -160 -102.5t-194 -30.5q-93 0 -167 25t-140 92q-119 125 -119 301q0 109 40 201.5t110 159.5q139 133 356 133zM588 154q114 0 190 82q82 89 82 223q0 111 -67 180q-63 66 -164 66q-119 0 -195 -72
q-94 -88 -94 -225q0 -107 63 -179q14 -16 33.5 -30.5t61.5 -29.5t90 -15zM928 1274l108 -94q-35 -65 -92 -113q-74 -63 -164 -63q-61 0 -123 36l-41 25q-67 37 -102 37q-42 0 -74 -35q-19 -19 -43 -59l-110 84q54 74 100 110q71 55 154 55q69 0 137 -40l31 -21
q55 -37 96 -37q46 0 80 43q29 37 43 72z" />
    <glyph glyph-name="odieresis" unicode="&#xf6;" horiz-adv-x="1093" 
d="M641 885q192 0 307 -115q117 -121 117 -299q0 -220 -150 -365q-75 -72 -160 -102.5t-194 -30.5q-93 0 -167 25t-140 92q-119 125 -119 301q0 109 40 201.5t110 159.5q139 133 356 133zM588 154q114 0 190 82q82 89 82 223q0 111 -67 180q-63 66 -164 66q-119 0 -195 -72
q-94 -88 -94 -225q0 -107 63 -179q14 -16 33.5 -30.5t61.5 -29.5t90 -15zM348 1165q6 53 47.5 90t93.5 37q53 0 86 -37.5t27 -89.5q-8 -53 -49.5 -90t-93.5 -37q-53 0 -85.5 37.5t-25.5 89.5zM717 1165q6 53 47.5 90t93.5 37q53 0 86 -37.5t27 -89.5q-8 -53 -50 -90t-94 -37
q-53 0 -85 37.5t-25 89.5z" />
    <glyph glyph-name="divide" unicode="&#xf7;" 
d="M475 1051q0 51 36 87t87 36t87 -36t36 -87t-36 -87t-87 -36t-87 36t-36 87zM475 326q0 51 36 87t87 36t87 -36t36 -87t-36 -87t-87 -36t-87 36t-36 87zM154 596v184h888v-184h-888z" />
    <glyph glyph-name="oslash" unicode="&#xf8;" horiz-adv-x="1093" 
d="M31 14l166 150q-66 107 -66 227q0 97 37.5 193t112.5 168q139 133 354 133q164 0 280 -88l168 147l78 -94l-164 -148q64 -107 64 -231q0 -220 -150 -365q-74 -72 -160 -102.5t-198 -30.5q-87 0 -149.5 20.5t-122.5 67.5l-160 -141zM838 561l-406 -362q64 -45 148 -45
q118 0 194 82q82 85 82 219q0 59 -18 106zM356 301l406 361q-53 43 -133 43q-121 0 -199 -72q-94 -88 -94 -225q0 -55 20 -107z" />
    <glyph glyph-name="ugrave" unicode="&#xf9;" horiz-adv-x="993" 
d="M236 862h200l-55 -448q-10 -75 -10 -101q0 -77 41 -118t112 -41q34 0 68.5 12.5t56.5 32.5q21 20 34.5 52.5t17.5 54.5t10 63l61 493h201l-62 -500q-7 -60 -14.5 -99.5t-33.5 -98t-68 -98.5q-97 -93 -273 -93q-182 0 -274 95q-80 83 -80 208q0 29 10 117zM616 993
l-284 295l196 94l207 -319z" />
    <glyph glyph-name="uacute" unicode="&#xfa;" horiz-adv-x="993" 
d="M236 862h200l-55 -448q-10 -75 -10 -101q0 -77 41 -118t112 -41q34 0 68.5 12.5t56.5 32.5q21 20 34.5 52.5t17.5 54.5t10 63l61 493h201l-62 -500q-7 -60 -14.5 -99.5t-33.5 -98t-68 -98.5q-97 -93 -273 -93q-182 0 -274 95q-80 83 -80 208q0 29 10 117zM795 1382
l172 -94l-355 -295l-102 70z" />
    <glyph glyph-name="ucircumflex" unicode="&#xfb;" horiz-adv-x="993" 
d="M236 862h200l-55 -448q-10 -75 -10 -101q0 -77 41 -118t112 -41q34 0 68.5 12.5t56.5 32.5q21 20 34.5 52.5t17.5 54.5t10 63l61 493h201l-62 -500q-7 -60 -14.5 -99.5t-33.5 -98t-68 -98.5q-97 -93 -273 -93q-182 0 -274 95q-80 83 -80 208q0 29 10 117zM643 1169
l-201 -176l-127 107l351 282l280 -282l-143 -107z" />
    <glyph glyph-name="udieresis" unicode="&#xfc;" horiz-adv-x="993" 
d="M236 862h200l-55 -448q-10 -75 -10 -101q0 -77 41 -118t112 -41q34 0 68.5 12.5t56.5 32.5q21 20 34.5 52.5t17.5 54.5t10 63l61 493h201l-62 -500q-7 -60 -14.5 -99.5t-33.5 -98t-68 -98.5q-97 -93 -273 -93q-182 0 -274 95q-80 83 -80 208q0 29 10 117zM322 1165
q6 53 47.5 90t93.5 37t85 -37t27 -90q-8 -53 -49.5 -90t-93.5 -37q-53 0 -85 37.5t-25 89.5zM690 1165q6 53 47.5 90t93.5 37q53 0 86 -37.5t27 -89.5q-8 -53 -49.5 -90t-93.5 -37q-53 0 -85.5 37.5t-25.5 89.5z" />
    <glyph glyph-name="yacute" unicode="&#xfd;" horiz-adv-x="987" 
d="M6 -469l410 629l-297 702h237l195 -485l301 485h229l-850 -1331h-225zM817 1382l172 -94l-354 -295l-103 70z" />
    <glyph glyph-name="thorn" unicode="&#xfe;" horiz-adv-x="1089" 
d="M340 100l-70 -569h-200l243 1962h201l-92 -725q41 55 102 82q71 35 154 35q80 0 153 -30t121 -81q109 -114 109 -293q0 -109 -40.5 -212t-105.5 -173q-119 -125 -286 -125q-117 0 -195 47q-50 31 -94 82zM631 705q-105 0 -172 -64q-44 -42 -69 -109.5t-25 -140.5
q0 -111 57 -170q64 -67 164 -67q101 0 170 69q43 43 70.5 108.5t27.5 133.5q0 106 -61 174q-60 66 -162 66z" />
    <glyph glyph-name="ydieresis" unicode="&#xff;" horiz-adv-x="987" 
d="M6 -469l410 629l-297 702h237l195 -485l301 485h229l-850 -1331h-225zM319 1165q6 52 47.5 89.5t94.5 37.5q52 0 85 -37t27 -90q-8 -53 -49.5 -90t-93.5 -37q-53 0 -85.5 37.5t-25.5 89.5zM688 1165q6 53 47.5 90t93.5 37q53 0 86 -37.5t27 -89.5q-8 -53 -49.5 -90
t-93.5 -37q-53 0 -85.5 37.5t-25.5 89.5z" />
    <glyph glyph-name="Amacron" unicode="&#x100;" horiz-adv-x="1343" 
d="M1114 0l-102 330h-584l-190 -330h-230l858 1446l469 -1446h-221zM539 526h413l-147 463zM492 1501l20 164h737l-20 -164h-737z" />
    <glyph glyph-name="amacron" unicode="&#x101;" horiz-adv-x="1089" 
d="M856 762l12 100h201l-106 -862h-201l10 90q-58 -62 -115 -86q-74 -31 -157 -31q-146 0 -246 95q-53 52 -86 134t-33 177q0 104 38 207.5t112 177.5q121 121 315 121q91 0 158 -37q55 -28 98 -86zM610 705q-100 0 -172 -68q-42 -41 -69 -106.5t-27 -135.5q0 -109 68 -180
q58 -61 145 -61q113 0 188 75q42 43 65 107t23 129q0 115 -67 182q-58 58 -154 58zM301 1040l21 160h675l-20 -160h-676z" />
    <glyph glyph-name="Abreve" unicode="&#x102;" horiz-adv-x="1343" 
d="M1114 0l-102 330h-584l-190 -330h-230l858 1446l469 -1446h-221zM539 526h413l-147 463zM1075 1790h168q-14 -58 -53 -128.5t-107 -113.5q-85 -53 -213 -53q-121 0 -196 57q-53 39 -86 102.5t-41 135.5h168q12 -67 57 -100q40 -31 107 -31q80 0 127 33q48 34 69 98z" />
    <glyph glyph-name="abreve" unicode="&#x103;" horiz-adv-x="1089" 
d="M856 762l12 100h201l-106 -862h-201l10 90q-58 -62 -115 -86q-74 -31 -157 -31q-146 0 -246 95q-53 52 -86 134t-33 177q0 104 38 207.5t112 177.5q121 121 315 121q91 0 158 -37q55 -28 98 -86zM610 705q-100 0 -172 -68q-42 -41 -69 -106.5t-27 -135.5q0 -109 68 -180
q58 -61 145 -61q113 0 188 75q42 43 65 107t23 129q0 115 -67 182q-58 58 -154 58zM836 1307h165q-36 -154 -139 -224q-75 -53 -198 -53q-132 0 -209 55q-50 36 -80.5 94.5t-36.5 127.5h158q11 -63 55 -101q38 -32 106 -32q71 0 111 32q50 38 68 101z" />
    <glyph glyph-name="Aogonek" unicode="&#x104;" horiz-adv-x="1343" 
d="M8 0l858 1446l469 -1446h-61q-77 -52 -113 -88q-47 -47 -47 -94q0 -25 16 -39q20 -15 58 -15q55 0 110 19l-36 -148q-71 -30 -144 -30q-81 0 -131 45q-47 44 -47 112q0 84 70 154q46 46 104 84l-102 330h-584l-190 -330h-230zM539 526h413l-147 463z" />
    <glyph glyph-name="aogonek" unicode="&#x105;" horiz-adv-x="1089" 
d="M856 766l12 96h201l-106 -862h-52q-73 -57 -106 -92q-47 -52 -47 -90q0 -28 22 -41q20 -13 58 -13q40 0 104 19l-35 -131q-67 -39 -139 -39q-75 0 -125 41q-51 43 -51 110q0 80 72 152q43 46 98 84l10 90q-58 -62 -115 -86q-74 -31 -157 -31q-146 0 -246 95
q-58 56 -88.5 141t-30.5 174q0 105 38 207t112 174q121 121 315 121q90 0 158 -37q49 -25 98 -82zM610 705q-100 0 -172 -68q-42 -41 -69 -106.5t-27 -135.5q0 -109 68 -180q58 -61 145 -61q113 0 188 75q42 43 65 107t23 129q0 115 -67 182q-58 58 -154 58z" />
    <glyph glyph-name="Cacute" unicode="&#x106;" horiz-adv-x="1273" 
d="M1337 1292l-28 -245q-151 151 -375 151q-226 0 -371 -139q-78 -74 -125 -191.5t-47 -251.5q0 -195 119 -321q120 -129 321 -129q202 0 388 158l-29 -248q-113 -61 -201.5 -82t-175.5 -21q-135 0 -244 37.5t-204 132.5q-183 183 -183 473q0 343 226 566q216 209 540 209
q190 0 389 -99zM928 1489l-88 82l317 284l162 -122z" />
    <glyph glyph-name="cacute" unicode="&#x107;" horiz-adv-x="864" 
d="M899 811l-27 -217q-51 51 -102 78q-62 33 -127 33q-136 0 -219 -87q-82 -85 -82 -212q0 -59 20.5 -108.5t53.5 -80.5q66 -63 178 -63q76 0 139 30q64 36 98 74l-26 -225q-91 -60 -256 -60q-182 0 -293 111q-121 117 -121 313q0 211 144 355q136 133 352 133
q154 0 268 -74zM815 1382l172 -94l-354 -295l-103 70z" />
    <glyph glyph-name="Ccircumflex" unicode="&#x108;" horiz-adv-x="1273" 
d="M1337 1292l-28 -245q-151 151 -375 151q-226 0 -371 -139q-78 -74 -125 -191.5t-47 -251.5q0 -195 119 -321q120 -129 321 -129q202 0 388 158l-29 -248q-113 -61 -201.5 -82t-175.5 -21q-135 0 -244 37.5t-204 132.5q-183 183 -183 473q0 343 226 566q216 209 540 209
q190 0 389 -99zM969 1663l-224 -168l-127 115l371 274l305 -274l-143 -115z" />
    <glyph glyph-name="ccircumflex" unicode="&#x109;" horiz-adv-x="864" 
d="M899 811l-27 -217q-51 51 -102 78q-62 33 -127 33q-136 0 -219 -87q-82 -85 -82 -212q0 -59 20.5 -108.5t53.5 -80.5q66 -63 178 -63q76 0 139 30q64 36 98 74l-26 -225q-91 -60 -256 -60q-182 0 -293 111q-121 117 -121 313q0 211 144 355q136 133 352 133
q154 0 268 -74zM680 1169l-201 -176l-127 107l350 282l281 -282l-143 -107z" />
    <glyph glyph-name="Cdotaccent" unicode="&#x10a;" horiz-adv-x="1273" 
d="M1337 1292l-28 -245q-151 151 -375 151q-226 0 -371 -139q-78 -74 -125 -191.5t-47 -251.5q0 -195 119 -321q120 -129 321 -129q202 0 388 158l-29 -248q-113 -61 -201.5 -82t-175.5 -21q-135 0 -244 37.5t-204 132.5q-183 183 -183 473q0 343 226 566q216 209 540 209
q190 0 389 -99zM852 1626q0 64 45 109q43 43 104 43q58 0 95 -37q32 -36 32 -84q0 -65 -41 -109q-39 -45 -112 -45q-53 0 -86 33q-37 33 -37 90z" />
    <glyph glyph-name="cdotaccent" unicode="&#x10b;" horiz-adv-x="864" 
d="M899 811l-27 -217q-51 51 -102 78q-62 33 -127 33q-136 0 -219 -87q-82 -85 -82 -212q0 -59 20.5 -108.5t53.5 -80.5q66 -63 178 -63q76 0 139 30q64 36 98 74l-26 -225q-91 -60 -256 -60q-182 0 -293 111q-121 117 -121 313q0 211 144 355q136 133 352 133
q154 0 268 -74zM547 1110q0 66 45 111q39 39 98 39q53 0 86 -31q39 -36 39 -92q0 -60 -45 -105q-39 -39 -100 -39q-52 0 -86 31q-37 33 -37 86z" />
    <glyph glyph-name="Ccaron" unicode="&#x10c;" horiz-adv-x="1273" 
d="M1337 1292l-28 -245q-151 151 -375 151q-226 0 -371 -139q-78 -74 -125 -191.5t-47 -251.5q0 -195 119 -321q120 -129 321 -129q202 0 388 158l-29 -248q-113 -61 -201.5 -82t-175.5 -21q-135 0 -244 37.5t-204 132.5q-183 183 -183 473q0 343 226 566q216 209 540 209
q190 0 389 -99zM985 1716l223 168l125 -115l-370 -274l-306 274l146 115z" />
    <glyph glyph-name="ccaron" unicode="&#x10d;" horiz-adv-x="864" 
d="M899 811l-27 -217q-51 51 -102 78q-62 33 -127 33q-136 0 -219 -87q-82 -85 -82 -212q0 -59 20.5 -108.5t53.5 -80.5q66 -63 178 -63q76 0 139 30q64 36 98 74l-26 -225q-91 -60 -256 -60q-182 0 -293 111q-121 117 -121 313q0 211 144 355q136 133 352 133
q154 0 268 -74zM664 1206l202 176l127 -106l-348 -283l-283 283l144 106z" />
    <glyph glyph-name="Dcaron" unicode="&#x10e;" horiz-adv-x="1323" 
d="M332 1366h286q68 0 126.5 -5.5t131.5 -22t141.5 -52.5t125.5 -90q98 -93 132 -204t34 -242q0 -157 -42 -290.5t-151 -242.5q-57 -57 -128 -98t-137.5 -63.5t-148 -35.5t-144 -16.5t-140.5 -3.5h-45h-209zM516 1169l-119 -972h90q52 0 91.5 2t101 11.5t110 27t102 52
t93.5 81.5q115 134 115 350q0 212 -113 328q-40 41 -91.5 67t-108 36.5t-95 13.5t-86.5 3h-90zM739 1716l224 168l124 -115l-370 -274l-305 274l145 115z" />
    <glyph glyph-name="dcaron" unicode="&#x10f;" horiz-adv-x="1351" 
d="M856 762l90 731h201l-184 -1493h-201l10 90q-51 -59 -110 -86q-61 -31 -148 -31q-157 0 -256 99q-58 58 -90.5 142t-32.5 181q0 106 42 210.5t116 172.5q116 107 295 107q97 0 166 -35q56 -26 102 -88zM606 705q-106 0 -174 -68q-92 -89 -92 -234q0 -117 66 -186
q58 -63 155 -63q111 0 180 69q41 41 64.5 106t23.5 132q0 109 -65 178q-63 66 -158 66zM1145 991l233 422l176 -90l-274 -401z" />
    <glyph glyph-name="Dcroat" unicode="&#x110;" horiz-adv-x="1323" 
d="M266 840l66 526h286q68 0 126.5 -5.5t131.5 -22t141.5 -52.5t125.5 -90q98 -93 132 -204t34 -242q0 -157 -42 -290.5t-151 -242.5q-57 -57 -128 -98t-137.5 -63.5t-148 -35.5t-144 -16.5t-140.5 -3.5h-45h-209l82 664h-164l20 176h164zM516 1169l-41 -329h287l-21 -176
h-286l-58 -467h90q52 0 91.5 2t101 11.5t110 27t102 52t93.5 81.5q115 134 115 350q0 212 -113 328q-40 41 -91.5 67t-108 36.5t-95 13.5t-86.5 3h-90z" />
    <glyph glyph-name="dcroat" unicode="&#x111;" horiz-adv-x="1087" 
d="M854 762l45 368h-450l18 156h451l26 207h201l-27 -207h197l-19 -156h-196l-137 -1130h-201l10 90q-51 -59 -110 -86q-61 -31 -148 -31q-157 0 -256 99q-58 58 -90.5 142t-32.5 181q0 106 42 210.5t116 172.5q113 107 295 107q93 0 166 -35q65 -33 100 -88zM606 705
q-106 0 -174 -68q-92 -89 -92 -234q0 -117 66 -186q58 -63 155 -63q111 0 180 69q41 41 64.5 106t23.5 132q0 109 -65 178q-63 66 -158 66z" />
    <glyph glyph-name="Emacron" unicode="&#x112;" 
d="M1085 1366l-24 -197h-545l-41 -346h529l-25 -196h-528l-54 -430h545l-24 -197h-754l168 1366h753zM348 1501l21 164h737l-21 -164h-737z" />
    <glyph glyph-name="emacron" unicode="&#x113;" horiz-adv-x="1001" 
d="M772 291l158 -94q-60 -101 -160 -162q-105 -62 -242 -62q-170 0 -276 109q-117 117 -117 307q0 222 150 369q130 127 315 127q164 0 260 -101q50 -52 78.5 -130.5t28.5 -170.5q0 -46 -11 -100h-616q0 -47 16.5 -95t46.5 -79q51 -55 142 -55q76 0 137 39q57 38 90 98z
M371 547h401q-11 75 -51 119q-44 47 -125 47q-82 0 -145 -51q-52 -43 -80 -115zM268 1040l21 160h676l-21 -160h-676z" />
    <glyph glyph-name="Edotaccent" unicode="&#x116;" 
d="M1085 1366l-24 -197h-545l-41 -346h529l-25 -196h-528l-54 -430h545l-24 -197h-754l168 1366h753zM596 1626q0 64 45 109q43 43 104 43q58 0 95 -37q32 -36 32 -84q0 -65 -41 -109q-39 -45 -112 -45q-53 0 -86 33q-37 33 -37 90z" />
    <glyph glyph-name="edotaccent" unicode="&#x117;" horiz-adv-x="1001" 
d="M772 291l158 -94q-60 -101 -160 -162q-105 -62 -242 -62q-170 0 -276 109q-117 117 -117 307q0 222 150 369q130 127 315 127q164 0 260 -101q50 -52 78.5 -130.5t28.5 -170.5q0 -46 -11 -100h-616q0 -47 16.5 -95t46.5 -79q51 -55 142 -55q76 0 137 39q57 38 90 98z
M371 547h401q-11 75 -51 119q-44 47 -125 47q-82 0 -145 -51q-52 -43 -80 -115zM504 1110q0 66 45 111q39 39 98 39q53 0 86 -31q39 -36 39 -92q0 -60 -45 -105q-39 -39 -100 -39q-52 0 -86 31q-37 33 -37 86z" />
    <glyph glyph-name="Eogonek" unicode="&#x118;" 
d="M1085 1366l-24 -197h-545l-39 -325h529l-25 -197h-528l-56 -450h545l-24 -197h-82q-77 -52 -113 -88q-47 -47 -47 -94q0 -25 16 -39q20 -15 58 -15q55 0 110 19l-37 -148q-71 -30 -143 -30q-81 0 -131 45q-47 44 -47 112q0 85 69 154q44 44 105 84h-512l168 1366h753z
" />
    <glyph glyph-name="eogonek" unicode="&#x119;" horiz-adv-x="1001" 
d="M788 319l158 -94q-34 -56 -70 -96t-88 -82q-12 -10 -37 -30.5t-40 -33t-37 -33.5t-41 -42q-47 -52 -47 -90q0 -26 22 -41q20 -13 58 -13q40 0 104 19l-35 -131q-67 -39 -139 -39q-75 0 -125 41q-51 41 -51 110q0 66 49 125q39 50 90 86q-85 -9 -166 18t-141 85
q-117 112 -117 305q0 115 42 215t114 168q125 119 315 119q165 0 260 -97q49 -50 75 -125.5t26 -160.5q0 -21 -2 -45t-5.5 -47.5t-3.5 -26.5h-616q-3 -108 63 -174q55 -55 146 -55q86 0 145 47q58 45 94 118zM375 547h397q0 65 -43 108q-50 50 -133 50q-79 0 -143 -50
q-51 -42 -78 -108z" />
    <glyph glyph-name="Ecaron" unicode="&#x11a;" 
d="M1085 1366l-24 -197h-545l-41 -346h529l-25 -196h-528l-54 -430h545l-24 -197h-754l168 1366h753zM760 1716l223 168l125 -115l-371 -274l-305 274l146 115z" />
    <glyph glyph-name="ecaron" unicode="&#x11b;" horiz-adv-x="1001" 
d="M772 291l158 -94q-60 -101 -160 -162q-105 -62 -242 -62q-170 0 -276 109q-117 117 -117 307q0 222 150 369q130 127 315 127q164 0 260 -101q50 -52 78.5 -130.5t28.5 -170.5q0 -46 -11 -100h-616q0 -47 16.5 -95t46.5 -79q51 -55 142 -55q76 0 137 39q57 38 90 98z
M371 547h401q-11 75 -51 119q-44 47 -125 47q-82 0 -145 -51q-52 -43 -80 -115zM641 1206l203 176l127 -106l-348 -283l-283 283l143 106z" />
    <glyph glyph-name="Gcircumflex" unicode="&#x11c;" horiz-adv-x="1538" 
d="M940 518l25 193h563q-4 -61 -16.5 -125t-36.5 -142.5t-68.5 -155.5t-103.5 -136q-181 -179 -488 -179q-134 0 -246 41t-209 142q-178 182 -178 454q0 161 62 310t170 256q218 215 559 215q191 0 332 -84q127 -77 215 -199l-168 -125q-66 89 -150 145q-111 70 -250 70
q-237 0 -391 -154q-84 -83 -126 -191.5t-42 -221.5q0 -99 35.5 -190.5t93.5 -151.5q123 -123 318 -123q184 0 303 108q106 96 137 244h-340zM1018 1663l-223 -168l-127 115l370 274l305 -274l-143 -115z" />
    <glyph glyph-name="gcircumflex" unicode="&#x11d;" horiz-adv-x="1083" 
d="M850 768l12 94h201l-105 -839q-30 -262 -127 -369q-47 -52 -130 -88.5t-201 -36.5q-155 0 -254 82q-64 54 -96 133.5t-35 159.5h194q2 -38 16.5 -79t39.5 -67q49 -49 145 -49q102 0 162 60q62 62 82 217l14 110q-86 -123 -250 -123q-161 0 -272 111q-119 119 -119 307
q0 105 40 203.5t114 171.5q65 64 139.5 91.5t175.5 27.5q163 0 254 -117zM608 705q-117 0 -190 -76q-39 -40 -60.5 -103t-21.5 -125q0 -111 63 -178q65 -69 158 -69q101 0 174 73q92 92 92 240q0 111 -65 176q-62 62 -150 62zM659 1169l-200 -176l-127 107l350 282l281 -282
l-144 -107z" />
    <glyph glyph-name="Gbreve" unicode="&#x11e;" horiz-adv-x="1538" 
d="M940 518l25 193h563q-4 -61 -16.5 -125t-36.5 -142.5t-68.5 -155.5t-103.5 -136q-181 -179 -488 -179q-134 0 -246 41t-209 142q-178 182 -178 454q0 161 62 310t170 256q218 215 559 215q191 0 332 -84q127 -77 215 -199l-168 -125q-66 89 -150 145q-111 70 -250 70
q-237 0 -391 -154q-84 -83 -126 -191.5t-42 -221.5q0 -99 35.5 -190.5t93.5 -151.5q123 -123 318 -123q184 0 303 108q106 96 137 244h-340zM1206 1790h168q-14 -58 -53 -128.5t-107 -113.5q-85 -53 -213 -53q-121 0 -196 57q-53 39 -86 102.5t-41 135.5h168q12 -67 57 -100
q40 -31 107 -31q80 0 127 33q48 34 69 98z" />
    <glyph glyph-name="gbreve" unicode="&#x11f;" horiz-adv-x="1083" 
d="M850 768l12 94h201l-105 -839q-30 -262 -127 -369q-47 -52 -130 -88.5t-201 -36.5q-155 0 -254 82q-64 54 -96 133.5t-35 159.5h194q2 -38 16.5 -79t39.5 -67q49 -49 145 -49q102 0 162 60q62 62 82 217l14 110q-86 -123 -250 -123q-161 0 -272 111q-119 119 -119 307
q0 105 40 203.5t114 171.5q65 64 139.5 91.5t175.5 27.5q163 0 254 -117zM608 705q-117 0 -190 -76q-39 -40 -60.5 -103t-21.5 -125q0 -111 63 -178q65 -69 158 -69q101 0 174 73q92 92 92 240q0 111 -65 176q-62 62 -150 62zM836 1307h165q-36 -154 -139 -224
q-75 -53 -198 -53q-132 0 -209 55q-50 36 -80.5 94.5t-36.5 127.5h158q11 -63 55 -101q38 -32 106 -32q71 0 111 32q50 38 68 101z" />
    <glyph glyph-name="Gdotaccent" unicode="&#x120;" horiz-adv-x="1538" 
d="M940 518l25 193h563q-4 -61 -16.5 -125t-36.5 -142.5t-68.5 -155.5t-103.5 -136q-181 -179 -488 -179q-134 0 -246 41t-209 142q-178 182 -178 454q0 161 62 310t170 256q218 215 559 215q191 0 332 -84q127 -77 215 -199l-168 -125q-66 89 -150 145q-111 70 -250 70
q-237 0 -391 -154q-84 -83 -126 -191.5t-42 -221.5q0 -99 35.5 -190.5t93.5 -151.5q123 -123 318 -123q184 0 303 108q106 96 137 244h-340zM852 1626q0 64 45 109q43 43 104 43q58 0 95 -37q32 -36 32 -84q0 -65 -41 -109q-39 -45 -112 -45q-53 0 -86 33q-37 33 -37 90z
" />
    <glyph glyph-name="gdotaccent" unicode="&#x121;" horiz-adv-x="1083" 
d="M850 768l12 94h201l-105 -839q-30 -262 -127 -369q-47 -52 -130 -88.5t-201 -36.5q-155 0 -254 82q-64 54 -96 133.5t-35 159.5h194q2 -38 16.5 -79t39.5 -67q49 -49 145 -49q102 0 162 60q62 62 82 217l14 110q-86 -123 -250 -123q-161 0 -272 111q-119 119 -119 307
q0 105 40 203.5t114 171.5q65 64 139.5 91.5t175.5 27.5q163 0 254 -117zM608 705q-117 0 -190 -76q-39 -40 -60.5 -103t-21.5 -125q0 -111 63 -178q65 -69 158 -69q101 0 174 73q92 92 92 240q0 111 -65 176q-62 62 -150 62zM487 1110q0 66 45 111q39 39 99 39q53 0 86 -31
q39 -36 39 -92q0 -60 -45 -105q-39 -39 -101 -39q-52 0 -86 31q-37 33 -37 86z" />
    <glyph glyph-name="Gcommaaccent" unicode="&#x122;" horiz-adv-x="1538" 
d="M940 518l25 193h563q-4 -61 -16.5 -125t-36.5 -142.5t-68.5 -155.5t-103.5 -136q-181 -179 -488 -179q-134 0 -246 41t-209 142q-178 182 -178 454q0 161 62 310t170 256q218 215 559 215q191 0 332 -84q127 -77 215 -199l-168 -125q-66 89 -150 145q-111 70 -250 70
q-237 0 -391 -154q-84 -83 -126 -191.5t-42 -221.5q0 -99 35.5 -190.5t93.5 -151.5q123 -123 318 -123q184 0 303 108q106 96 137 244h-340zM512 -561l213 459l184 -70l-260 -442z" />
    <glyph glyph-name="gcommaaccent" unicode="&#x123;" horiz-adv-x="1083" 
d="M850 768l12 94h201l-105 -839q-30 -262 -127 -369q-47 -52 -130 -88.5t-201 -36.5q-155 0 -254 82q-64 54 -96 133.5t-35 159.5h194q2 -38 16.5 -79t39.5 -67q49 -49 145 -49q102 0 162 60q62 62 82 217l14 110q-86 -123 -250 -123q-161 0 -272 111q-119 119 -119 307
q0 105 40 203.5t114 171.5q65 64 139.5 91.5t175.5 27.5q163 0 254 -117zM608 705q-117 0 -190 -76q-39 -40 -60.5 -103t-21.5 -125q0 -111 63 -178q65 -69 158 -69q101 0 174 73q92 92 92 240q0 111 -65 176q-62 62 -150 62zM881 1362l-197 -381l-176 86l237 365z" />
    <glyph glyph-name="Hcircumflex" unicode="&#x124;" horiz-adv-x="1331" 
d="M541 1366l-66 -541h586l65 541h209l-168 -1366h-209l78 629h-585l-78 -629h-209l168 1366h209zM866 1663l-223 -168l-127 115l371 274l305 -274l-143 -115z" />
    <glyph glyph-name="hcircumflex" unicode="&#x125;" horiz-adv-x="995" 
d="M127 0l184 1493h201l-88 -705q35 39 86 64q65 33 147 33q131 0 205 -74q78 -78 78 -209q0 -35 -18 -178l-54 -424h-200l55 444q10 76 10 115q0 74 -39 111q-38 35 -102 35q-81 0 -129 -48q-63 -60 -84 -241l-51 -416h-201zM428 1681l-201 -176l-127 107l351 282l280 -282
l-143 -107z" />
    <glyph glyph-name="Hbar" unicode="&#x126;" horiz-adv-x="1331" 
d="M541 1366l-15 -109h586l14 109h209l-14 -109h123l-21 -172h-123l-133 -1085h-209l78 629h-585l-78 -629h-209l133 1085h-123l21 172h122l15 109h209zM1092 1085h-586l-33 -260h586z" />
    <glyph glyph-name="hbar" unicode="&#x127;" horiz-adv-x="995" 
d="M127 0l139 1130h-196l18 156h199l24 207h201l-27 -207h410l-18 -156h-410l-43 -342q35 39 86 64q65 33 147 33q131 0 205 -74q78 -78 78 -209q0 -35 -18 -178l-54 -424h-200l55 444q10 76 10 115q0 74 -39 111q-38 35 -102 35q-81 0 -129 -48q-63 -60 -84 -241l-51 -416
h-201z" />
    <glyph glyph-name="Imacron" unicode="&#x12a;" horiz-adv-x="536" 
d="M332 1366h209l-168 -1366h-209zM164 1501l20 164h578l-21 -164h-577z" />
    <glyph glyph-name="imacron" unicode="&#x12b;" horiz-adv-x="456" 
d="M236 862h200l-106 -862h-201zM104 1040l19 160h495l-18 -160h-496z" />
    <glyph glyph-name="Iogonek" unicode="&#x12e;" horiz-adv-x="536" 
d="M332 1366h209l-168 -1366q-83 -58 -113 -88q-47 -47 -47 -94q0 -25 16 -39q20 -15 58 -15q55 0 110 19l-37 -148q-66 -30 -147 -30q-80 0 -127 45q-47 44 -47 112q0 84 70 154q46 46 104 84h-49z" />
    <glyph glyph-name="iogonek" unicode="&#x12f;" horiz-adv-x="456" 
d="M233 862h201l-106 -862q-77 -60 -107 -92q-47 -52 -47 -90q0 -28 23 -41q19 -13 57 -13q40 0 104 19l-34 -131q-67 -39 -140 -39q-75 0 -125 41q-51 43 -51 110q0 80 72 152q43 46 98 84h-51zM246 1198q0 64 43 107t104 43q51 0 82 -31q33 -33 33 -78q0 -60 -41 -104
q-42 -45 -109 -45q-49 0 -79 30q-33 29 -33 78z" />
    <glyph glyph-name="Idotaccent" unicode="&#x130;" horiz-adv-x="536" 
d="M332 1366h209l-168 -1366h-209zM334 1626q0 64 45 109q43 43 104 43q58 0 95 -37q32 -36 32 -84q0 -65 -41 -109q-39 -45 -112 -45q-53 0 -86 33q-37 33 -37 90z" />
    <glyph glyph-name="dotlessi" unicode="&#x131;" horiz-adv-x="456" 
d="M236 862h200l-106 -862h-201z" />
    <glyph glyph-name="Jcircumflex" unicode="&#x134;" horiz-adv-x="735" 
d="M530 1366h209l-108 -885q-9 -75 -16 -118.5t-22.5 -105t-41.5 -108.5t-64 -83q-59 -57 -126 -75t-144 -18q-149 0 -248 74l117 172q52 -49 131 -49q73 0 121 45q34 33 52.5 96t31.5 170zM651 1663l-223 -168l-127 115l371 274l305 -274l-143 -115z" />
    <glyph glyph-name="jcircumflex" unicode="&#x135;" horiz-adv-x="456" 
d="M236 862h200l-164 -1331h-200zM373 1169l-201 -176l-123 107l350 282l281 -282l-148 -107z" />
    <glyph glyph-name="Kcommaaccent" unicode="&#x136;" horiz-adv-x="1200" 
d="M541 1366l-68 -528l590 528h280l-696 -618l529 -748h-275l-414 606l-45 -41l-69 -565h-209l168 1366h209zM340 -561l213 459l184 -70l-260 -442z" />
    <glyph glyph-name="kcommaaccent" unicode="&#x137;" horiz-adv-x="905" 
d="M311 1493h201l-115 -920l318 289h266l-420 -360l336 -502h-250l-237 369l-41 -37l-41 -332h-201zM221 -483l197 381l176 -86l-238 -365z" />
    <glyph glyph-name="Lacute" unicode="&#x139;" horiz-adv-x="806" 
d="M332 1366h209l-144 -1169h402l-25 -197h-403h-207zM498 1489l-88 82l317 284l162 -122z" />
    <glyph glyph-name="lacute" unicode="&#x13a;" horiz-adv-x="454" 
d="M311 1493h201l-184 -1493h-201zM528 1956l172 -94l-354 -295l-102 69z" />
    <glyph glyph-name="Lcommaaccent" unicode="&#x13b;" horiz-adv-x="806" 
d="M332 1366h209l-144 -1169h402l-25 -197h-403h-207zM176 -561l213 459l184 -70l-260 -442z" />
    <glyph glyph-name="lcommaaccent" unicode="&#x13c;" horiz-adv-x="454" 
d="M311 1493h201l-184 -1493h-201zM-2 -483l197 381l176 -86l-238 -365z" />
    <glyph glyph-name="Lcaron" unicode="&#x13d;" horiz-adv-x="806" 
d="M332 1366h209l-144 -1169h402l-25 -197h-403h-207zM573 971l234 422l176 -90l-274 -402z" />
    <glyph glyph-name="lcaron" unicode="&#x13e;" horiz-adv-x="716" 
d="M311 1493h201l-184 -1493h-201zM512 991l233 422l177 -90l-275 -401z" />
    <glyph glyph-name="Ldot" unicode="&#x13f;" horiz-adv-x="813" 
d="M332 1366h209l-144 -1169h402l-25 -197h-403h-207zM604 670q0 63 45 108q43 43 105 43q57 0 94 -37q33 -37 33 -84q0 -64 -41 -108q-39 -45 -113 -45q-53 0 -86 33q-37 33 -37 90z" />
    <glyph glyph-name="ldot" unicode="&#x140;" horiz-adv-x="763" 
d="M311 1493h201l-184 -1493h-201zM557 727q0 66 45 111q39 39 98 39q53 0 86 -31q39 -36 39 -92q0 -60 -45 -105q-39 -39 -100 -39q-52 0 -86 31q-37 33 -37 86z" />
    <glyph glyph-name="Lslash" unicode="&#x141;" horiz-adv-x="806" 
d="M332 1366h209l-64 -514l266 158l-22 -172l-264 -158l-60 -483h402l-25 -197h-403h-207l72 588l-177 -105l21 172l178 105z" />
    <glyph glyph-name="lslash" unicode="&#x142;" horiz-adv-x="454" 
d="M311 1493h201l-55 -440l139 98l-21 -164l-139 -98l-108 -889h-201l94 766l-139 -98l20 163l140 99z" />
    <glyph glyph-name="Nacute" unicode="&#x143;" horiz-adv-x="1527" 
d="M373 0h-209l178 1458l864 -1038l117 946h209l-178 -1450l-865 1038zM913 1489l-88 82l318 284l162 -122z" />
    <glyph glyph-name="nacute" unicode="&#x144;" horiz-adv-x="993" 
d="M125 0l106 862h201l-10 -78q36 44 86 68q67 33 147 33q131 0 205 -74q78 -78 78 -205q0 -37 -18 -182l-54 -424h-200l55 444q10 76 10 115q0 74 -39 111q-38 35 -102 35q-81 0 -129 -48q-63 -60 -84 -241l-51 -416h-201zM821 1382l172 -94l-354 -295l-102 70z" />
    <glyph glyph-name="Ncommaaccent" unicode="&#x145;" horiz-adv-x="1527" 
d="M373 0h-209l178 1458l864 -1038l117 946h209l-178 -1450l-865 1038zM504 -561l213 459l184 -70l-260 -442z" />
    <glyph glyph-name="ncommaaccent" unicode="&#x146;" horiz-adv-x="993" 
d="M125 0l106 862h201l-10 -78q36 44 86 68q67 33 147 33q131 0 205 -74q78 -78 78 -205q0 -37 -18 -182l-54 -424h-200l55 444q10 76 10 115q0 74 -39 111q-38 35 -102 35q-81 0 -129 -48q-63 -60 -84 -241l-51 -416h-201zM242 -483l196 381l176 -86l-237 -365z" />
    <glyph glyph-name="Ncaron" unicode="&#x147;" horiz-adv-x="1527" 
d="M373 0h-209l178 1458l864 -1038l117 946h209l-178 -1450l-865 1038zM971 1716l223 168l125 -115l-371 -274l-305 274l145 115z" />
    <glyph glyph-name="ncaron" unicode="&#x148;" horiz-adv-x="993" 
d="M125 0l106 862h201l-10 -78q36 44 86 68q67 33 147 33q131 0 205 -74q78 -78 78 -205q0 -37 -18 -182l-54 -424h-200l55 444q10 76 10 115q0 74 -39 111q-38 35 -102 35q-81 0 -129 -48q-63 -60 -84 -241l-51 -416h-201zM674 1206l203 176l127 -106l-349 -283l-282 283
l143 106z" />
    <glyph glyph-name="Omacron" unicode="&#x14c;" horiz-adv-x="1630" 
d="M979 1391q282 0 461 -179q176 -174 176 -462q0 -347 -215 -566q-64 -65 -137.5 -109t-149 -65t-139.5 -29t-137 -8q-148 0 -263.5 40t-209.5 137q-85 86 -134 206t-49 258q0 161 60 310.5t164 251.5q102 102 251 158.5t322 56.5zM840 166q254 0 401 147q78 76 122 189.5
t44 234.5q0 195 -123 322q-61 63 -149.5 101t-196.5 38q-225 0 -379 -151q-76 -75 -123 -181.5t-47 -236.5q0 -200 127 -332q123 -131 324 -131zM625 1501l20 164h737l-20 -164h-737z" />
    <glyph glyph-name="omacron" unicode="&#x14d;" horiz-adv-x="1093" 
d="M641 885q192 0 307 -115q117 -121 117 -299q0 -220 -150 -365q-75 -72 -160 -102.5t-194 -30.5q-93 0 -167 25t-140 92q-119 125 -119 301q0 109 40 201.5t110 159.5q139 133 356 133zM588 154q114 0 190 82q82 89 82 223q0 111 -67 180q-63 66 -164 66q-119 0 -195 -72
q-94 -88 -94 -225q0 -107 63 -179q14 -16 33.5 -30.5t61.5 -29.5t90 -15zM311 1040l21 160h676l-21 -160h-676z" />
    <glyph glyph-name="Obreve" unicode="&#x14e;" horiz-adv-x="1630" 
d="M979 1391q282 0 461 -179q176 -174 176 -462q0 -347 -215 -566q-64 -65 -137.5 -109t-149 -65t-139.5 -29t-137 -8q-148 0 -263.5 40t-209.5 137q-85 86 -134 206t-49 258q0 161 60 310.5t164 251.5q102 102 251 158.5t322 56.5zM840 166q254 0 401 147q78 76 122 189.5
t44 234.5q0 195 -123 322q-61 63 -149.5 101t-196.5 38q-225 0 -379 -151q-76 -75 -123 -181.5t-47 -236.5q0 -200 127 -332q123 -131 324 -131zM1178 1790h168q-14 -58 -53 -128.5t-107 -113.5q-85 -53 -213 -53q-122 0 -197 57q-53 39 -86 102.5t-41 135.5h168
q12 -67 57 -100q40 -31 107 -31q80 0 127 33q49 34 70 98z" />
    <glyph glyph-name="obreve" unicode="&#x14f;" horiz-adv-x="1093" 
d="M641 885q192 0 307 -115q117 -121 117 -299q0 -220 -150 -365q-75 -72 -160 -102.5t-194 -30.5q-93 0 -167 25t-140 92q-119 125 -119 301q0 109 40 201.5t110 159.5q139 133 356 133zM588 154q114 0 190 82q82 89 82 223q0 111 -67 180q-63 66 -164 66q-119 0 -195 -72
q-94 -88 -94 -225q0 -107 63 -179q14 -16 33.5 -30.5t61.5 -29.5t90 -15zM836 1307h165q-36 -154 -139 -224q-75 -53 -198 -53q-132 0 -209 55q-50 36 -80.5 94.5t-36.5 127.5h158q11 -63 55 -101q38 -32 106 -32q71 0 111 32q50 38 68 101z" />
    <glyph glyph-name="Ohungarumlaut" unicode="&#x150;" horiz-adv-x="1630" 
d="M979 1391q282 0 461 -179q176 -174 176 -462q0 -347 -215 -566q-64 -65 -137.5 -109t-149 -65t-139.5 -29t-137 -8q-148 0 -263.5 40t-209.5 137q-85 86 -134 206t-49 258q0 161 60 310.5t164 251.5q102 102 251 158.5t322 56.5zM840 166q254 0 401 147q78 76 122 189.5
t44 234.5q0 195 -123 322q-61 63 -149.5 101t-196.5 38q-225 0 -379 -151q-76 -75 -123 -181.5t-47 -236.5q0 -200 127 -332q123 -131 324 -131zM969 1855l147 -106l-352 -260l-80 74zM1378 1855l148 -106l-352 -260l-80 74z" />
    <glyph glyph-name="ohungarumlaut" unicode="&#x151;" horiz-adv-x="1093" 
d="M641 885q192 0 307 -115q117 -121 117 -299q0 -220 -150 -365q-75 -72 -160 -102.5t-194 -30.5q-93 0 -167 25t-140 92q-119 125 -119 301q0 109 40 201.5t110 159.5q139 133 356 133zM588 154q114 0 190 82q82 89 82 223q0 111 -67 180q-63 66 -164 66q-119 0 -195 -72
q-94 -88 -94 -225q0 -107 63 -179q14 -16 33.5 -30.5t61.5 -29.5t90 -15zM625 1382l155 -94l-334 -295l-77 70zM993 1382l156 -94l-334 -295l-78 70z" />
    <glyph glyph-name="OE" unicode="&#x152;" horiz-adv-x="2172" 
d="M2234 1366l-24 -197h-545l-39 -325h528l-24 -197h-528l-56 -450h545l-25 -197h-536h-217l20 166q-95 -95 -192 -137q-122 -56 -289 -56q-147 0 -265.5 36.5t-221.5 140.5q-85 86 -134 206t-49 258q0 161 60 310.5t164 251.5t251 158.5t314 56.5q161 0 299 -72
q117 -60 184 -164l27 211h753zM846 166q242 0 393 147q78 76 122 189.5t44 234.5q0 195 -123 322q-61 63 -150 101t-196 38q-222 0 -373 -151q-76 -75 -123 -181.5t-47 -236.5q0 -200 127 -332q123 -131 326 -131z" />
    <glyph glyph-name="oe" unicode="&#x153;" horiz-adv-x="1730" 
d="M1501 291l158 -94q-60 -101 -160 -162q-106 -62 -246 -62q-117 0 -206 52q-72 44 -119 118q-56 -73 -146 -120q-108 -50 -225 -50q-189 0 -303 117q-119 119 -119 301q0 106 40 202t106 159q138 133 360 133q121 0 211 -45q82 -41 135 -115q53 70 135 115q85 45 207 45
q164 0 260 -101q107 -113 107 -301q0 -51 -10 -100h-617q0 -47 17 -95t47 -79q51 -55 141 -55q76 0 137 39q57 38 90 98zM588 154q114 0 190 82q82 90 82 223q0 111 -67 180q-66 66 -168 66q-114 0 -189 -72q-94 -88 -94 -225q0 -106 64 -179q65 -75 182 -75zM1100 547h401
q-6 79 -61 127q-49 39 -115 39q-87 0 -145 -51q-52 -43 -80 -115z" />
    <glyph glyph-name="Racute" unicode="&#x154;" horiz-adv-x="1093" 
d="M332 1366h243q237 0 345 -84q56 -41 93.5 -115.5t37.5 -173.5q0 -97 -33.5 -172t-85.5 -123q-44 -41 -106.5 -71.5t-127.5 -42.5l355 -584h-252l-322 559h-37l-69 -559h-209zM516 1174l-53 -435h65q156 0 238 66q37 29 60.5 76t23.5 100q0 103 -76 154q-58 39 -186 39
h-72zM662 1489l-89 82l318 284l162 -122z" />
    <glyph glyph-name="racute" unicode="&#x155;" horiz-adv-x="679" 
d="M127 0l106 862h201l-10 -78q39 47 92 74t131 27q81 0 148 -41l-99 -182q-46 30 -106 30q-82 0 -133 -51q-55 -57 -74 -195l-55 -446h-201zM754 1382l172 -94l-355 -295l-102 70z" />
    <glyph glyph-name="Rcommaaccent" unicode="&#x156;" horiz-adv-x="1093" 
d="M332 1366h243q237 0 345 -84q56 -41 93.5 -115.5t37.5 -173.5q0 -97 -33.5 -172t-85.5 -123q-44 -41 -106.5 -71.5t-127.5 -42.5l355 -584h-252l-322 559h-37l-69 -559h-209zM516 1174l-53 -435h65q156 0 238 66q37 29 60.5 76t23.5 100q0 103 -76 154q-58 39 -186 39
h-72zM279 -561l213 459l184 -70l-260 -442z" />
    <glyph glyph-name="rcommaaccent" unicode="&#x157;" horiz-adv-x="679" 
d="M127 0l106 862h201l-10 -78q39 47 92 74t131 27q81 0 148 -41l-99 -182q-46 30 -106 30q-82 0 -133 -51q-55 -57 -74 -195l-55 -446h-201zM119 -483l196 381l177 -86l-238 -365z" />
    <glyph glyph-name="Rcaron" unicode="&#x158;" horiz-adv-x="1093" 
d="M332 1366h243q237 0 345 -84q56 -41 93.5 -115.5t37.5 -173.5q0 -97 -33.5 -172t-85.5 -123q-44 -41 -106.5 -71.5t-127.5 -42.5l355 -584h-252l-322 559h-37l-69 -559h-209zM516 1174l-53 -435h65q156 0 238 66q37 29 60.5 76t23.5 100q0 103 -76 154q-58 39 -186 39
h-72zM698 1716l224 168l125 -115l-371 -274l-305 274l145 115z" />
    <glyph glyph-name="rcaron" unicode="&#x159;" horiz-adv-x="679" 
d="M127 0l106 862h201l-10 -78q39 47 92 74t131 27q81 0 148 -41l-99 -182q-46 30 -106 30q-82 0 -133 -51q-55 -57 -74 -195l-55 -446h-201zM559 1206l203 176l127 -106l-348 -283l-283 283l143 106z" />
    <glyph glyph-name="Sacute" unicode="&#x15a;" horiz-adv-x="1056" 
d="M1065 1161l-180 -98q-15 59 -62 96q-52 39 -135 39q-99 0 -156 -53q-57 -50 -57 -123q0 -58 49 -104q15 -14 33 -25t29.5 -16.5t35.5 -15.5t35 -15l111 -49q112 -50 172 -125q72 -89 72 -223q0 -206 -125 -338q-133 -138 -357 -138q-174 0 -274 97q-54 52 -89 132.5
t-38 174.5l211 45q-2 -46 9.5 -98t37.5 -86q55 -72 174 -72q98 0 162 57q38 34 58 89.5t20 111.5q0 73 -53 129q-39 41 -140 86l-104 47q-108 51 -162 109q-76 87 -76 200q0 16 2 35t11 59t33.5 85.5t62.5 85.5q124 131 325 131q139 0 236 -64q94 -62 129 -166zM678 1489
l-88 82l317 284l162 -122z" />
    <glyph glyph-name="sacute" unicode="&#x15b;" horiz-adv-x="745" 
d="M725 733l-156 -98q-13 32 -41 53q-26 21 -61 21q-45 0 -70 -25q-18 -18 -18 -45q0 -31 24 -49q6 -5 84 -45l58 -29q68 -34 108 -74q66 -71 66 -178q0 -127 -86 -209q-88 -82 -242 -82q-117 0 -192 56q-76 57 -107 157l174 78q13 -53 47 -84q33 -30 84 -30t80 26
q33 26 33 76q0 43 -29 72q-18 18 -82 49l-55 28q-66 34 -98 66q-60 57 -60 149q0 113 78 191t213 78q88 0 150 -41q57 -37 98 -111zM692 1382l172 -94l-354 -295l-102 70z" />
    <glyph glyph-name="Scircumflex" unicode="&#x15c;" horiz-adv-x="1056" 
d="M1065 1161l-180 -98q-15 59 -62 96q-52 39 -135 39q-99 0 -156 -53q-57 -50 -57 -123q0 -58 49 -104q15 -14 33 -25t29.5 -16.5t35.5 -15.5t35 -15l111 -49q112 -50 172 -125q72 -89 72 -223q0 -206 -125 -338q-133 -138 -357 -138q-174 0 -274 97q-54 52 -89 132.5
t-38 174.5l211 45q-2 -46 9.5 -98t37.5 -86q55 -72 174 -72q98 0 162 57q38 34 58 89.5t20 111.5q0 73 -53 129q-39 41 -140 86l-104 47q-108 51 -162 109q-76 87 -76 200q0 16 2 35t11 59t33.5 85.5t62.5 85.5q124 131 325 131q139 0 236 -64q94 -62 129 -166zM743 1663
l-223 -168l-127 115l371 274l305 -274l-143 -115z" />
    <glyph glyph-name="scircumflex" unicode="&#x15d;" horiz-adv-x="745" 
d="M725 733l-156 -98q-13 32 -41 53q-26 21 -61 21q-45 0 -70 -25q-18 -18 -18 -45q0 -31 24 -49q6 -5 84 -45l58 -29q68 -34 108 -74q66 -71 66 -178q0 -127 -86 -209q-88 -82 -242 -82q-117 0 -192 56q-76 57 -107 157l174 78q13 -53 47 -84q33 -30 84 -30t80 26
q33 26 33 76q0 43 -29 72q-18 18 -82 49l-55 28q-66 34 -98 66q-60 57 -60 149q0 113 78 191t213 78q88 0 150 -41q57 -37 98 -111zM516 1169l-201 -176l-127 107l351 282l280 -282l-143 -107z" />
    <glyph glyph-name="Scedilla" unicode="&#x15e;" horiz-adv-x="1056" 
d="M1065 1161l-180 -98q-15 59 -62 96q-52 39 -135 39q-99 0 -156 -53q-57 -50 -57 -123q0 -58 49 -104q15 -14 33 -25t29.5 -16.5t35.5 -15.5t35 -15l111 -49q112 -50 172 -125q72 -89 72 -223q0 -206 -125 -338q-133 -138 -357 -138q-174 0 -274 97q-54 52 -89 132.5
t-38 174.5l211 45q-2 -46 9.5 -98t37.5 -86q55 -72 174 -72q98 0 162 57q38 34 58 89.5t20 111.5q0 73 -53 129q-39 41 -140 86l-104 47q-108 51 -162 109q-76 87 -76 200q0 16 2 35t11 59t33.5 85.5t62.5 85.5q124 131 325 131q139 0 236 -64q94 -62 129 -166zM477 -109
l168 -77l-264 -273l-123 66z" />
    <glyph glyph-name="scedilla" unicode="&#x15f;" horiz-adv-x="745" 
d="M725 733l-156 -98q-13 32 -41 53q-26 21 -61 21q-45 0 -70 -25q-18 -18 -18 -45q0 -31 24 -49q6 -5 84 -45l58 -29q68 -34 108 -74q66 -71 66 -178q0 -127 -86 -209q-88 -82 -242 -82q-117 0 -192 56q-76 57 -107 157l174 78q13 -53 47 -84q33 -30 84 -30t80 26
q33 26 33 76q0 43 -29 72q-18 18 -82 49l-55 28q-66 34 -98 66q-60 57 -60 149q0 113 78 191t213 78q88 0 150 -41q57 -37 98 -111zM330 -109l162 -65l-244 -275l-123 66z" />
    <glyph glyph-name="Scaron" unicode="&#x160;" horiz-adv-x="1056" 
d="M1065 1161l-180 -98q-15 59 -62 96q-52 39 -135 39q-99 0 -156 -53q-57 -50 -57 -123q0 -58 49 -104q15 -14 33 -25t29.5 -16.5t35.5 -15.5t35 -15l111 -49q112 -50 172 -125q72 -89 72 -223q0 -206 -125 -338q-133 -138 -357 -138q-174 0 -274 97q-54 52 -89 132.5
t-38 174.5l211 45q-2 -46 9.5 -98t37.5 -86q55 -72 174 -72q98 0 162 57q38 34 58 89.5t20 111.5q0 73 -53 129q-39 41 -140 86l-104 47q-108 51 -162 109q-76 87 -76 200q0 16 2 35t11 59t33.5 85.5t62.5 85.5q124 131 325 131q139 0 236 -64q94 -62 129 -166zM739 1716
l224 168l124 -115l-370 -274l-305 274l145 115z" />
    <glyph glyph-name="scaron" unicode="&#x161;" horiz-adv-x="745" 
d="M725 733l-156 -98q-13 32 -41 53q-26 21 -61 21q-45 0 -70 -25q-18 -18 -18 -45q0 -31 24 -49q6 -5 84 -45l58 -29q68 -34 108 -74q66 -71 66 -178q0 -127 -86 -209q-88 -82 -242 -82q-117 0 -192 56q-76 57 -107 157l174 78q13 -53 47 -84q33 -30 84 -30t80 26
q33 26 33 76q0 43 -29 72q-18 18 -82 49l-55 28q-66 34 -98 66q-60 57 -60 149q0 113 78 191t213 78q88 0 150 -41q57 -37 98 -111zM512 1206l203 176l127 -106l-348 -283l-283 283l143 106z" />
    <glyph glyph-name="Tcedilla" unicode="&#x162;" horiz-adv-x="876" 
d="M999 1169h-313l-143 -1169h-209l143 1169h-313l24 197h836zM395 -109l168 -77l-264 -273l-123 66z" />
    <glyph glyph-name="tcedilla" unicode="&#x163;" horiz-adv-x="495" 
d="M571 678h-153l-84 -678h-201l84 678h-84l23 184h84l39 316h200l-39 -316h154zM186 -109l162 -65l-244 -275l-122 66z" />
    <glyph glyph-name="Tcaron" unicode="&#x164;" horiz-adv-x="876" 
d="M999 1169h-313l-143 -1169h-209l143 1169h-313l24 197h836zM645 1716l223 168l125 -115l-370 -274l-306 274l146 115z" />
    <glyph glyph-name="tcaron" unicode="&#x165;" horiz-adv-x="737" 
d="M571 678h-153l-84 -678h-201l84 678h-84l23 184h84l39 316h200l-39 -316h154zM532 991l234 422l176 -90l-274 -401z" />
    <glyph glyph-name="Utilde" unicode="&#x168;" horiz-adv-x="1343" 
d="M336 1366h209l-94 -768q-1 -12 -5.5 -42.5t-7 -59t-2.5 -54.5q0 -130 72 -202q74 -74 192 -74q136 0 228 88q31 31 51.5 64.5t32 75.5t16 70t10.5 79l101 823h209l-109 -879q-17 -140 -70.5 -240t-121.5 -157q-143 -117 -363 -117q-245 0 -371 160q-90 111 -90 281
q0 44 23 227zM1139 1767l106 -94q-47 -76 -98 -119q-63 -53 -156 -53q-25 0 -49 5.5t-35.5 10t-40.5 17.5l-43 20q-68 33 -100 33q-38 0 -70 -28q-26 -21 -45 -58l-110 84q55 74 100 111q67 55 152 55q62 0 122 -31l39 -20q73 -39 103 -39q43 0 78 39q22 26 47 67z" />
    <glyph glyph-name="utilde" unicode="&#x169;" horiz-adv-x="993" 
d="M236 862h200l-55 -448q-10 -75 -10 -101q0 -77 41 -118t112 -41q34 0 68.5 12.5t56.5 32.5q21 20 34.5 52.5t17.5 54.5t10 63l61 493h201l-62 -500q-7 -60 -14.5 -99.5t-33.5 -98t-68 -98.5q-97 -93 -273 -93q-182 0 -274 95q-80 83 -80 208q0 29 10 117zM901 1274
l109 -94q-35 -65 -92 -113q-74 -63 -164 -63q-61 0 -123 36l-41 25q-67 37 -103 37q-41 0 -73 -35q-19 -19 -43 -59l-111 84q54 74 100 110q71 55 154 55q70 0 137 -40l31 -21q55 -37 96 -37q46 0 80 43q29 37 43 72z" />
    <glyph glyph-name="Umacron" unicode="&#x16a;" horiz-adv-x="1343" 
d="M336 1366h209l-94 -768q-1 -12 -5.5 -42.5t-7 -59t-2.5 -54.5q0 -130 72 -202q74 -74 192 -74q136 0 228 88q31 31 51.5 64.5t32 75.5t16 70t10.5 79l101 823h209l-109 -879q-17 -140 -70.5 -240t-121.5 -157q-143 -117 -363 -117q-245 0 -371 160q-90 111 -90 281
q0 44 23 227zM485 1501l21 164h737l-20 -164h-738z" />
    <glyph glyph-name="umacron" unicode="&#x16b;" horiz-adv-x="993" 
d="M236 862h200l-55 -448q-10 -75 -10 -101q0 -77 41 -118t112 -41q34 0 68.5 12.5t56.5 32.5q21 20 34.5 52.5t17.5 54.5t10 63l61 493h201l-62 -500q-7 -60 -14.5 -99.5t-33.5 -98t-68 -98.5q-97 -93 -273 -93q-182 0 -274 95q-80 83 -80 208q0 29 10 117zM285 1040
l20 160h676l-20 -160h-676z" />
    <glyph glyph-name="Ubreve" unicode="&#x16c;" horiz-adv-x="1343" 
d="M336 1366h209l-94 -768q-1 -12 -5.5 -42.5t-7 -59t-2.5 -54.5q0 -130 72 -202q74 -74 192 -74q136 0 228 88q31 31 51.5 64.5t32 75.5t16 70t10.5 79l101 823h209l-109 -879q-17 -140 -70.5 -240t-121.5 -157q-143 -117 -363 -117q-245 0 -371 160q-90 111 -90 281
q0 44 23 227zM1069 1790h168q-14 -58 -53 -128.5t-107 -113.5q-85 -53 -213 -53q-121 0 -196 57q-53 39 -86 102.5t-41 135.5h168q12 -67 57 -100q40 -31 106 -31q80 0 127 33q49 34 70 98z" />
    <glyph glyph-name="ubreve" unicode="&#x16d;" horiz-adv-x="993" 
d="M236 862h200l-55 -448q-10 -75 -10 -101q0 -77 41 -118t112 -41q34 0 68.5 12.5t56.5 32.5q21 20 34.5 52.5t17.5 54.5t10 63l61 493h201l-62 -500q-7 -60 -14.5 -99.5t-33.5 -98t-68 -98.5q-97 -93 -273 -93q-182 0 -274 95q-80 83 -80 208q0 29 10 117zM819 1307h166
q-36 -154 -139 -224q-75 -53 -199 -53q-132 0 -209 55q-50 36 -80 94.5t-36 127.5h157q11 -62 56 -101q38 -32 106 -32q71 0 111 32q49 37 67 101z" />
    <glyph glyph-name="Uring" unicode="&#x16e;" horiz-adv-x="1343" 
d="M336 1366h209l-94 -768q-1 -12 -5.5 -42.5t-7 -59t-2.5 -54.5q0 -130 72 -202q74 -74 192 -74q136 0 228 88q31 31 51.5 64.5t32 75.5t16 70t10.5 79l101 823h209l-109 -879q-17 -140 -70.5 -240t-121.5 -157q-143 -117 -363 -117q-245 0 -371 160q-90 111 -90 281
q0 44 23 227zM676 1669q0 87 55 146q63 69 164 69q82 0 131 -49q51 -49 51 -131q0 -97 -59 -156q-61 -61 -160 -61q-80 0 -129 49q-53 53 -53 133zM788 1677q0 -36 23 -59q21 -21 55 -21q43 0 72 29q27 27 27 70q0 32 -23 55t-55 23q-39 0 -70 -27q-29 -29 -29 -70z" />
    <glyph glyph-name="uring" unicode="&#x16f;" horiz-adv-x="993" 
d="M236 862h200l-55 -448q-10 -75 -10 -101q0 -77 41 -118t112 -41q34 0 68.5 12.5t56.5 32.5q21 20 34.5 52.5t17.5 54.5t10 63l61 493h201l-62 -500q-7 -60 -14.5 -99.5t-33.5 -98t-68 -98.5q-97 -93 -273 -93q-182 0 -274 95q-80 83 -80 208q0 29 10 117zM446 1174
q0 85 54 143q58 61 153 61q80 0 131 -47q52 -50 52 -127q0 -93 -60 -153q-58 -58 -143 -58q-83 0 -137 54q-50 54 -50 127zM551 1178q0 -36 22 -58t60 -22q43 0 67 24q29 26 29 74q0 36 -27 59q-22 19 -57 19q-41 0 -70 -29q-24 -27 -24 -67z" />
    <glyph glyph-name="Uhungarumlaut" unicode="&#x170;" horiz-adv-x="1343" 
d="M336 1366h209l-94 -768q-1 -12 -5.5 -42.5t-7 -59t-2.5 -54.5q0 -130 72 -202q74 -74 192 -74q136 0 228 88q31 31 51.5 64.5t32 75.5t16 70t10.5 79l101 823h209l-109 -879q-17 -140 -70.5 -240t-121.5 -157q-143 -117 -363 -117q-245 0 -371 160q-90 111 -90 281
q0 44 23 227zM819 1855l148 -106l-353 -260l-79 74zM1229 1855l147 -106l-352 -260l-80 74z" />
    <glyph glyph-name="uhungarumlaut" unicode="&#x171;" horiz-adv-x="993" 
d="M236 862h200l-55 -448q-10 -75 -10 -101q0 -77 41 -118t112 -41q34 0 68.5 12.5t56.5 32.5q21 20 34.5 52.5t17.5 54.5t10 63l61 493h201l-62 -500q-7 -60 -14.5 -99.5t-33.5 -98t-68 -98.5q-97 -93 -273 -93q-182 0 -274 95q-80 83 -80 208q0 29 10 117zM604 1382
l156 -94l-334 -295l-78 70zM973 1382l155 -94l-333 -295l-78 70z" />
    <glyph glyph-name="Uogonek" unicode="&#x172;" horiz-adv-x="1343" 
d="M336 1366h209l-94 -768q-1 -12 -5.5 -42.5t-7 -59t-2.5 -54.5q0 -130 72 -202q74 -74 192 -74q136 0 228 88q31 31 51.5 64.5t32 75.5t16 70t10.5 79l101 823h209l-109 -879q-13 -110 -47.5 -200.5t-116.5 -169.5q-22 -21 -44.5 -38.5t-62.5 -45.5l-50 -35
q-61 -40 -107 -86q-47 -47 -47 -94q0 -25 16 -39q20 -15 58 -15q55 0 110 19l-37 -148q-66 -30 -147 -30q-80 0 -127 45q-47 44 -47 112q0 85 69 154q11 11 70 59q-248 -18 -387 123q-54 54 -86.5 136t-32.5 180q0 30 23 227z" />
    <glyph glyph-name="uogonek" unicode="&#x173;" horiz-adv-x="993" 
d="M236 862h200l-55 -448q-10 -75 -10 -101q0 -77 41 -118t112 -41q34 0 68.5 12.5t56.5 32.5q17 16 29 36.5t18.5 50.5t8.5 40.5t6 42.5l61 493h201l-62 -500q-12 -107 -33.5 -170t-82.5 -126q-31 -31 -97 -89q-62 -57 -73 -69q-47 -52 -47 -90q0 -28 22 -41q20 -13 57 -13
q41 0 105 19l-35 -131q-67 -39 -139 -39q-75 0 -125 41q-51 43 -51 110q0 65 53 130q38 47 84 79q-203 -3 -301 95q-80 83 -80 208q0 29 10 117z" />
    <glyph glyph-name="Ydieresis" unicode="&#x178;" horiz-adv-x="1105" 
d="M449 0l71 590l-352 776h233l248 -547l383 547h242l-545 -776l-72 -590h-208zM805 1614q0 57 43 100q41 41 102 41q49 0 78 -31q33 -33 33 -84q0 -60 -43 -100q-42 -39 -100 -39q-49 0 -80 31q-33 29 -33 82zM406 1614q0 57 43 100q41 41 102 41q49 0 78 -31
q33 -33 33 -84q0 -60 -44 -100q-42 -39 -100 -39q-49 0 -80 31q-32 28 -32 82z" />
    <glyph glyph-name="Zacute" unicode="&#x179;" horiz-adv-x="1134" 
d="M1241 1366l-815 -1169h655l-24 -197h-996l816 1169h-562l25 197h901zM743 1489l-88 82l318 284l162 -122z" />
    <glyph glyph-name="zacute" unicode="&#x17a;" horiz-adv-x="983" 
d="M1073 862l-639 -678h512l-22 -184h-908l643 678h-440l23 184h831zM815 1382l172 -94l-354 -295l-103 70z" />
    <glyph glyph-name="Zdotaccent" unicode="&#x17b;" horiz-adv-x="1134" 
d="M1241 1366l-815 -1169h655l-24 -197h-996l816 1169h-562l25 197h901zM657 1626q0 64 45 109q43 43 105 43q57 0 94 -37q33 -37 33 -84q0 -65 -41 -109q-39 -45 -113 -45q-53 0 -86 33q-37 33 -37 90z" />
    <glyph glyph-name="zdotaccent" unicode="&#x17c;" horiz-adv-x="983" 
d="M1073 862l-639 -678h512l-22 -184h-908l643 678h-440l23 184h831zM516 1110q0 66 45 111q39 39 98 39q53 0 86 -31q39 -36 39 -92q0 -60 -45 -105q-39 -39 -100 -39q-52 0 -86 31q-37 33 -37 86z" />
    <glyph glyph-name="Zcaron" unicode="&#x17d;" horiz-adv-x="1134" 
d="M1241 1366l-815 -1169h655l-24 -197h-996l816 1169h-562l25 197h901zM801 1716l223 168l125 -115l-371 -274l-305 274l145 115z" />
    <glyph glyph-name="zcaron" unicode="&#x17e;" horiz-adv-x="983" 
d="M1073 862l-639 -678h512l-22 -184h-908l643 678h-440l23 184h831zM674 1206l203 176l127 -106l-349 -283l-282 283l143 106z" />
    <glyph glyph-name="uni018F" unicode="&#x18f;" horiz-adv-x="1536" 
d="M438 991l-166 123q100 115 250 199q150 78 338 78q147 0 260.5 -37t208.5 -129q193 -188 193 -494q0 -336 -195 -551q-100 -110 -222.5 -158.5t-281.5 -48.5q-304 0 -475 179q-86 89 -128 210t-42 248q0 16 1.5 38.5t3.5 47.5t3 35h1125q0 105 -37 194t-96 150
q-120 123 -324 123q-143 0 -250 -61q-87 -50 -166 -146zM1282 539h-885q11 -166 123 -271q109 -102 305 -102q191 0 308 100q119 103 149 273z" />
    <glyph glyph-name="florin" unicode="&#x192;" horiz-adv-x="1163" 
d="M1225 1497l-51 -190q-45 20 -89 20q-68 0 -108 -43q-41 -41 -68 -151l-67 -271h229l-41 -160h-229l-144 -569q-22 -87 -40.5 -144t-55 -128t-82.5 -113q-116 -110 -334 -110q-37 0 -55 2l47 190h13q129 0 188 55q34 32 59 91t49 153l146 573h-174l41 160h174l74 295
q44 182 139 270q94 89 241 89q59 0 138 -19z" />
    <glyph glyph-name="uni01CF" unicode="&#x1cf;" horiz-adv-x="536" 
d="M332 1366h209l-168 -1366h-209zM479 1716l180 158l109 -100l-315 -269l-250 269l133 100z" />
    <glyph glyph-name="uni01D0" unicode="&#x1d0;" horiz-adv-x="456" 
d="M236 862h200l-106 -862h-201zM379 1214l162 150l98 -94l-285 -256l-223 256l123 94z" />
    <glyph glyph-name="uni01DD" unicode="&#x1dd;" horiz-adv-x="1001" 
d="M141 496h623q-1 48 -20 90.5t-48 68.5q-55 47 -139 47q-78 0 -129 -32q-44 -27 -78 -72l-182 61q64 106 168 166q105 60 231 60q177 0 287 -103q119 -112 119 -301q0 -119 -38 -223t-104 -170q-68 -68 -144 -91.5t-165 -23.5q-84 0 -149.5 21t-120.5 76
q-117 117 -117 327q0 47 6 99zM741 332h-407q7 -83 57 -137q50 -50 135 -50q87 0 140 45q8 6 20.5 19.5t30.5 48t24 74.5z" />
    <glyph glyph-name="Gcaron" unicode="&#x1e6;" horiz-adv-x="1538" 
d="M940 518l25 193h563q-4 -61 -16.5 -125t-36.5 -142.5t-68.5 -155.5t-103.5 -136q-181 -179 -488 -179q-134 0 -246 41t-209 142q-178 182 -178 454q0 161 62 310t170 256q218 215 559 215q191 0 332 -84q127 -77 215 -199l-168 -125q-66 89 -150 145q-111 70 -250 70
q-237 0 -391 -154q-84 -83 -126 -191.5t-42 -221.5q0 -99 35.5 -190.5t93.5 -151.5q123 -123 318 -123q184 0 303 108q106 96 137 244h-340zM1006 1716l223 168l125 -115l-371 -274l-305 274l145 115z" />
    <glyph glyph-name="gcaron" unicode="&#x1e7;" horiz-adv-x="1083" 
d="M850 768l12 94h201l-105 -839q-30 -262 -127 -369q-47 -52 -130 -88.5t-201 -36.5q-155 0 -254 82q-64 54 -96 133.5t-35 159.5h194q2 -38 16.5 -79t39.5 -67q49 -49 145 -49q102 0 162 60q62 62 82 217l14 110q-86 -123 -250 -123q-161 0 -272 111q-119 119 -119 307
q0 105 40 203.5t114 171.5q65 64 139.5 91.5t175.5 27.5q163 0 254 -117zM608 705q-117 0 -190 -76q-39 -40 -60.5 -103t-21.5 -125q0 -111 63 -178q65 -69 158 -69q101 0 174 73q92 92 92 240q0 111 -65 176q-62 62 -150 62zM653 1206l203 176l127 -106l-348 -283l-283 283
l144 106z" />
    <glyph glyph-name="AEacute" unicode="&#x1fc;" horiz-adv-x="1896" 
d="M1118 0l-102 326h-580l-190 -326h-226l824 1366h604l61 -197h-542l104 -325h528l62 -197h-528l139 -450h543l61 -197h-758zM551 522h405l-139 445zM1098 1489l-88 82l317 284l162 -122z" />
    <glyph glyph-name="aeacute" unicode="&#x1fd;" horiz-adv-x="1560" 
d="M287 672l22 186q132 27 244 27q115 0 186 -31q68 -31 109 -88q55 51 117 78q93 41 194 41q161 0 260 -101q107 -113 107 -301q0 -51 -10 -100h-617q0 -47 17 -95t47 -79q51 -55 141 -55q76 0 137 39q57 38 90 98l158 -94q-60 -101 -160 -162q-102 -62 -242 -62
q-108 0 -190 39q-68 30 -121 101q-57 -72 -135 -105q-77 -35 -199 -35q-138 0 -225 66q-44 33 -73 87.5t-29 127.5q0 122 88 207q98 94 276 94q148 0 232 -57q4 18 4 49q0 82 -56 123q-47 35 -143 35q-110 0 -229 -33zM500 383q-99 0 -154 -47q-37 -32 -37 -80q0 -46 49 -80
q46 -31 117 -31q86 0 137 33q58 37 58 96q0 48 -45 78q-45 31 -125 31zM930 547h401q-11 75 -51 119q-44 47 -125 47q-82 0 -145 -51q-52 -43 -80 -115zM1104 1382l172 -94l-354 -295l-103 70z" />
    <glyph glyph-name="Scommaaccent" unicode="&#x218;" horiz-adv-x="1056" 
d="M1065 1161l-180 -98q-15 59 -62 96q-52 39 -135 39q-99 0 -156 -53q-57 -50 -57 -123q0 -58 49 -104q15 -14 33 -25t29.5 -16.5t35.5 -15.5t35 -15l111 -49q112 -50 172 -125q72 -89 72 -223q0 -206 -125 -338q-133 -138 -357 -138q-174 0 -274 97q-54 52 -89 132.5
t-38 174.5l211 45q-2 -46 9.5 -98t37.5 -86q55 -72 174 -72q98 0 162 57q38 34 58 89.5t20 111.5q0 73 -53 129q-39 41 -140 86l-104 47q-108 51 -162 109q-76 87 -76 200q0 16 2 35t11 59t33.5 85.5t62.5 85.5q124 131 325 131q139 0 236 -64q94 -62 129 -166zM258 -561
l213 459l184 -70l-260 -442z" />
    <glyph glyph-name="scommaaccent" unicode="&#x219;" horiz-adv-x="745" 
d="M725 733l-156 -98q-13 32 -41 53q-26 21 -61 21q-45 0 -70 -25q-18 -18 -18 -45q0 -31 24 -49q6 -5 84 -45l58 -29q68 -34 108 -74q66 -71 66 -178q0 -127 -86 -209q-88 -82 -242 -82q-117 0 -192 56q-76 57 -107 157l174 78q13 -53 47 -84q33 -30 84 -30t80 26
q33 26 33 76q0 43 -29 72q-18 18 -82 49l-55 28q-66 34 -98 66q-60 57 -60 149q0 113 78 191t213 78q88 0 150 -41q57 -37 98 -111zM119 -483l196 381l177 -86l-238 -365z" />
    <glyph glyph-name="Tcommaaccent" unicode="&#x21a;" horiz-adv-x="876" 
d="M999 1169h-313l-143 -1169h-209l143 1169h-313l24 197h836zM176 -561l213 459l184 -70l-260 -442z" />
    <glyph glyph-name="tcommaaccent" unicode="&#x21b;" horiz-adv-x="495" 
d="M571 678h-153l-84 -678h-201l84 678h-84l23 184h84l39 316h200l-39 -316h154zM-4 -483l197 381l176 -86l-238 -365z" />
    <glyph glyph-name="uni0228" unicode="&#x228;" 
d="M1085 1366l-24 -197h-545l-41 -346h529l-25 -196h-528l-54 -430h545l-24 -197h-754l168 1366h753zM549 -109l168 -77l-264 -273l-123 66z" />
    <glyph glyph-name="uni0229" unicode="&#x229;" horiz-adv-x="1001" 
d="M772 291l158 -94q-60 -101 -160 -162q-105 -62 -242 -62q-170 0 -276 109q-117 117 -117 307q0 222 150 369q130 127 315 127q164 0 260 -101q50 -52 78.5 -130.5t28.5 -170.5q0 -46 -11 -100h-616q0 -47 16.5 -95t46.5 -79q51 -55 142 -55q76 0 137 39q57 38 90 98z
M371 547h401q-11 75 -51 119q-44 47 -125 47q-82 0 -145 -51q-52 -43 -80 -115zM504 -109l162 -65l-244 -275l-123 66z" />
    <glyph glyph-name="uni0237" unicode="&#x237;" horiz-adv-x="456" 
d="M233 862h201l-164 -1331h-200z" />
    <glyph glyph-name="uni0259" unicode="&#x259;" horiz-adv-x="1001" 
d="M141 496h623q-1 48 -20 90.5t-48 68.5q-55 47 -139 47q-78 0 -129 -32q-44 -27 -78 -72l-182 61q64 106 168 166q105 60 231 60q177 0 287 -103q119 -112 119 -301q0 -119 -38 -223t-104 -170q-68 -68 -144 -91.5t-165 -23.5q-84 0 -149.5 21t-120.5 76
q-117 117 -117 327q0 47 6 99zM741 332h-407q7 -83 57 -137q50 -50 135 -50q87 0 140 45q8 6 20.5 19.5t30.5 48t24 74.5z" />
    <glyph glyph-name="afii57929" unicode="&#x2bc;" 
d="M369 991l233 422l176 -90l-274 -401z" />
    <glyph glyph-name="circumflex" unicode="&#x2c6;" 
d="M659 1169l-200 -176l-127 107l350 282l281 -282l-144 -107z" />
    <glyph glyph-name="caron" unicode="&#x2c7;" 
d="M653 1206l203 176l127 -106l-348 -283l-283 283l144 106z" />
    <glyph glyph-name="uni02C9" unicode="&#x2c9;" 
d="M301 1040l21 160h675l-20 -160h-676z" />
    <glyph glyph-name="breve" unicode="&#x2d8;" 
d="M836 1307h165q-36 -154 -139 -224q-75 -53 -198 -53q-132 0 -209 55q-50 36 -80.5 94.5t-36.5 127.5h158q11 -63 55 -101q38 -32 106 -32q71 0 111 32q50 38 68 101z" />
    <glyph glyph-name="dotaccent" unicode="&#x2d9;" 
d="M516 1110q0 66 45 111q39 39 98 39q53 0 86 -31q39 -36 39 -92q0 -60 -45 -105q-39 -39 -100 -39q-52 0 -86 31q-37 33 -37 86z" />
    <glyph glyph-name="ring" unicode="&#x2da;" 
d="M463 1174q0 86 53 143q58 61 154 61q80 0 131 -47q51 -49 51 -127q0 -94 -59 -153q-58 -58 -144 -58q-83 0 -137 54q-49 53 -49 127zM567 1178q0 -35 23 -58q22 -22 59 -22q44 0 68 24q28 25 28 74q0 37 -26 59q-22 19 -57 19q-41 0 -70 -29q-25 -28 -25 -67z" />
    <glyph glyph-name="ogonek" unicode="&#x2db;" 
d="M494 0h149q-73 -57 -106 -92q-48 -53 -48 -90q0 -28 23 -41q20 -13 57 -13q41 0 105 19l-35 -131q-67 -39 -139 -39q-75 0 -125 41q-51 43 -51 110q0 81 71 152q41 44 99 84z" />
    <glyph glyph-name="tilde" unicode="&#x2dc;" 
d="M918 1274l108 -94q-35 -65 -92 -113q-74 -63 -164 -63q-61 0 -123 36l-41 25q-67 37 -102 37q-42 0 -74 -35q-19 -19 -43 -59l-111 84q53 72 101 110q71 55 153 55q70 0 138 -40l30 -21q55 -37 97 -37q45 0 79 43q31 40 44 72z" />
    <glyph glyph-name="hungarumlaut" unicode="&#x2dd;" 
d="M645 1382l156 -94l-334 -295l-78 70zM1014 1382l155 -94l-333 -295l-78 70z" />
    <glyph glyph-name="acutecomb" unicode="&#x301;" horiz-adv-x="4" 
d="M-270 1382l172 -94l-355 -295l-102 70z" />
    <glyph glyph-name="uni0394" unicode="&#x394;" horiz-adv-x="1368" 
d="M1319 0h-1270l524 1366h213zM680 1083l-328 -886h656z" />
    <glyph glyph-name="uni0394" unicode="&#x2206;" horiz-adv-x="1368" 
d="M1319 0h-1270l524 1366h213zM680 1083l-328 -886h656z" />
    <glyph glyph-name="uni03A9" unicode="&#x3a9;" horiz-adv-x="1271" 
d="M766 0v221q145 61 233 185q99 134 99 313q0 229 -142 366q-118 113 -274 113t-274 -113q-142 -137 -142 -366q0 -179 99 -313q88 -124 233 -185v-221h-541v197h330q-163 82 -254 239q-76 131 -76 295q0 307 191 494q168 166 434 166t434 -166q191 -187 191 -494
q0 -164 -76 -295q-91 -157 -254 -239h330v-197h-541z" />
    <glyph glyph-name="uni03A9" unicode="&#x2126;" horiz-adv-x="1271" 
d="M766 0v221q145 61 233 185q99 134 99 313q0 229 -142 366q-118 113 -274 113t-274 -113q-142 -137 -142 -366q0 -179 99 -313q88 -124 233 -185v-221h-541v197h330q-163 82 -254 239q-76 131 -76 295q0 307 191 494q168 166 434 166t434 -166q191 -187 191 -494
q0 -164 -76 -295q-91 -157 -254 -239h330v-197h-541z" />
    <glyph glyph-name="pi" unicode="&#x3c0;" horiz-adv-x="1112" 
d="M483 0h-200v678h-154v184h1045v-184h-154v-678h-201v678h-336v-678z" />
    <glyph glyph-name="afii10023" unicode="&#x401;" 
d="M1085 1366l-24 -197h-545l-41 -346h529l-25 -196h-528l-54 -430h545l-24 -197h-754l168 1366h753zM813 1614q0 57 43 100q41 41 102 41q49 0 78 -31q33 -33 33 -84q0 -60 -43 -100q-42 -39 -100 -39q-49 0 -80 31q-33 29 -33 82zM414 1614q0 57 43 100q41 41 102 41
q49 0 78 -31q33 -33 33 -84q0 -60 -43 -100q-42 -39 -101 -39q-49 0 -80 31q-32 28 -32 82z" />
    <glyph glyph-name="afii10051" unicode="&#x402;" horiz-adv-x="1333" 
d="M1139 1169h-451l-47 -381q136 48 274 48q200 0 306 -101q49 -47 80.5 -126.5t31.5 -186.5q0 -98 -33 -187t-92 -147q-107 -102 -309 -102q-88 0 -194 16l22 191q88 -15 152 -15q121 0 180 55q65 60 65 183q0 111 -53 166q-59 61 -182 61q-143 0 -271 -47l-73 -596h-209
l143 1169h-315l24 197h975z" />
    <glyph glyph-name="afii10052" unicode="&#x403;" horiz-adv-x="876" 
d="M164 0l168 1366h684l-25 -197h-475l-143 -1169h-209zM662 1489l-89 82l318 284l162 -122z" />
    <glyph glyph-name="afii10053" unicode="&#x404;" horiz-adv-x="1273" 
d="M1337 1292l-28 -245q-151 151 -377 151q-228 0 -373 -139q-111 -107 -145 -260h676l-25 -197h-674q0 -92 32 -172t83 -137q115 -127 325 -127q208 0 388 158l-29 -248q-113 -61 -201.5 -82t-175.5 -21q-135 0 -244 37.5t-204 132.5q-183 183 -183 473q0 343 226 566
q216 209 540 209q190 0 389 -99z" />
    <glyph glyph-name="afii10054" unicode="&#x405;" horiz-adv-x="1056" 
d="M1065 1161l-180 -98q-15 59 -62 96q-52 39 -135 39q-99 0 -156 -53q-57 -50 -57 -123q0 -58 49 -104q15 -14 33 -25t29.5 -16.5t35.5 -15.5t35 -15l111 -49q112 -50 172 -125q72 -89 72 -223q0 -206 -125 -338q-133 -138 -357 -138q-174 0 -274 97q-54 52 -89 132.5
t-38 174.5l211 45q0 -122 47 -184q55 -72 174 -72q98 0 162 57q38 34 58 89.5t20 111.5q0 73 -53 129q-39 41 -140 86l-104 47q-108 51 -162 109q-76 87 -76 200q0 16 2 35t11 59t33.5 85.5t62.5 85.5q124 131 325 131q139 0 236 -64q94 -62 129 -166z" />
    <glyph glyph-name="afii10055" unicode="&#x406;" horiz-adv-x="536" 
d="M332 1366h209l-168 -1366h-209z" />
    <glyph glyph-name="afii10056" unicode="&#x407;" horiz-adv-x="536" 
d="M332 1366h209l-168 -1366h-209zM502 1616q0 55 39 94q38 33 77 33q42 0 66 -31q25 -31 25 -67q0 -55 -37 -95q-32 -37 -78 -37q-35 0 -64 29q-28 32 -28 74zM229 1614q0 55 39 94q33 35 78 35q38 0 66 -31q24 -30 24 -67q0 -55 -37 -95q-32 -37 -77 -37q-35 0 -64 29
q-29 33 -29 72z" />
    <glyph glyph-name="afii10057" unicode="&#x408;" horiz-adv-x="735" 
d="M530 1366h209l-108 -885q-9 -75 -16 -118.5t-22.5 -105t-41.5 -108.5t-64 -83q-59 -57 -126 -75t-144 -18q-149 0 -248 74l117 172q52 -49 131 -49q73 0 121 45q34 33 52.5 96t31.5 170z" />
    <glyph glyph-name="afii10058" unicode="&#x409;" horiz-adv-x="1839" 
d="M950 0l146 1171l-457 -2l-80 -643q-11 -92 -24 -157.5t-45 -144.5t-80 -130q-101 -106 -271 -106q-49 0 -110 14l24 193q31 -15 74 -15q82 0 133 53q41 42 60 113.5t34 204.5l101 815h872l-67 -551h143q215 0 330 -104q59 -54 82.5 -117t23.5 -143q0 -211 -117 -328
q-42 -41 -91.5 -67.5t-106.5 -37.5t-101 -14.5t-106 -3.5h-164h-203zM1235 618l-51 -421h147q51 0 86.5 3t81.5 19t74 45q28 28 43.5 74.5t15.5 91.5q0 92 -69 143q-63 45 -203 45h-125z" />
    <glyph glyph-name="afii10059" unicode="&#x40a;" horiz-adv-x="1845" 
d="M958 0l78 629h-585l-78 -629h-209l168 1366h209l-66 -541h586l65 541h207l-65 -541h141q215 0 330 -104q64 -57 85 -123t21 -147q0 -212 -116 -328q-42 -41 -91.5 -67.5t-106.5 -37.5t-101.5 -14.5t-106.5 -3.5h-365zM1241 629l-51 -432h147q51 0 86.5 3t81.5 19t74 45
q28 30 43.5 76t15.5 92q0 102 -69 152q-63 45 -203 45h-125z" />
    <glyph glyph-name="afii10060" unicode="&#x40b;" horiz-adv-x="1419" 
d="M1139 1169h-451l-45 -364q127 14 238 14q256 0 368 -96q34 -30 55.5 -68.5t30.5 -71t10 -79t-1.5 -72t-8.5 -70.5l-45 -362h-209l43 340l6 49.5t2 51t-6.5 56t-22.5 47t-42 42.5q-59 41 -232 41q-91 0 -208 -15l-76 -612h-209l143 1169h-315l24 197h975z" />
    <glyph glyph-name="afii10061" unicode="&#x40c;" horiz-adv-x="1200" 
d="M541 1366l-68 -528l590 528h280l-696 -618l529 -748h-275l-414 606l-45 -41l-69 -565h-209l168 1366h209zM750 1489l-88 82l317 284l162 -122z" />
    <glyph glyph-name="afii10062" unicode="&#x40e;" horiz-adv-x="1144" 
d="M180 1366h223l277 -739l403 739h217l-765 -1366h-218l232 416zM416 1704l166 74q14 -48 49 -78q43 -37 121 -37q67 0 112 31q47 33 66 84l162 -74q-41 -94 -123 -148q-90 -61 -228 -61q-134 0 -219 64q-69 48 -106 145z" />
    <glyph glyph-name="afii10145" unicode="&#x40f;" horiz-adv-x="1310" 
d="M164 0l168 1366h209l-144 -1169h566l143 1169h209l-168 -1366h-393l-43 -340h-197l43 340h-393z" />
    <glyph glyph-name="afii10017" unicode="&#x410;" horiz-adv-x="1343" 
d="M1114 0l-102 330h-584l-190 -330h-230l858 1446l469 -1446h-221zM539 526h413l-147 463z" />
    <glyph glyph-name="afii10018" unicode="&#x411;" horiz-adv-x="1079" 
d="M164 0l168 1366h684l-25 -197h-475l-43 -354h135q205 0 316 -100q106 -96 106 -264q0 -203 -123 -326q-44 -43 -94 -70t-105 -38t-93 -14t-93 -3h-155h-203zM449 618l-52 -421h127q97 0 155.5 15t98.5 67q47 56 47 151q0 82 -41 125q-25 28 -68.5 43t-75 17.5t-79.5 2.5
h-112z" />
    <glyph glyph-name="afii10019" unicode="&#x412;" horiz-adv-x="1077" 
d="M332 1366h207q124 0 210.5 -23.5t145.5 -82.5q86 -89 86 -232q0 -106 -39 -178q-39 -75 -121 -119q93 -33 150 -106q59 -77 59 -189q0 -187 -108 -299q-44 -46 -99.5 -75.5t-119.5 -42t-111 -16t-109 -3.5h-116h-203zM516 1169l-47 -391h63q121 0 185 56q67 60 67 165
q0 74 -45 119q-51 51 -166 51h-57zM446 606l-49 -409h127q165 0 240 69q63 60 63 158q0 84 -61 133q-60 49 -188 49h-132z" />
    <glyph glyph-name="afii10020" unicode="&#x413;" horiz-adv-x="876" 
d="M164 0l168 1366h684l-25 -197h-475l-143 -1169h-209z" />
    <glyph glyph-name="afii10021" unicode="&#x414;" horiz-adv-x="1331" 
d="M463 1366h852l-144 -1169h156l-61 -504h-197l37 307h-881l-37 -307h-196l61 504q93 9 162 73q78 72 119 207q31 92 51 262zM647 1169l-53 -430q-30 -260 -88 -381q-45 -92 -125 -161h582l118 972h-434z" />
    <glyph glyph-name="afii10022" unicode="&#x415;" 
d="M1085 1366l-24 -197h-545l-41 -346h529l-25 -196h-528l-54 -430h545l-24 -197h-754l168 1366h753z" />
    <glyph glyph-name="afii10024" unicode="&#x416;" horiz-adv-x="1740" 
d="M930 1366h209l-68 -551l555 551h262l-653 -635l477 -731h-246l-389 602l-37 -37l-69 -565h-209l69 565l-24 37l-537 -602h-262l674 741l-485 627l245 -2l420 -551z" />
    <glyph glyph-name="afii10025" unicode="&#x417;" horiz-adv-x="1157" 
d="M385 1057l-129 133q84 91 172 139q110 60 266 60q215 0 326 -115q82 -86 82 -223q0 -110 -53 -191q-55 -82 -156 -125q78 -26 125 -71q90 -85 90 -236q0 -189 -121 -313q-45 -46 -97.5 -76.5t-108 -43t-95.5 -16.5t-90 -4q-103 0 -178.5 17.5t-147.5 68.5
q-123 88 -180 242l182 94q24 -93 93 -155q84 -74 223 -74q66 0 130.5 17t104.5 51q35 31 55.5 78.5t20.5 99.5q0 106 -80 161q-72 48 -221 48h-123l25 196h114q155 0 226 68q55 51 55 139q0 85 -61 129q-57 41 -164 41q-99 0 -168 -41q-68 -40 -117 -98z" />
    <glyph glyph-name="afii10026" unicode="&#x418;" horiz-adv-x="1458" 
d="M1085 0l113 920l-1042 -981l176 1427h209l-113 -924l1040 981l-174 -1423h-209z" />
    <glyph glyph-name="afii10027" unicode="&#x419;" horiz-adv-x="1458" 
d="M1085 0l113 920l-1042 -981l176 1427h209l-113 -924l1040 981l-174 -1423h-209zM608 1704l166 74q14 -48 49 -78q43 -37 121 -37q68 0 113 31q46 32 65 84l162 -74q-41 -94 -123 -148q-90 -61 -227 -61q-134 0 -219 64q-25 18 -56 54.5t-51 90.5z" />
    <glyph glyph-name="afii10028" unicode="&#x41a;" horiz-adv-x="1200" 
d="M541 1366l-68 -528l590 528h280l-696 -618l529 -748h-275l-414 606l-45 -41l-69 -565h-209l168 1366h209z" />
    <glyph glyph-name="afii10029" unicode="&#x41b;" horiz-adv-x="1323" 
d="M455 1366h872l-168 -1366h-209l144 1169h-455l-80 -643q-11 -92 -24 -157.5t-45 -144.5t-80 -130q-101 -106 -271 -106q-49 0 -110 14l24 193q31 -15 74 -15q82 0 133 53q41 42 60 113.5t34 204.5z" />
    <glyph glyph-name="afii10030" unicode="&#x41c;" horiz-adv-x="1744" 
d="M340 0h-217l467 1468l344 -1060l610 1060l78 -1468h-209l-39 823l-506 -886l-284 888z" />
    <glyph glyph-name="afii10031" unicode="&#x41d;" horiz-adv-x="1331" 
d="M541 1366l-66 -541h586l65 541h209l-168 -1366h-209l78 629h-585l-78 -629h-209l168 1366h209z" />
    <glyph glyph-name="afii10032" unicode="&#x41e;" horiz-adv-x="1630" 
d="M979 1391q282 0 461 -179q176 -174 176 -462q0 -347 -215 -566q-64 -65 -137.5 -109t-149 -65t-139.5 -29t-137 -8q-148 0 -263.5 40t-209.5 137q-85 86 -134 206t-49 258q0 161 60 310.5t164 251.5q102 102 251 158.5t322 56.5zM840 166q254 0 401 147q78 76 122 189.5
t44 234.5q0 195 -123 322q-61 63 -149.5 101t-196.5 38q-225 0 -379 -151q-76 -75 -123 -181.5t-47 -236.5q0 -200 127 -332q123 -131 324 -131z" />
    <glyph glyph-name="afii10033" unicode="&#x41f;" horiz-adv-x="1331" 
d="M332 1366h1003l-168 -1366h-209l144 1169h-586l-143 -1169h-209z" />
    <glyph glyph-name="afii10034" unicode="&#x420;" horiz-adv-x="985" 
d="M332 1366h293q219 0 329 -106q101 -97 101 -267q0 -190 -117 -307q-72 -72 -178 -101.5t-250 -29.5h-70l-67 -555h-209zM516 1174l-51 -426h78q170 0 241 63q70 60 70 170q0 93 -63 145q-59 48 -187 48h-88z" />
    <glyph glyph-name="afii10035" unicode="&#x421;" horiz-adv-x="1273" 
d="M1337 1292l-28 -245q-151 151 -375 151q-226 0 -371 -139q-78 -74 -125 -191.5t-47 -251.5q0 -195 119 -321q120 -129 321 -129q202 0 388 158l-29 -248q-113 -61 -201.5 -82t-175.5 -21q-135 0 -244 37.5t-204 132.5q-183 183 -183 473q0 343 226 566q216 209 540 209
q190 0 389 -99z" />
    <glyph glyph-name="afii10036" unicode="&#x422;" horiz-adv-x="876" 
d="M999 1169h-313l-143 -1169h-209l143 1169h-313l24 197h836z" />
    <glyph glyph-name="afii10037" unicode="&#x423;" horiz-adv-x="1144" 
d="M180 1366h223l277 -739l403 739h217l-765 -1366h-218l232 416z" />
    <glyph glyph-name="afii10038" unicode="&#x424;" horiz-adv-x="1701" 
d="M745 0l25 193h-14q-71 0 -143.5 10.5t-161 45t-146.5 89.5q-119 114 -119 313q0 264 160 428q89 92 214.5 135t301.5 43h37l21 164h208l-20 -164h14q46 0 94.5 -5.5t111.5 -19t125 -44.5t108 -76q131 -126 131 -336q0 -124 -42 -237.5t-120 -186.5q-167 -159 -529 -159
h-22l-25 -193h-209zM793 385l84 680h-41q-235 0 -347 -123q-94 -103 -94 -258q0 -120 72 -197q99 -102 305 -102h21zM1085 1065l-84 -680h25q232 0 342 102q54 51 83.5 127.5t29.5 151.5q0 128 -72 203q-54 55 -140 75.5t-159 20.5h-25z" />
    <glyph glyph-name="afii10039" unicode="&#x425;" horiz-adv-x="1105" 
d="M20 0l519 713l-297 653h221l209 -463l329 463h234l-473 -653l323 -713h-221l-235 522l-375 -522h-234z" />
    <glyph glyph-name="afii10040" unicode="&#x426;" horiz-adv-x="1351" 
d="M164 0l168 1366h209l-144 -1169h566l143 1169h209l-144 -1169h177l-62 -504h-196l36 307h-962z" />
    <glyph glyph-name="afii10041" unicode="&#x427;" horiz-adv-x="1245" 
d="M872 0l70 569q-107 -22 -248 -22q-220 0 -346 90q-106 82 -106 246q0 46 14 164l39 319h209l-39 -309q-12 -108 -12 -139q0 -87 57 -132q60 -47 211 -47q126 0 246 23l73 604h209l-168 -1366h-209z" />
    <glyph glyph-name="afii10042" unicode="&#x428;" horiz-adv-x="1921" 
d="M164 0l168 1366h209l-144 -1169h484l143 1169h209l-143 -1169h483l143 1169h209l-168 -1366h-1593z" />
    <glyph glyph-name="afii10043" unicode="&#x429;" horiz-adv-x="1961" 
d="M164 0l168 1366h209l-144 -1169h484l143 1169h209l-143 -1169h483l143 1169h209l-143 -1169h176l-62 -504h-196l37 307h-1573z" />
    <glyph glyph-name="afii10044" unicode="&#x42a;" horiz-adv-x="1216" 
d="M328 0l143 1169h-307l24 197h517l-68 -551h143q215 0 330 -104q59 -54 83 -117t24 -143q0 -211 -117 -328q-42 -41 -91.5 -67.5t-106.5 -37.5t-101.5 -14.5t-106.5 -3.5h-157h-209zM612 618l-51 -421h148q51 0 86.5 3t81 19t73.5 45q28 28 44 74.5t16 91.5q0 91 -70 143
q-63 45 -203 45h-125z" />
    <glyph glyph-name="afii10045" unicode="&#x42b;" horiz-adv-x="1515" 
d="M1311 1366h209l-168 -1366h-209zM164 0l170 1366h207l-68 -551h143q215 0 330 -104q59 -54 83 -117t24 -143q0 -211 -117 -328q-42 -41 -91.5 -67.5t-106.5 -37.5t-101.5 -14.5t-106.5 -3.5h-159h-207zM449 618l-52 -421h148q51 0 86.5 3t81 19t73.5 45q28 28 44 74.5
t16 91.5q0 91 -70 143q-63 45 -203 45h-124z" />
    <glyph glyph-name="afii10046" unicode="&#x42c;" horiz-adv-x="1052" 
d="M164 0l170 1366h207l-68 -551h143q215 0 330 -104q59 -54 83 -117t24 -143q0 -211 -117 -328q-42 -41 -91.5 -67.5t-106.5 -37.5t-101.5 -14.5t-106.5 -3.5h-159h-207zM449 618l-52 -421h148q51 0 86.5 3t81 19t73.5 45q28 28 44 74.5t16 91.5q0 91 -70 143
q-63 45 -203 45h-124z" />
    <glyph glyph-name="afii10047" unicode="&#x42d;" horiz-adv-x="1271" 
d="M219 1047l29 245q167 99 389 99q151 0 267 -45t190 -119q68 -68 115.5 -181t47.5 -274q0 -68 -10 -140t-33.5 -155t-71 -166t-112.5 -149q-105 -106 -233.5 -147.5t-290.5 -41.5q-99 0 -193.5 22t-203.5 85l28 244q143 -158 381 -158q215 0 346 123q56 53 98.5 134
t61.5 171h-676l25 197h671q-3 97 -40.5 176t-90.5 129q-110 102 -297 102q-238 0 -397 -151z" />
    <glyph glyph-name="afii10048" unicode="&#x42e;" horiz-adv-x="2062" 
d="M473 823h209q51 213 199 357q211 211 536 211q281 0 455 -174q96 -96 136 -209.5t40 -255.5q0 -353 -215 -570q-207 -209 -533 -209q-140 0 -253.5 41t-208.5 136q-183 183 -183 477h-204l-78 -627h-209l168 1366h209zM1319 166q210 0 354 147q78 78 122 190.5t44 237.5
q0 188 -123 320q-64 67 -149.5 102t-175.5 35q-99 0 -194.5 -38t-170.5 -113t-119.5 -180.5t-44.5 -231.5q0 -97 32.5 -187t90.5 -151q124 -131 334 -131z" />
    <glyph glyph-name="afii10049" unicode="&#x42f;" horiz-adv-x="1093" 
d="M41 0l475 569q-123 27 -199 109q-86 93 -86 237q0 190 101 304q42 48 97 79.5t117 45t110 18t106 4.5h336l-168 -1366h-209l67 547h-49l-440 -547h-258zM864 1174h-106q-192 0 -266 -74q-58 -58 -58 -162q0 -82 47 -129q29 -29 81.5 -46t89.5 -20.5t71 -3.5h88z" />
    <glyph glyph-name="afii10065" unicode="&#x430;" horiz-adv-x="1089" 
d="M856 762l12 100h201l-106 -862h-201l10 90q-58 -62 -115 -86q-74 -31 -157 -31q-146 0 -246 95q-53 52 -86 134t-33 177q0 104 38 207.5t112 177.5q121 121 315 121q91 0 158 -37q55 -28 98 -86zM610 705q-100 0 -172 -68q-42 -41 -69 -106.5t-27 -135.5q0 -109 68 -180
q58 -61 145 -61q113 0 188 75q42 43 65 107t23 129q0 115 -67 182q-58 58 -154 58z" />
    <glyph glyph-name="afii10066" unicode="&#x431;" horiz-adv-x="1085" 
d="M956 1454h205q-19 -71 -58.5 -127t-88.5 -88t-87.5 -49.5t-76.5 -26.5l-127 -33q-44 -11 -60.5 -16t-50.5 -18t-59.5 -32t-50.5 -46q-42 -45 -73 -114t-42 -140h2q107 121 277 121q84 0 161 -29t131 -80q113 -109 113 -295q0 -112 -38 -209t-105 -163
q-136 -136 -363 -136q-187 0 -299 115q-121 126 -121 326q0 156 70 405q32 116 75 204.5t120 160.5q99 91 227 123l147 34q33 8 48 13t44 17.5t48.5 33t31.5 49.5zM571 154q58 0 113 24t92 62q39 41 63.5 105.5t24.5 125.5q0 116 -67 176q-61 58 -164 58q-124 0 -201 -84
q-39 -42 -61.5 -103t-22.5 -125q0 -99 58 -166q63 -73 165 -73z" />
    <glyph glyph-name="afii10067" unicode="&#x432;" horiz-adv-x="907" 
d="M233 862h304q128 0 198 -41q88 -54 88 -162q0 -67 -37 -120q-37 -49 -88 -68q63 -17 105 -59q53 -55 53 -142q0 -116 -76 -188q-84 -82 -243 -82h-213h-197zM393 526h103q60 0 90 21q39 24 39 76q0 41 -39 61q-28 14 -84 14h-88zM348 164h164q62 0 98 22q47 26 47 80
t-36 76q-30 20 -93 20h-155z" />
    <glyph glyph-name="afii10068" unicode="&#x433;" horiz-adv-x="671" 
d="M127 0l106 862h529l-23 -184h-327l-84 -678h-201z" />
    <glyph glyph-name="afii10069" unicode="&#x434;" horiz-adv-x="995" 
d="M307 862h647l-84 -678h131l-53 -430h-184l31 246h-602l-31 -246h-185l54 430q78 7 133 62q74 74 100 278zM670 184l61 494h-254l-28 -229q-11 -98 -46 -162q-33 -59 -88 -103h355z" />
    <glyph glyph-name="afii10070" unicode="&#x435;" horiz-adv-x="1001" 
d="M772 291l158 -94q-60 -101 -160 -162q-105 -62 -242 -62q-170 0 -276 109q-117 117 -117 307q0 222 150 369q130 127 315 127q164 0 260 -101q50 -52 78.5 -130.5t28.5 -170.5q0 -46 -11 -100h-616q0 -47 16.5 -95t46.5 -79q51 -55 142 -55q76 0 137 39q57 38 90 98z
M371 547h401q-11 75 -51 119q-44 47 -125 47q-82 0 -145 -51q-52 -43 -80 -115z" />
    <glyph glyph-name="afii10072" unicode="&#x436;" horiz-adv-x="1273" 
d="M645 862h201l-39 -319l299 319h237l-382 -397l309 -465h-246l-217 346l-29 -29l-39 -317h-200l39 317l-17 29l-303 -346h-254l428 469l-285 393h238l221 -319z" />
    <glyph glyph-name="afii10073" unicode="&#x437;" horiz-adv-x="882" 
d="M305 633l-119 119q54 56 127 92q82 41 193 41q141 0 225 -60q90 -66 90 -178q0 -72 -39 -121q-38 -47 -102 -61q56 -16 102 -62q52 -55 52 -135q0 -118 -80 -198q-97 -97 -287 -97q-143 0 -231 56q-85 53 -132 149l162 82q24 -53 68 -86q51 -37 129 -37q72 0 117 31
q49 37 49 92t-45 82q-30 20 -101 20h-102l20 164h74q88 0 123 33q27 24 27 68q0 43 -37 69q-33 25 -99 25q-58 0 -106 -25q-40 -21 -78 -63z" />
    <glyph glyph-name="afii10074" unicode="&#x438;" horiz-adv-x="1044" 
d="M233 862h201l-61 -489l659 567l-114 -940h-201l61 502l-659 -568z" />
    <glyph glyph-name="afii10075" unicode="&#x439;" horiz-adv-x="1044" 
d="M233 862h201l-61 -489l659 567l-114 -940h-201l61 502l-659 -568zM344 1235l170 47q10 -57 47 -94q41 -39 109 -39q72 0 116 33q50 38 64 100l158 -47q-34 -113 -129 -180q-92 -62 -220 -62q-122 0 -204 66q-83 67 -111 176z" />
    <glyph glyph-name="afii10076" unicode="&#x43a;" horiz-adv-x="905" 
d="M233 862h201l-37 -295l320 295h270l-428 -377l338 -485h-250l-244 354l-36 -32l-39 -322h-201z" />
    <glyph glyph-name="afii10077" unicode="&#x43b;" horiz-adv-x="962" 
d="M942 862l-106 -862h-201l84 678h-254l-39 -309q-7 -53 -10.5 -74t-15.5 -66.5t-32.5 -79t-50.5 -63.5q-61 -60 -142.5 -78.5t-158.5 -7.5l23 184q42 -9 80.5 1t62.5 34q37 37 51 141l62 502h647z" />
    <glyph glyph-name="afii10078" unicode="&#x43c;" horiz-adv-x="1187" 
d="M29 0l323 940l277 -657l436 657l94 -940h-201l-32 432l-336 -498l-213 498l-139 -432h-209z" />
    <glyph glyph-name="afii10079" unicode="&#x43d;" horiz-adv-x="1011" 
d="M127 0l106 862h201l-39 -319h357l39 319h200l-106 -862h-201l43 358h-356l-43 -358h-201z" />
    <glyph glyph-name="afii10080" unicode="&#x43e;" horiz-adv-x="1093" 
d="M641 885q192 0 307 -115q117 -121 117 -299q0 -220 -150 -365q-75 -72 -160 -102.5t-194 -30.5q-93 0 -167 25t-140 92q-119 125 -119 301q0 109 40 201.5t110 159.5q139 133 356 133zM588 154q114 0 190 82q82 89 82 223q0 111 -67 180q-63 66 -164 66q-119 0 -195 -72
q-94 -88 -94 -225q0 -107 63 -179q14 -16 33.5 -30.5t61.5 -29.5t90 -15z" />
    <glyph glyph-name="afii10081" unicode="&#x43f;" horiz-adv-x="1003" 
d="M233 862h750l-106 -862h-201l84 678h-348l-84 -678h-201z" />
    <glyph glyph-name="afii10082" unicode="&#x440;" horiz-adv-x="1089" 
d="M340 100l-70 -569h-200l163 1331h201l-12 -94q41 55 102 82q71 35 154 35q80 0 153 -30t121 -81q109 -114 109 -293q0 -109 -40.5 -212t-105.5 -173q-119 -125 -286 -125q-117 0 -195 47q-50 31 -94 82zM631 705q-105 0 -172 -64q-44 -42 -69 -109.5t-25 -140.5
q0 -111 57 -170q64 -67 164 -67q101 0 170 69q43 43 70.5 108.5t27.5 133.5q0 106 -61 174q-60 66 -162 66z" />
    <glyph glyph-name="afii10083" unicode="&#x441;" horiz-adv-x="864" 
d="M899 811l-27 -217q-51 51 -102 78q-62 33 -127 33q-136 0 -219 -87q-82 -85 -82 -212q0 -59 20.5 -108.5t53.5 -80.5q66 -63 178 -63q76 0 139 30q64 36 98 74l-26 -225q-91 -60 -256 -60q-182 0 -293 111q-121 117 -121 313q0 211 144 355q136 133 352 133
q154 0 268 -74z" />
    <glyph glyph-name="afii10084" unicode="&#x442;" horiz-adv-x="737" 
d="M805 678h-252l-84 -678h-201l84 678h-252l23 184h704z" />
    <glyph glyph-name="afii10085" unicode="&#x443;" horiz-adv-x="987" 
d="M6 -469l410 629l-297 702h237l195 -485l301 485h229l-850 -1331h-225z" />
    <glyph glyph-name="afii10086" unicode="&#x444;" horiz-adv-x="1380" 
d="M532 -469l56 455q-94 6 -187.5 37.5t-158.5 99.5q-103 106 -103 262q0 97 35.5 186t101.5 152q81 78 196 115t226 39l60 489h200l-59 -489q92 -7 185 -41t157 -97q107 -107 107 -276q0 -207 -142 -342q-143 -135 -418 -135l-55 -455h-201zM610 166l66 530
q-74 4 -140 -19.5t-110 -66.5q-80 -80 -80 -196q0 -111 82 -181q72 -60 182 -67zM877 696l-66 -530q59 -2 122 13.5t105 47.5q50 38 77.5 100t27.5 132q0 122 -94 188q-73 49 -172 49z" />
    <glyph glyph-name="afii10087" unicode="&#x445;" horiz-adv-x="1015" 
d="M12 0l439 467l-258 395h233l160 -252l223 252h250l-367 -395l312 -467h-238l-209 322l-295 -322h-250z" />
    <glyph glyph-name="afii10088" unicode="&#x446;" horiz-adv-x="1028" 
d="M127 0l106 862h201l-84 -678h340l84 678h201l-84 -678h143l-53 -430h-184l30 246h-700z" />
    <glyph glyph-name="afii10089" unicode="&#x447;" horiz-adv-x="919" 
d="M592 0l41 340q-76 -25 -164 -25q-135 0 -217 62q-78 60 -78 162q0 40 10 110l27 213h201l-25 -198q-6 -48 -6 -70q0 -56 41 -82q37 -25 117 -25q57 0 116 23l43 352h201l-106 -862h-201z" />
    <glyph glyph-name="afii10090" unicode="&#x448;" horiz-adv-x="1429" 
d="M127 0l106 862h201l-84 -678h287l84 678h201l-84 -678h286l84 678h201l-106 -862h-1176z" />
    <glyph glyph-name="afii10091" unicode="&#x449;" horiz-adv-x="1462" 
d="M127 0l106 862h201l-84 -678h287l84 678h201l-84 -678h286l84 678h201l-84 -678h143l-53 -430h-184l31 246h-1135z" />
    <glyph glyph-name="afii10092" unicode="&#x44a;" horiz-adv-x="897" 
d="M201 0l84 678h-185l23 184h385l-39 -305h109q72 0 128.5 -14.5t106.5 -61.5q70 -67 70 -170q0 -140 -86 -223q-56 -54 -126.5 -71t-156.5 -17h-113h-200zM422 172h94q85 0 125 31q39 31 39 86q0 54 -43 78q-31 18 -98 18h-90z" />
    <glyph glyph-name="afii10093" unicode="&#x44b;" horiz-adv-x="1189" 
d="M862 0l107 862h200l-106 -862h-201zM127 0l104 862h203l-39 -305h109q72 0 128.5 -14.5t106.5 -61.5q70 -70 70 -176q0 -134 -86 -217q-56 -54 -126.5 -71t-156.5 -17h-116h-197zM348 172h94q85 0 125 31q39 31 39 86q0 54 -43 78q-31 18 -98 18h-90z" />
    <glyph glyph-name="afii10094" unicode="&#x44c;" horiz-adv-x="823" 
d="M127 0l104 862h203l-39 -305h109q72 0 128.5 -14.5t106.5 -61.5q70 -67 70 -170q0 -140 -86 -223q-56 -54 -126.5 -71t-156.5 -17h-116h-197zM348 172h94q85 0 125 31q39 31 39 86q0 54 -43 78q-31 18 -98 18h-90z" />
    <glyph glyph-name="afii10095" unicode="&#x44d;" horiz-adv-x="878" 
d="M156 643l22 191q109 51 244 51q206 0 321 -119q107 -109 107 -293q0 -117 -39.5 -213.5t-105.5 -161.5q-127 -125 -357 -125q-146 0 -264 54l25 190q107 -63 233 -63q117 0 184 51q72 57 88 151h-399l23 168h393q-16 94 -86 140q-62 41 -156 41q-118 0 -233 -62z" />
    <glyph glyph-name="afii10096" unicode="&#x44e;" horiz-adv-x="1437" 
d="M395 543h137q32 140 148 235q128 107 317 107q177 0 291 -107q121 -114 121 -301q0 -228 -143 -371q-75 -75 -159.5 -104t-191.5 -29q-220 0 -329 138q-82 104 -82 247h-133l-43 -358h-201l106 862h201zM983 705q-112 0 -188 -72q-43 -43 -68 -112.5t-25 -133.5
q0 -43 15 -91.5t43 -78.5q56 -63 166 -63q119 0 188 75q43 46 66.5 113t23.5 137q0 108 -63 168q-58 58 -158 58z" />
    <glyph glyph-name="afii10097" unicode="&#x44f;" horiz-adv-x="841" 
d="M16 0l299 342q-76 12 -125 61q-57 55 -57 160q0 133 74 209q30 31 68 51t82.5 27.5t74 9.5t72.5 2h317l-106 -862h-201l39 317h-33l-260 -317h-244zM573 481l25 209h-117q-83 0 -116 -20q-52 -29 -52 -97q0 -50 39 -73q31 -19 103 -19h118z" />
    <glyph glyph-name="afii10071" unicode="&#x451;" horiz-adv-x="1001" 
d="M772 291l158 -94q-60 -101 -160 -162q-105 -62 -242 -62q-170 0 -276 109q-117 117 -117 307q0 222 150 369q130 127 315 127q164 0 260 -101q50 -52 78.5 -130.5t28.5 -170.5q0 -46 -11 -100h-616q0 -47 16.5 -95t46.5 -79q51 -55 142 -55q76 0 137 39q57 38 90 98z
M371 547h401q-11 75 -51 119q-44 47 -125 47q-82 0 -145 -51q-52 -43 -80 -115zM358 1165q6 52 47.5 89.5t94.5 37.5q52 0 85 -37t27 -90q-8 -53 -49.5 -90t-93.5 -37q-53 0 -85.5 37.5t-25.5 89.5zM727 1165q6 53 47.5 90t93.5 37q53 0 86 -37.5t27 -89.5q-8 -53 -49.5 -90
t-93.5 -37q-53 0 -85.5 37.5t-25.5 89.5z" />
    <glyph glyph-name="afii10099" unicode="&#x452;" horiz-adv-x="995" 
d="M127 0l129 1049h-197l19 155h196l37 289h201l-37 -289h410l-19 -155h-409l-43 -342q33 37 86 63q65 33 147 33q131 0 205 -74q76 -76 76 -209q0 -46 -17 -178l-65 -518q-11 -88 -32 -144t-75 -96q-71 -55 -200 -55q-78 0 -138 18l23 181q46 -19 94 -19q57 0 90 33
q31 33 41 117l64 503q10 72 10 115q0 74 -39 111q-38 35 -102 35q-79 0 -127 -48q-38 -37 -57 -94.5t-29 -146.5l-41 -334h-201z" />
    <glyph glyph-name="afii10100" unicode="&#x453;" horiz-adv-x="671" 
d="M127 0l106 862h529l-23 -184h-327l-84 -678h-201zM713 1382l172 -94l-355 -295l-102 70z" />
    <glyph glyph-name="afii10101" unicode="&#x454;" horiz-adv-x="878" 
d="M899 823l-25 -207q-99 89 -239 89q-104 0 -176 -50q-70 -50 -90 -129h399l-20 -164h-400q4 -91 62 -149q63 -59 178 -59q138 0 239 94l-24 -211q-115 -64 -260 -64q-185 0 -297 115q-111 115 -111 297q0 111 39.5 206.5t104.5 160.5q133 133 348 133q150 0 272 -62z" />
    <glyph glyph-name="afii10102" unicode="&#x455;" horiz-adv-x="745" 
d="M725 733l-156 -98q-13 32 -41 53q-26 21 -61 21q-45 0 -70 -25q-18 -18 -18 -45q0 -31 24 -49q6 -5 84 -45l58 -29q68 -34 108 -74q66 -71 66 -178q0 -127 -86 -209q-88 -82 -242 -82q-117 0 -192 56q-76 57 -107 157l174 78q13 -53 47 -84q33 -30 84 -30t80 26
q33 26 33 76q0 43 -29 72q-18 18 -82 49l-55 28q-66 34 -98 66q-60 57 -60 149q0 113 78 191t213 78q88 0 150 -41q57 -37 98 -111z" />
    <glyph glyph-name="afii10103" unicode="&#x456;" horiz-adv-x="456" 
d="M233 862h201l-106 -862h-201zM246 1198q0 64 43 107t104 43q51 0 82 -31q33 -33 33 -78q0 -60 -41 -104q-42 -45 -109 -45q-49 0 -79 30q-33 29 -33 78z" />
    <glyph glyph-name="afii10104" unicode="&#x457;" horiz-adv-x="477" 
d="M244 862h200l-106 -862h-201zM526 1348q42 0 66 -35q20 -26 20 -68q0 -59 -30 -102q-32 -49 -84 -49q-38 0 -64 26t-26 78q0 33 13 66t34 53q34 31 71 31zM281 1348q41 0 65 -35q21 -27 21 -68q0 -52 -31 -102q-32 -49 -84 -49q-38 0 -64 26t-26 78q0 33 13 66t34 53
q34 31 72 31z" />
    <glyph glyph-name="afii10105" unicode="&#x458;" horiz-adv-x="456" 
d="M233 862h201l-164 -1331h-200zM248 1219q6 54 47.5 91.5t95.5 37.5t87.5 -37.5t27.5 -91.5q-8 -54 -50 -91.5t-96 -37.5t-86.5 37.5t-25.5 91.5z" />
    <glyph glyph-name="afii10106" unicode="&#x459;" horiz-adv-x="1331" 
d="M635 0l84 678h-254l-39 -309q-7 -53 -10.5 -74t-15.5 -66.5t-32.5 -79t-50.5 -63.5q-61 -60 -142.5 -78.5t-158.5 -7.5l23 184q42 -9 80.5 1t62.5 34q37 37 51 141l62 502h647l-39 -305h109q72 0 128.5 -14.5t106.5 -61.5q70 -67 70 -170q0 -140 -86 -223
q-56 -54 -126.5 -71t-156.5 -17h-121h-192zM856 172h94q85 0 125 31q39 31 39 86q0 54 -43 78q-31 18 -98 18h-90z" />
    <glyph glyph-name="afii10107" unicode="&#x45a;" horiz-adv-x="1380" 
d="M684 0l47 385h-356l-47 -385h-201l106 862h201l-39 -305h357l36 305h203l-39 -305h109q148 0 225 -65q80 -69 80 -183q0 -138 -86 -221q-56 -54 -126.5 -71t-156.5 -17h-110h-203zM905 172h94q85 0 125 31q39 31 39 86q0 54 -43 78q-31 18 -98 18h-90z" />
    <glyph glyph-name="afii10108" unicode="&#x45b;" horiz-adv-x="995" 
d="M127 0l129 1049h-197l19 155h196l37 289h201l-37 -289h410l-19 -155h-409l-43 -342q33 37 86 63q65 33 147 33q131 0 205 -74q76 -76 76 -209q0 -46 -17 -178l-43 -342h-200l45 362q10 78 10 115q0 74 -39 111q-38 35 -102 35q-79 0 -127 -48q-38 -37 -57 -94.5
t-29 -146.5l-41 -334h-201z" />
    <glyph glyph-name="afii10109" unicode="&#x45c;" horiz-adv-x="905" 
d="M233 862h201l-37 -295l320 295h270l-428 -377l338 -485h-250l-244 354l-36 -32l-39 -322h-201zM776 1382l172 -94l-354 -295l-102 70z" />
    <glyph glyph-name="afii10110" unicode="&#x45e;" horiz-adv-x="987" 
d="M6 -469l410 629l-297 702h237l195 -485l301 485h229l-850 -1331h-225zM301 1235l170 47q10 -57 47 -94q41 -39 109 -39q72 0 116 33q50 38 64 100l158 -47q-34 -113 -129 -180q-92 -62 -220 -62q-122 0 -204 66q-83 67 -111 176z" />
    <glyph glyph-name="afii10193" unicode="&#x45f;" horiz-adv-x="995" 
d="M127 0l106 862h201l-84 -678h340l84 678h201l-107 -862h-278l-33 -266h-184l33 266h-279z" />
    <glyph glyph-name="afii10146" unicode="&#x462;" horiz-adv-x="1216" 
d="M328 0l127 1030h-308l23 193h307l25 198h209l-25 -198h369l-23 -193h-368l-27 -215h143q215 0 330 -104q59 -54 83 -117t24 -143q0 -211 -117 -328q-42 -41 -91.5 -67.5t-106.5 -37.5t-101.5 -14.5t-106.5 -3.5h-366zM612 618l-51 -421h148q51 0 86.5 3t81 19t73.5 45
q28 28 44 74.5t16 91.5q0 91 -70 143q-63 45 -203 45h-125z" />
    <glyph glyph-name="afii10194" unicode="&#x463;" horiz-adv-x="897" 
d="M201 0l84 690h-185l23 172h184l62 504h196l-59 -504h248l-23 -172h-246l-16 -133h109q72 0 128.5 -14.5t106.5 -61.5q70 -67 70 -170q0 -140 -86 -223q-56 -54 -126.5 -71t-156.5 -17h-119h-194zM422 172h94q85 0 125 31q39 31 39 86q0 54 -43 78q-31 18 -98 18h-90z" />
    <glyph glyph-name="afii10147" unicode="&#x472;" horiz-adv-x="1630" 
d="M979 1391q282 0 461 -179q176 -174 176 -462q0 -347 -215 -566q-64 -65 -137.5 -109t-149 -65t-139.5 -29t-137 -8q-148 0 -263.5 40t-209.5 137q-85 86 -134 206t-49 258q0 161 60 310.5t164 251.5q104 103 251 159t322 56zM1389 588h-998q8 -167 125 -291
q126 -131 324 -131q247 0 401 147q117 113 148 275zM408 784h997q-15 164 -121 275q-61 63 -150 101t-196 38q-222 0 -379 -151q-113 -107 -151 -263z" />
    <glyph glyph-name="afii10195" unicode="&#x473;" horiz-adv-x="1093" 
d="M641 885q192 0 307 -115q117 -121 117 -299q0 -220 -150 -365q-75 -72 -160 -102.5t-194 -30.5q-93 0 -167 25t-140 92q-119 125 -119 301q0 109 40 201.5t110 159.5q139 133 356 133zM846 354h-500q11 -89 72 -143q62 -57 170 -57q103 0 170 55q69 58 88 145zM358 518
h496q-11 85 -74 135q-60 52 -157 52q-106 0 -181 -60q-59 -48 -84 -127z" />
    <glyph glyph-name="afii10148" unicode="&#x474;" horiz-adv-x="1228" 
d="M176 1366h221l265 -952l497 952h230l-785 -1454z" />
    <glyph glyph-name="afii10196" unicode="&#x475;" horiz-adv-x="917" 
d="M119 862h221l160 -491l282 491h230l-561 -923z" />
    <glyph glyph-name="afii10050" unicode="&#x490;" horiz-adv-x="876" 
d="M164 0l168 1366h487l37 307h197l-62 -504h-475l-143 -1169h-209z" />
    <glyph glyph-name="afii10098" unicode="&#x491;" horiz-adv-x="671" 
d="M127 0l106 862h345l28 246h185l-52 -430h-327l-84 -678h-201z" />
    <glyph glyph-name="uni0492" unicode="&#x492;" horiz-adv-x="876" 
d="M164 0l82 659h-185l21 177h184l66 530h684l-25 -197h-475l-41 -333h307l-20 -177h-307l-82 -659h-209z" />
    <glyph glyph-name="uni0493" unicode="&#x493;" horiz-adv-x="671" 
d="M127 0l43 344h-147l18 164h147l45 354h529l-23 -184h-327l-23 -170h205l-19 -164h-204l-43 -344h-201z" />
    <glyph glyph-name="uni0494" unicode="&#x494;" horiz-adv-x="1161" 
d="M967 1169h-451l-47 -381q136 48 274 48q200 0 306 -101q49 -47 80.5 -126.5t31.5 -186.5q0 -98 -33 -187t-92 -147q-107 -102 -309 -102q-89 0 -195 16l23 191q88 -15 152 -15q121 0 180 55q65 60 65 183q0 111 -53 166q-59 61 -182 61q-143 0 -271 -47l-73 -596h-209
l168 1366h659z" />
    <glyph glyph-name="uni0495" unicode="&#x495;" horiz-adv-x="983" 
d="M209 0l106 862h529l-23 -184h-327l-25 -195h35q201 0 305 -100q102 -97 102 -274q0 -258 -198 -412q-143 -108 -322 -123l23 184q98 14 168 74q55 45 87.5 117t32.5 153q0 106 -57 156q-52 45 -166 45h-33l-36 -303h-201z" />
    <glyph glyph-name="uni0496" unicode="&#x496;" horiz-adv-x="1761" 
d="M930 1366h209l-68 -551l555 551h262l-653 -635l348 -534h154l-62 -504h-196l37 307h-50l-389 602l-37 -37l-69 -565h-209l69 565l-24 37l-537 -602h-262l674 741l-485 625h245l420 -551z" />
    <glyph glyph-name="uni0497" unicode="&#x497;" horiz-adv-x="1286" 
d="M645 862h201l-39 -319l299 319h237l-382 -397l188 -281h143l-53 -430h-184l30 246h-61l-217 346l-29 -29l-39 -317h-200l39 317l-17 29l-303 -346h-254l428 469l-285 393h238l221 -319z" />
    <glyph glyph-name="uni0498" unicode="&#x498;" horiz-adv-x="1157" 
d="M385 1057l-129 133q84 91 172 139q110 60 266 60q215 0 326 -115q82 -86 82 -223q0 -110 -53 -191q-55 -82 -156 -125q78 -26 125 -71q90 -85 90 -236q0 -187 -119 -313q-121 -124 -303 -135l-41 -320h-196l40 320q-135 15 -245 106q-108 94 -154 217l182 94
q24 -93 93 -155q84 -74 223 -74q66 0 130.5 17t104.5 51q35 31 55.5 78.5t20.5 99.5q0 106 -80 161q-72 48 -221 48h-123l25 196h114q155 0 226 68q55 51 55 139q0 85 -61 129q-57 41 -164 41q-99 0 -168 -41q-68 -40 -117 -98z" />
    <glyph glyph-name="uni0499" unicode="&#x499;" horiz-adv-x="882" 
d="M305 633l-119 119q54 56 127 92q82 41 193 41q141 0 225 -60q90 -66 90 -178q0 -72 -39 -121q-38 -47 -102 -61q56 -16 102 -62q52 -55 52 -135q0 -124 -78 -202q-72 -77 -193 -82l-31 -250h-184l31 243q-86 13 -160 64q-76 54 -115 137l162 82q24 -53 68 -86
q51 -37 129 -37q72 0 117 31q49 37 49 92t-45 82q-30 20 -101 20h-102l20 164h74q88 0 123 33q27 24 27 68q0 43 -37 69q-33 25 -99 25q-58 0 -106 -25q-40 -21 -78 -63z" />
    <glyph glyph-name="uni049A" unicode="&#x49a;" horiz-adv-x="1191" 
d="M541 1366l-68 -541l584 541h270l-690 -625l387 -544h164l-62 -504h-196l37 307h-66l-414 606l-45 -41l-69 -565h-209l168 1366h209z" />
    <glyph glyph-name="uni049B" unicode="&#x49b;" horiz-adv-x="917" 
d="M233 862h201l-37 -295l320 295h270l-428 -377l211 -301h150l-54 -430h-184l31 246h-66l-244 354l-36 -32l-39 -322h-201z" />
    <glyph glyph-name="uni049C" unicode="&#x49c;" horiz-adv-x="1392" 
d="M332 1366h209l-68 -541h176l37 287h184l-36 -287l460 541h246l-541 -631l369 -735h-242l-315 641l-37 -307h-184l37 307h-176l-78 -641h-209z" />
    <glyph glyph-name="uni049D" unicode="&#x49d;" horiz-adv-x="1085" 
d="M233 862h201l-39 -311h123l25 205h164l-27 -217l274 323h234l-346 -389l231 -473h-225l-184 399l-29 -237h-164l27 225h-123l-47 -387h-201z" />
    <glyph glyph-name="uni04A0" unicode="&#x4a0;" horiz-adv-x="1417" 
d="M1393 0h-258l-414 606l-45 -41l-70 -565h-209l144 1169h-377l24 197h586l-67 -541l583 541h271l-691 -625z" />
    <glyph glyph-name="uni04A1" unicode="&#x4a1;" horiz-adv-x="1044" 
d="M467 0h-201l84 678h-250l23 184h450l-36 -295l319 295h270l-428 -377l338 -485h-250l-243 354l-37 -32z" />
    <glyph glyph-name="uni04A2" unicode="&#x4a2;" horiz-adv-x="1372" 
d="M164 0l168 1366h209l-66 -541h584l67 541h209l-143 -1169h176l-61 -504h-197l37 307h-189l76 629h-583l-78 -629h-209z" />
    <glyph glyph-name="uni04A3" unicode="&#x4a3;" horiz-adv-x="1044" 
d="M127 0l106 862h201l-39 -319h357l39 319h200l-84 -678h144l-54 -430h-184l31 246h-160l43 358h-356l-43 -358h-201z" />
    <glyph glyph-name="uni04A4" unicode="&#x4a4;" horiz-adv-x="1671" 
d="M164 0l168 1366h209l-66 -541h586l65 541h684l-24 -197h-475l-144 -1169h-209l78 629h-585l-78 -629h-209z" />
    <glyph glyph-name="uni04A5" unicode="&#x4a5;" horiz-adv-x="1228" 
d="M127 0l106 862h201l-39 -319h357l39 319h528l-23 -184h-327l-84 -678h-201l43 358h-356l-43 -358h-201z" />
    <glyph glyph-name="uni04AA" unicode="&#x4aa;" horiz-adv-x="1273" 
d="M1337 1292l-28 -245q-151 151 -375 151q-226 0 -371 -139q-78 -74 -125 -191.5t-47 -251.5q0 -192 119 -321q120 -129 321 -129q207 0 388 158l-29 -248q-126 -75 -270 -96l-39 -320h-197l39 320q-209 18 -358 163q-183 180 -183 475q0 345 226 564q216 209 540 209
q190 0 389 -99z" />
    <glyph glyph-name="uni04AB" unicode="&#x4ab;" horiz-adv-x="864" 
d="M899 811l-27 -217q-51 51 -102 78q-62 33 -127 33q-136 0 -219 -87q-82 -85 -82 -212q0 -59 20.5 -108.5t53.5 -80.5q66 -63 178 -63q76 0 139 30q64 36 98 74l-26 -225q-62 -41 -146 -51l-30 -248h-185l31 246q-148 17 -242 129q-98 116 -98 288q0 211 144 355
q136 133 352 133q154 0 268 -74z" />
    <glyph glyph-name="uni04AE" unicode="&#x4ae;" horiz-adv-x="1105" 
d="M449 0l71 590l-352 776h233l248 -547l383 547h242l-545 -776l-72 -590h-208z" />
    <glyph glyph-name="uni04AF" unicode="&#x4af;" horiz-adv-x="917" 
d="M119 862h221l162 -485l280 485h230l-434 -717l-76 -614h-201l76 614z" />
    <glyph glyph-name="uni04B0" unicode="&#x4b0;" horiz-adv-x="1105" 
d="M449 0l51 414h-389l20 176h389l-352 776h233l248 -547l383 547h242l-545 -776h389l-20 -176h-389l-52 -414h-208z" />
    <glyph glyph-name="uni04B1" unicode="&#x4b1;" horiz-adv-x="917" 
d="M119 862h221l162 -485l280 485h230l-434 -717l-15 -104h266l-20 -176h-266l-41 -334h-201l41 334h-266l20 176h266l15 104z" />
    <glyph glyph-name="uni04B2" unicode="&#x4b2;" horiz-adv-x="1155" 
d="M20 0l519 713l-297 653h221l209 -463l329 463h234l-473 -653l239 -516h156l-61 -504h-197l37 307h-72l-235 522l-375 -522h-234z" />
    <glyph glyph-name="uni04B3" unicode="&#x4b3;" horiz-adv-x="1019" 
d="M12 0l439 467l-258 395h233l160 -252l223 252h250l-367 -395l189 -283h145l-53 -430h-185l31 246h-53l-209 322l-295 -322h-250z" />
    <glyph glyph-name="uni04B6" unicode="&#x4b6;" horiz-adv-x="1288" 
d="M1063 0h-191l70 569q-107 -22 -248 -22q-220 0 -346 90q-106 82 -106 246q0 46 14 164l39 319h209l-39 -309q-12 -108 -12 -139q0 -87 57 -132q60 -47 211 -47q126 0 246 23l73 604h209l-141 -1169h176l-61 -504h-197z" />
    <glyph glyph-name="uni04B7" unicode="&#x4b7;" horiz-adv-x="950" 
d="M750 0h-158l41 340q-74 -25 -158 -25q-134 0 -213 54q-88 62 -88 176q0 28 10 104l27 213h201l-25 -198q-6 -48 -6 -72q0 -49 41 -80q40 -25 108 -25q57 0 125 23l43 352h201l-86 -678h143l-53 -430h-184z" />
    <glyph glyph-name="uni04B8" unicode="&#x4b8;" horiz-adv-x="1314" 
d="M942 0l70 561q-112 -16 -203 -16l-35 -279h-184l35 283q-65 2 -135.5 19.5t-118.5 47.5q-129 83 -129 261q0 58 16 180l37 309h209l-41 -336q-10 -95 -10 -121q0 -89 63 -133q53 -35 131 -35l39 303h184l-39 -309q99 0 203 19l76 612h209l-168 -1366h-209z" />
    <glyph glyph-name="uni04B9" unicode="&#x4b9;" horiz-adv-x="1081" 
d="M754 0l41 326q-92 -15 -142 -15l-22 -178h-164l22 180q-60 -3 -122 11t-101 41q-92 61 -92 184q0 39 10 117l25 196h201l-23 -186q-8 -76 -8 -82q0 -59 41 -82q39 -22 92 -18l29 233h164l-29 -240q71 -3 139 13l45 362h201l-107 -862h-200z" />
    <glyph glyph-name="uni04BA" unicode="&#x4ba;" horiz-adv-x="1247" 
d="M541 1366l-68 -541q136 15 238 15q254 0 368 -97q25 -22 43 -48.5t28.5 -48t16 -56t7.5 -51.5t0 -56.5t-3.5 -49.5t-5.5 -50l-47 -383h-209l45 360q11 98 4 138q-13 72 -67 108q-59 41 -232 41q-98 0 -208 -14l-78 -633h-209l168 1366h209z" />
    <glyph glyph-name="uni04BB" unicode="&#x4bb;" horiz-adv-x="995" 
d="M127 0l184 1493h201l-88 -705q35 39 86 64q65 33 147 33q131 0 205 -74q78 -78 78 -209q0 -35 -18 -178l-54 -424h-200l55 444q10 76 10 115q0 74 -39 111q-38 35 -102 35q-81 0 -129 -48q-63 -60 -84 -241l-51 -416h-201z" />
    <glyph glyph-name="uni04C0" unicode="&#x4c0;" horiz-adv-x="536" 
d="M332 1366h209l-168 -1366h-209z" />
    <glyph glyph-name="uni04C1" unicode="&#x4c1;" horiz-adv-x="1740" 
d="M930 1366h209l-68 -551l555 551h262l-653 -635l477 -731h-246l-389 602l-37 -37l-69 -565h-209l69 565l-24 37l-537 -602h-262l674 741l-485 627l245 -2l420 -551zM741 1704l166 74q14 -48 49 -78q43 -37 121 -37q68 0 113 31q46 32 65 84l162 -74q-41 -94 -123 -148
q-90 -61 -227 -61q-134 0 -219 64q-25 18 -56 54.5t-51 90.5z" />
    <glyph glyph-name="uni04C2" unicode="&#x4c2;" horiz-adv-x="1273" 
d="M645 862h201l-39 -319l299 319h237l-382 -397l309 -465h-246l-217 346l-29 -29l-39 -317h-200l39 317l-17 29l-303 -346h-254l428 469l-285 393h238l221 -319zM457 1235l170 47q10 -57 47 -94q41 -39 108 -39q73 0 117 33q50 38 64 100l157 -47q-34 -113 -129 -180
q-92 -62 -219 -62q-123 0 -205 66t-110 176z" />
    <glyph glyph-name="uni04C3" unicode="&#x4c3;" horiz-adv-x="1212" 
d="M541 1366l-68 -541l584 541h270l-606 -549q110 9 217 -22t172 -93q104 -97 104 -274q0 -110 -33.5 -200.5t-93.5 -147.5q-110 -103 -317 -103q-69 0 -117 11l23 192q36 -10 90 -10q56 0 98 11t78 48q62 66 62 177q0 114 -80 172q-70 49 -230 49q-50 0 -76.5 -1t-72.5 -8
t-99 -22l-73 -596h-209l168 1366h209z" />
    <glyph glyph-name="uni04C4" unicode="&#x4c4;" horiz-adv-x="911" 
d="M233 862h201l-41 -321l324 321h270l-424 -395q123 -19 201 -115q76 -95 76 -243q0 -258 -199 -412q-143 -108 -322 -123l23 184q100 15 168 74q58 49 89.5 119t31.5 147q0 108 -64 164q-60 53 -174 53h-24l-41 -315h-201z" />
    <glyph glyph-name="uni04C7" unicode="&#x4c7;" horiz-adv-x="1306" 
d="M164 0l168 1366h209l-66 -541h586l65 541h209l-186 -1522q-10 -82 -27.5 -140t-58.5 -99q-76 -76 -225 -76q-73 0 -156 18l23 191q47 -17 90 -17q67 0 100 33q23 23 36 65t13 83l92 727h-585l-78 -629h-209z" />
    <glyph glyph-name="uni04C8" unicode="&#x4c8;" horiz-adv-x="1011" 
d="M127 0l106 862h201l-39 -319h357l39 319h200l-129 -1038q-8 -59 -15.5 -93.5t-30 -76.5t-60.5 -70q-71 -55 -201 -55q-77 0 -137 18l22 181q46 -19 95 -19q57 0 90 33q31 33 41 117l61 499h-356l-43 -358h-201z" />
    <glyph glyph-name="uni04D0" unicode="&#x4d0;" horiz-adv-x="1343" 
d="M1114 0l-102 330h-584l-190 -330h-230l858 1446l469 -1446h-221zM539 526h413l-147 463zM543 1704l166 74q14 -48 49 -78q43 -37 121 -37q67 0 112 31q47 33 66 84l162 -74q-41 -94 -123 -148q-90 -61 -228 -61q-134 0 -219 64q-69 48 -106 145z" />
    <glyph glyph-name="uni04D1" unicode="&#x4d1;" horiz-adv-x="1089" 
d="M856 762l12 100h201l-106 -862h-201l10 90q-58 -62 -115 -86q-74 -31 -157 -31q-146 0 -246 95q-53 52 -86 134t-33 177q0 104 38 207.5t112 177.5q121 121 315 121q91 0 158 -37q55 -28 98 -86zM610 705q-100 0 -172 -68q-42 -41 -69 -106.5t-27 -135.5q0 -109 68 -180
q58 -61 145 -61q113 0 188 75q42 43 65 107t23 129q0 115 -67 182q-58 58 -154 58zM315 1235l170 47q10 -57 47 -94q41 -39 109 -39q73 0 117 33q49 37 63 100l158 -47q-34 -113 -129 -180q-92 -62 -219 -62q-123 0 -205 66q-83 67 -111 176z" />
    <glyph glyph-name="uni04D2" unicode="&#x4d2;" horiz-adv-x="1343" 
d="M1114 0l-102 330h-584l-190 -330h-230l858 1446l469 -1446h-221zM539 526h413l-147 463zM944 1614q0 57 43 100q41 41 103 41q48 0 77 -31q33 -33 33 -84q0 -60 -43 -100q-42 -39 -100 -39q-49 0 -80 31q-33 29 -33 82zM545 1614q0 57 43 100q41 41 102 41q49 0 78 -31
q33 -33 33 -84q0 -60 -43 -100q-42 -39 -101 -39q-48 0 -79 31q-33 29 -33 82z" />
    <glyph glyph-name="uni04D3" unicode="&#x4d3;" horiz-adv-x="1089" 
d="M856 762l12 100h201l-106 -862h-201l10 90q-58 -62 -115 -86q-74 -31 -157 -31q-146 0 -246 95q-53 52 -86 134t-33 177q0 104 38 207.5t112 177.5q121 121 315 121q91 0 158 -37q55 -28 98 -86zM610 705q-100 0 -172 -68q-42 -41 -69 -106.5t-27 -135.5q0 -109 68 -180
q58 -61 145 -61q113 0 188 75q42 43 65 107t23 129q0 115 -67 182q-58 58 -154 58zM338 1165q6 53 47.5 90t93.5 37q53 0 86 -37.5t27 -89.5q-8 -53 -49.5 -90t-93.5 -37q-53 0 -85.5 37.5t-25.5 89.5zM707 1165q6 53 47.5 90t93.5 37q53 0 86 -37.5t27 -89.5
q-8 -53 -50 -90t-94 -37q-53 0 -85 37.5t-25 89.5z" />
    <glyph glyph-name="uni04D4" unicode="&#x4d4;" horiz-adv-x="1896" 
d="M1118 0l-102 326h-580l-190 -326h-226l824 1366h604l61 -197h-542l104 -325h528l62 -197h-528l139 -450h543l61 -197h-758zM551 522h405l-139 445z" />
    <glyph glyph-name="uni04D5" unicode="&#x4d5;" horiz-adv-x="1560" 
d="M287 672l22 186q132 27 244 27q115 0 186 -31q68 -31 109 -88q55 51 117 78q93 41 194 41q161 0 260 -101q107 -113 107 -301q0 -51 -10 -100h-617q0 -47 17 -95t47 -79q51 -55 141 -55q76 0 137 39q57 38 90 98l158 -94q-60 -101 -160 -162q-102 -62 -242 -62
q-108 0 -190 39q-68 30 -121 101q-57 -72 -135 -105q-77 -35 -199 -35q-138 0 -225 66q-44 33 -73 87.5t-29 127.5q0 122 88 207q98 94 276 94q148 0 232 -57q4 18 4 49q0 82 -56 123q-47 35 -143 35q-110 0 -229 -33zM500 383q-99 0 -154 -47q-37 -32 -37 -80q0 -46 49 -80
q46 -31 117 -31q86 0 137 33q58 37 58 96q0 48 -45 78q-45 31 -125 31zM930 547h401q-11 75 -51 119q-44 47 -125 47q-82 0 -145 -51q-52 -43 -80 -115z" />
    <glyph glyph-name="uni04D6" unicode="&#x4d6;" 
d="M1085 1366l-24 -197h-545l-41 -346h529l-25 -196h-528l-54 -430h545l-24 -197h-754l168 1366h753zM403 1704l166 74q14 -48 49 -78q43 -37 121 -37q68 0 113 31q47 33 66 84l161 -74q-41 -94 -123 -148q-90 -61 -227 -61q-134 0 -219 64q-25 18 -56 54.5t-51 90.5z" />
    <glyph glyph-name="uni04D7" unicode="&#x4d7;" horiz-adv-x="1001" 
d="M772 291l158 -94q-60 -101 -160 -162q-105 -62 -242 -62q-170 0 -276 109q-117 117 -117 307q0 222 150 369q130 127 315 127q164 0 260 -101q50 -52 78.5 -130.5t28.5 -170.5q0 -46 -11 -100h-616q0 -47 16.5 -95t46.5 -79q51 -55 142 -55q76 0 137 39q57 38 90 98z
M371 547h401q-11 75 -51 119q-44 47 -125 47q-82 0 -145 -51q-52 -43 -80 -115zM301 1235l170 47q10 -57 47 -94q41 -39 109 -39q72 0 116 33q50 38 64 100l158 -47q-34 -113 -129 -180q-92 -62 -220 -62q-122 0 -204 66q-83 67 -111 176z" />
    <glyph glyph-name="uni04D8" unicode="&#x4d8;" horiz-adv-x="1536" 
d="M438 991l-166 123q100 115 250 199q150 78 338 78q147 0 260.5 -37t208.5 -129q193 -188 193 -494q0 -336 -195 -551q-100 -110 -222.5 -158.5t-281.5 -48.5q-304 0 -475 179q-86 89 -128 210t-42 248q0 16 1.5 38.5t3.5 47.5t3 35h1125q0 105 -37 194t-96 150
q-120 123 -324 123q-143 0 -250 -61q-87 -50 -166 -146zM1282 539h-885q11 -166 123 -271q109 -102 305 -102q191 0 308 100q119 103 149 273z" />
    <glyph glyph-name="afii10846" unicode="&#x4d9;" horiz-adv-x="1001" 
d="M141 496h623q-1 48 -20 90.5t-48 68.5q-55 47 -139 47q-78 0 -129 -32q-44 -27 -78 -72l-182 61q64 106 168 166q105 60 231 60q177 0 287 -103q119 -112 119 -301q0 -119 -38 -223t-104 -170q-68 -68 -144 -91.5t-165 -23.5q-84 0 -149.5 21t-120.5 76
q-117 117 -117 327q0 47 6 99zM741 332h-407q7 -83 57 -137q50 -50 135 -50q87 0 140 45q8 6 20.5 19.5t30.5 48t24 74.5z" />
    <glyph glyph-name="uni04DA" unicode="&#x4da;" horiz-adv-x="1536" 
d="M438 991l-166 123q100 115 250 199q150 78 338 78q147 0 260.5 -37t208.5 -129q193 -188 193 -494q0 -336 -195 -551q-100 -110 -222.5 -158.5t-281.5 -48.5q-304 0 -475 179q-86 89 -128 210t-42 248q0 16 1.5 38.5t3.5 47.5t3 35h1125q0 105 -37 194t-96 150
q-120 123 -324 123q-143 0 -250 -61q-87 -50 -166 -146zM1282 539h-885q11 -166 123 -271q109 -102 305 -102q191 0 308 100q119 103 149 273zM969 1614q0 57 43 100q41 41 102 41q49 0 78 -31q33 -33 33 -84q0 -60 -43 -100q-42 -39 -101 -39q-49 0 -80 31q-32 28 -32 82z
M569 1614q0 57 43 100q41 41 103 41q49 0 78 -31q32 -32 32 -84q0 -60 -43 -100q-42 -39 -100 -39q-49 0 -80 31q-33 29 -33 82z" />
    <glyph glyph-name="uni04DB" unicode="&#x4db;" horiz-adv-x="1001" 
d="M141 496h623q-1 48 -20 90.5t-48 68.5q-55 47 -139 47q-78 0 -129 -32q-44 -27 -78 -72l-182 61q64 106 168 166q105 60 231 60q177 0 287 -103q119 -112 119 -301q0 -119 -38 -223t-104 -170q-68 -68 -144 -91.5t-165 -23.5q-84 0 -149.5 21t-120.5 76
q-117 117 -117 327q0 47 6 99zM741 332h-407q7 -83 57 -137q50 -50 135 -50q87 0 140 45q8 6 20.5 19.5t30.5 48t24 74.5zM297 1165q6 53 47.5 90t93.5 37q53 0 86 -37.5t27 -89.5q-8 -53 -49.5 -90t-93.5 -37q-53 0 -85.5 37.5t-25.5 89.5zM666 1165q6 53 47.5 90t93.5 37
q53 0 86 -37.5t27 -89.5q-8 -53 -50 -90t-94 -37q-53 0 -85 37.5t-25 89.5z" />
    <glyph glyph-name="uni04DC" unicode="&#x4dc;" horiz-adv-x="1740" 
d="M930 1366h209l-68 -551l555 551h262l-653 -635l477 -731h-246l-389 602l-37 -37l-69 -565h-209l69 565l-24 37l-537 -602h-262l674 741l-485 627l245 -2l420 -551zM1124 1614q0 57 43 100q41 41 103 41q49 0 78 -31q32 -32 32 -84q0 -60 -43 -100q-42 -39 -100 -39
q-49 0 -80 31q-33 29 -33 82zM725 1614q0 57 43 100q41 41 102 41q49 0 78 -31q33 -33 33 -84q0 -60 -43 -100q-42 -39 -100 -39q-49 0 -80 31q-33 29 -33 82z" />
    <glyph glyph-name="uni04DD" unicode="&#x4dd;" horiz-adv-x="1273" 
d="M645 862h201l-39 -319l299 319h237l-382 -397l309 -465h-246l-217 346l-29 -29l-39 -317h-200l39 317l-17 29l-303 -346h-254l428 469l-285 393h238l221 -319zM465 1165q6 53 47.5 90t93.5 37q53 0 86 -37.5t27 -89.5q-8 -53 -50 -90t-94 -37q-53 0 -85 37.5t-25 89.5z
M834 1165q6 53 47.5 90t93.5 37t85 -37t27 -90q-8 -53 -49.5 -90t-93.5 -37q-53 0 -85 37.5t-25 89.5z" />
    <glyph glyph-name="uni04DE" unicode="&#x4de;" horiz-adv-x="1157" 
d="M385 1057l-129 133q84 91 172 139q110 60 266 60q215 0 326 -115q82 -86 82 -223q0 -110 -53 -191q-55 -82 -156 -125q78 -26 125 -71q90 -85 90 -236q0 -189 -121 -313q-45 -46 -97.5 -76.5t-108 -43t-95.5 -16.5t-90 -4q-103 0 -178.5 17.5t-147.5 68.5
q-123 88 -180 242l182 94q24 -93 93 -155q84 -74 223 -74q66 0 130.5 17t104.5 51q35 31 55.5 78.5t20.5 99.5q0 106 -80 161q-72 48 -221 48h-123l25 196h114q155 0 226 68q55 51 55 139q0 85 -61 129q-57 41 -164 41q-99 0 -168 -41q-68 -40 -117 -98zM825 1614
q0 57 43 100q41 41 103 41q49 0 78 -31q32 -32 32 -84q0 -60 -43 -100q-42 -39 -100 -39q-49 0 -80 31q-33 29 -33 82zM426 1614q0 57 43 100q41 41 102 41q49 0 78 -31q33 -33 33 -84q0 -60 -43 -100q-42 -39 -100 -39q-49 0 -80 31q-33 29 -33 82z" />
    <glyph glyph-name="uni04DF" unicode="&#x4df;" horiz-adv-x="882" 
d="M305 633l-119 119q54 56 127 92q82 41 193 41q141 0 225 -60q90 -66 90 -178q0 -72 -39 -121q-38 -47 -102 -61q56 -16 102 -62q52 -55 52 -135q0 -118 -80 -198q-97 -97 -287 -97q-143 0 -231 56q-85 53 -132 149l162 82q24 -53 68 -86q51 -37 129 -37q72 0 117 31
q49 37 49 92t-45 82q-30 20 -101 20h-102l20 164h74q88 0 123 33q27 24 27 68q0 43 -37 69q-33 25 -99 25q-58 0 -106 -25q-40 -21 -78 -63zM256 1165q6 53 47.5 90t93.5 37q53 0 86 -37.5t27 -89.5q-8 -53 -49.5 -90t-93.5 -37q-53 0 -85.5 37.5t-25.5 89.5zM625 1165
q6 53 47.5 90t93.5 37q53 0 86 -37.5t27 -89.5q-8 -53 -50 -90t-94 -37q-53 0 -85 37.5t-25 89.5z" />
    <glyph glyph-name="uni04E2" unicode="&#x4e2;" horiz-adv-x="1458" 
d="M1085 0l113 920l-1042 -981l176 1427h209l-113 -924l1040 981l-174 -1423h-209zM561 1501l21 164h737l-21 -164h-737z" />
    <glyph glyph-name="uni04E3" unicode="&#x4e3;" horiz-adv-x="1044" 
d="M233 862h201l-61 -489l659 567l-114 -940h-201l61 502l-659 -568zM301 1040l21 160h675l-20 -160h-676z" />
    <glyph glyph-name="uni04E4" unicode="&#x4e4;" horiz-adv-x="1458" 
d="M1085 0l113 920l-1042 -981l176 1427h209l-113 -924l1040 981l-174 -1423h-209zM1018 1614q0 57 43 100q41 41 102 41q49 0 78 -31q33 -33 33 -84q0 -60 -43 -100q-42 -39 -101 -39q-48 0 -79 31q-33 29 -33 82zM618 1614q0 56 44 100q41 41 102 41q49 0 78 -31
q32 -32 32 -84q0 -60 -43 -100q-42 -39 -100 -39q-49 0 -80 31q-33 29 -33 82z" />
    <glyph glyph-name="uni04E5" unicode="&#x4e5;" horiz-adv-x="1044" 
d="M233 862h201l-61 -489l659 567l-114 -940h-201l61 502l-659 -568zM348 1165q6 53 47.5 90t93.5 37q53 0 86 -37.5t27 -89.5q-8 -53 -49.5 -90t-93.5 -37q-53 0 -85.5 37.5t-25.5 89.5zM717 1165q6 53 47.5 90t93.5 37q53 0 86 -37.5t27 -89.5q-8 -53 -50 -90t-94 -37
q-53 0 -85 37.5t-25 89.5z" />
    <glyph glyph-name="uni04E6" unicode="&#x4e6;" horiz-adv-x="1630" 
d="M979 1391q282 0 461 -179q176 -174 176 -462q0 -347 -215 -566q-64 -65 -137.5 -109t-149 -65t-139.5 -29t-137 -8q-148 0 -263.5 40t-209.5 137q-85 86 -134 206t-49 258q0 161 60 310.5t164 251.5q102 102 251 158.5t322 56.5zM840 166q254 0 401 147q78 76 122 189.5
t44 234.5q0 195 -123 322q-61 63 -149.5 101t-196.5 38q-225 0 -379 -151q-76 -75 -123 -181.5t-47 -236.5q0 -200 127 -332q123 -131 324 -131zM1051 1614q0 57 43 100q41 41 102 41q49 0 78 -31q33 -33 33 -84q0 -60 -43 -100q-42 -39 -101 -39q-49 0 -80 31
q-32 28 -32 82zM651 1614q0 57 43 100q41 41 103 41q48 0 77 -31q33 -33 33 -84q0 -60 -43 -100q-42 -39 -100 -39q-49 0 -80 31q-33 29 -33 82z" />
    <glyph glyph-name="uni04E7" unicode="&#x4e7;" horiz-adv-x="1093" 
d="M641 885q192 0 307 -115q117 -121 117 -299q0 -220 -150 -365q-75 -72 -160 -102.5t-194 -30.5q-93 0 -167 25t-140 92q-119 125 -119 301q0 109 40 201.5t110 159.5q139 133 356 133zM588 154q114 0 190 82q82 89 82 223q0 111 -67 180q-63 66 -164 66q-119 0 -195 -72
q-94 -88 -94 -225q0 -107 63 -179q14 -16 33.5 -30.5t61.5 -29.5t90 -15zM348 1165q6 53 47.5 90t93.5 37q53 0 86 -37.5t27 -89.5q-8 -53 -49.5 -90t-93.5 -37q-53 0 -85.5 37.5t-25.5 89.5zM717 1165q6 53 47.5 90t93.5 37q53 0 86 -37.5t27 -89.5q-8 -53 -50 -90t-94 -37
q-53 0 -85 37.5t-25 89.5z" />
    <glyph glyph-name="uni04E8" unicode="&#x4e8;" horiz-adv-x="1630" 
d="M979 1391q282 0 461 -179q176 -174 176 -462q0 -347 -215 -566q-64 -65 -137.5 -109t-149 -65t-139.5 -29t-137 -8q-148 0 -263.5 40t-209.5 137q-85 86 -134 206t-49 258q0 161 60 310.5t164 251.5q104 103 251 159t322 56zM1389 588h-998q8 -167 125 -291
q126 -131 324 -131q247 0 401 147q117 113 148 275zM408 784h997q-15 164 -121 275q-61 63 -150 101t-196 38q-222 0 -379 -151q-113 -107 -151 -263z" />
    <glyph glyph-name="uni04E9" unicode="&#x4e9;" horiz-adv-x="1093" 
d="M641 885q192 0 307 -115q117 -121 117 -299q0 -220 -150 -365q-75 -72 -160 -102.5t-194 -30.5q-93 0 -167 25t-140 92q-119 125 -119 301q0 109 40 201.5t110 159.5q139 133 356 133zM846 354h-500q11 -89 72 -143q62 -57 170 -57q103 0 170 55q69 58 88 145zM358 518
h496q-11 85 -74 135q-60 52 -157 52q-106 0 -181 -60q-59 -48 -84 -127z" />
    <glyph glyph-name="uni04EA" unicode="&#x4ea;" horiz-adv-x="1630" 
d="M979 1391q282 0 461 -179q176 -174 176 -462q0 -347 -215 -566q-64 -65 -137.5 -109t-149 -65t-139.5 -29t-137 -8q-148 0 -263.5 40t-209.5 137q-85 86 -134 206t-49 258q0 161 60 310.5t164 251.5q104 103 251 159t322 56zM1389 588h-998q8 -167 125 -291
q126 -131 324 -131q247 0 401 147q117 113 148 275zM408 784h997q-15 164 -121 275q-61 63 -150 101t-196 38q-222 0 -379 -151q-113 -107 -151 -263zM1051 1614q0 57 43 100q41 41 102 41q49 0 78 -31q33 -33 33 -84q0 -60 -43 -100q-42 -39 -101 -39q-49 0 -80 31
q-32 28 -32 82zM651 1614q0 57 43 100q41 41 103 41q48 0 77 -31q33 -33 33 -84q0 -60 -43 -100q-42 -39 -100 -39q-49 0 -80 31q-33 29 -33 82z" />
    <glyph glyph-name="uni04EB" unicode="&#x4eb;" horiz-adv-x="1093" 
d="M641 885q192 0 307 -115q117 -121 117 -299q0 -220 -150 -365q-75 -72 -160 -102.5t-194 -30.5q-93 0 -167 25t-140 92q-119 125 -119 301q0 109 40 201.5t110 159.5q139 133 356 133zM846 354h-500q11 -89 72 -143q62 -57 170 -57q103 0 170 55q69 58 88 145zM358 518
h496q-11 85 -74 135q-60 52 -157 52q-106 0 -181 -60q-59 -48 -84 -127zM348 1165q6 53 47.5 90t93.5 37q53 0 86 -37.5t27 -89.5q-8 -53 -49.5 -90t-93.5 -37q-53 0 -85.5 37.5t-25.5 89.5zM717 1165q6 53 47.5 90t93.5 37q53 0 86 -37.5t27 -89.5q-8 -53 -50 -90t-94 -37
q-53 0 -85 37.5t-25 89.5z" />
    <glyph glyph-name="uni04EE" unicode="&#x4ee;" horiz-adv-x="1144" 
d="M180 1366h223l277 -739l403 739h217l-765 -1366h-218l232 416zM377 1501l20 164h738l-21 -164h-737z" />
    <glyph glyph-name="uni04EF" unicode="&#x4ef;" horiz-adv-x="987" 
d="M6 -469l410 629l-297 702h237l195 -485l301 485h229l-850 -1331h-225zM268 1040l21 160h676l-21 -160h-676z" />
    <glyph glyph-name="uni04F0" unicode="&#x4f0;" horiz-adv-x="1144" 
d="M180 1366h223l277 -739l403 739h217l-765 -1366h-218l232 416zM834 1614q0 57 43 100q41 41 102 41q49 0 78 -31q33 -33 33 -84q0 -60 -43 -100q-42 -39 -101 -39q-49 0 -80 31q-32 28 -32 82zM434 1614q0 57 43 100q41 41 103 41q48 0 77 -31q33 -33 33 -84
q0 -60 -43 -100q-42 -39 -100 -39q-49 0 -80 31q-33 29 -33 82z" />
    <glyph glyph-name="uni04F1" unicode="&#x4f1;" horiz-adv-x="987" 
d="M6 -469l410 629l-297 702h237l195 -485l301 485h229l-850 -1331h-225zM319 1165q6 52 47.5 89.5t94.5 37.5q52 0 85 -37t27 -90q-8 -53 -49.5 -90t-93.5 -37q-53 0 -85.5 37.5t-25.5 89.5zM688 1165q6 53 47.5 90t93.5 37q53 0 86 -37.5t27 -89.5q-8 -53 -49.5 -90
t-93.5 -37q-53 0 -85.5 37.5t-25.5 89.5z" />
    <glyph glyph-name="uni04F2" unicode="&#x4f2;" horiz-adv-x="1144" 
d="M180 1366h223l277 -739l403 739h217l-765 -1366h-218l232 416zM702 1855l148 -106l-352 -260l-80 74zM1112 1855l148 -106l-353 -260l-80 74z" />
    <glyph glyph-name="uni04F3" unicode="&#x4f3;" horiz-adv-x="987" 
d="M6 -469l410 629l-297 702h237l195 -485l301 485h229l-850 -1331h-225zM604 1382l156 -94l-334 -295l-78 70zM973 1382l155 -94l-333 -295l-78 70z" />
    <glyph glyph-name="uni04F4" unicode="&#x4f4;" horiz-adv-x="1245" 
d="M872 0l70 569q-107 -22 -248 -22q-220 0 -346 90q-106 82 -106 246q0 46 14 164l39 319h209l-39 -309q-12 -108 -12 -139q0 -87 57 -132q60 -47 211 -47q126 0 246 23l73 604h209l-168 -1366h-209zM872 1614q0 57 43 100q41 41 103 41q49 0 78 -31q32 -32 32 -84
q0 -60 -43 -100q-42 -39 -100 -39q-49 0 -80 31q-33 29 -33 82zM473 1614q0 57 43 100q41 41 102 41q49 0 78 -31q33 -33 33 -84q0 -60 -43 -100q-42 -39 -100 -39q-49 0 -80 31q-33 29 -33 82z" />
    <glyph glyph-name="uni04F5" unicode="&#x4f5;" horiz-adv-x="919" 
d="M592 0l41 340q-76 -25 -164 -25q-135 0 -217 62q-78 60 -78 162q0 40 10 110l27 213h201l-25 -198q-6 -48 -6 -70q0 -56 41 -82q37 -25 117 -25q57 0 116 23l43 352h201l-106 -862h-201zM276 1165q6 52 47.5 89.5t94.5 37.5q52 0 85 -37t27 -90q-8 -53 -49.5 -90
t-93.5 -37q-53 0 -85.5 37.5t-25.5 89.5zM645 1165q6 53 47.5 90t93.5 37q53 0 86 -37.5t27 -89.5q-8 -53 -49.5 -90t-93.5 -37q-53 0 -85.5 37.5t-25.5 89.5z" />
    <glyph glyph-name="uni04F8" unicode="&#x4f8;" horiz-adv-x="1515" 
d="M1311 1366h209l-168 -1366h-209zM164 0l170 1366h207l-68 -551h143q215 0 330 -104q59 -54 83 -117t24 -143q0 -211 -117 -328q-42 -41 -91.5 -67.5t-106.5 -37.5t-101.5 -14.5t-106.5 -3.5h-159h-207zM449 618l-52 -421h148q51 0 86.5 3t81 19t73.5 45q28 28 44 74.5
t16 91.5q0 91 -70 143q-63 45 -203 45h-124zM1020 1614q0 57 43 100q41 41 102 41q49 0 78 -31q33 -33 33 -84q0 -60 -43 -100q-42 -39 -100 -39q-49 0 -80 31q-33 29 -33 82zM621 1614q0 57 43 100q41 41 102 41q49 0 78 -31q33 -33 33 -84q0 -60 -43 -100
q-42 -39 -101 -39q-49 0 -80 31q-32 28 -32 82z" />
    <glyph glyph-name="uni04F9" unicode="&#x4f9;" horiz-adv-x="1189" 
d="M862 0l107 862h200l-106 -862h-201zM127 0l104 862h203l-39 -305h109q72 0 128.5 -14.5t106.5 -61.5q70 -70 70 -176q0 -134 -86 -217q-56 -54 -126.5 -71t-156.5 -17h-116h-197zM348 172h94q85 0 125 31q39 31 39 86q0 54 -43 78q-31 18 -98 18h-90zM410 1165
q6 53 47.5 90t93.5 37q53 0 86 -37.5t27 -89.5q-8 -53 -50 -90t-94 -37q-53 0 -85 37.5t-25 89.5zM778 1165q6 52 47.5 89.5t94.5 37.5q52 0 85 -37t27 -90q-8 -53 -49.5 -90t-93.5 -37q-53 0 -85.5 37.5t-25.5 89.5z" />
    <glyph glyph-name="uni1E9E" unicode="&#x1e9e;" horiz-adv-x="1177" 
d="M164 0l115 920q15 123 53.5 212.5t118.5 157.5q117 101 286 101q159 0 258 -80q56 -44 95.5 -118.5t39.5 -162.5l-262 -231q113 -33 191 -123q72 -82 69 -209q0 -225 -202 -373q-83 -60 -172 -86t-201 -37l25 197q141 7 235 80q47 37 78 90t31 117q0 96 -76 159
q-65 54 -207 62l16 123l246 233q-6 79 -57 127q-48 43 -131 43q-34 0 -77 -18.5t-67 -46.5q-68 -79 -84 -222l-112 -915h-209z" />
    <glyph glyph-name="uni2010" unicode="&#x2010;" horiz-adv-x="696" 
d="M143 332l25 209h491l-24 -209h-492z" />
    <glyph glyph-name="uni2011" unicode="&#x2011;" horiz-adv-x="696" 
d="M143 332l25 209h491l-24 -209h-492z" />
    <glyph glyph-name="figuredash" unicode="&#x2012;" horiz-adv-x="1269" 
d="M186 602l23 184h983l-23 -184h-983z" />
    <glyph glyph-name="endash" unicode="&#x2013;" horiz-adv-x="1269" 
d="M186 344l23 184h983l-23 -184h-983z" />
    <glyph glyph-name="emdash" unicode="&#x2014;" horiz-adv-x="1720" 
d="M186 344l23 184h1433l-22 -184h-1434z" />
    <glyph glyph-name="afii00208" unicode="&#x2015;" horiz-adv-x="1720" 
d="M186 344l23 184h1433l-22 -184h-1434z" />
    <glyph glyph-name="quoteleft" unicode="&#x2018;" horiz-adv-x="593" 
d="M659 1370l-272 -520l-172 70l315 505z" />
    <glyph glyph-name="quoteright" unicode="&#x2019;" horiz-adv-x="696" 
d="M213 915l272 521l172 -70l-315 -506z" />
    <glyph glyph-name="quotesinglbase" unicode="&#x201a;" horiz-adv-x="696" 
d="M70 -264l272 520l172 -70l-315 -505z" />
    <glyph glyph-name="quotedblleft" unicode="&#x201c;" horiz-adv-x="946" 
d="M1012 1370l-273 -520l-168 70l314 505zM655 1370l-272 -520l-168 70l313 505z" />
    <glyph glyph-name="quotedblright" unicode="&#x201d;" horiz-adv-x="1048" 
d="M213 915l272 521l168 -70l-313 -506zM569 915l273 521l168 -70l-314 -506z" />
    <glyph glyph-name="quotedblbase" unicode="&#x201e;" horiz-adv-x="1048" 
d="M70 -264l272 520l168 -70l-313 -505zM426 -264l272 520l168 -70l-313 -505z" />
    <glyph glyph-name="dagger" unicode="&#x2020;" horiz-adv-x="1161" 
d="M625 1057l55 436h201l-56 -436h283l-23 -193h-282l-152 -1226h-200l151 1226h-283l23 193h283z" />
    <glyph glyph-name="daggerdbl" unicode="&#x2021;" horiz-adv-x="1159" 
d="M623 1057l55 436h201l-56 -436h283l-23 -193h-282l-64 -514h283l-25 -192h-282l-64 -520h-200l63 520h-283l25 192h283l63 514h-283l23 193h283z" />
    <glyph glyph-name="bullet" unicode="&#x2022;" horiz-adv-x="2048" 
d="M821 659q0 54 23 112t63 103q46 51 108.5 80t129.5 29q104 0 180 -72q74 -74 74 -180q0 -126 -94 -223q-98 -98 -232 -98q-113 0 -182 73q-70 73 -70 176z" />
    <glyph glyph-name="ellipsis" unicode="&#x2026;" horiz-adv-x="1640" 
d="M176 86q0 54 37 94q36 41 100 41q49 0 80 -31q33 -29 33 -81q0 -56 -41 -97q-37 -37 -94 -37q-53 0 -82 29q-33 29 -33 82zM709 86q0 55 36 94q36 41 101 41q49 0 80 -31q32 -28 32 -81q0 -57 -40 -97q-37 -37 -95 -37q-53 0 -82 29q-32 28 -32 82zM1241 86q0 54 37 94
q36 41 100 41q49 0 80 -31q33 -29 33 -81q0 -56 -41 -97q-37 -37 -94 -37q-53 0 -82 29q-33 29 -33 82z" />
    <glyph glyph-name="perthousand" unicode="&#x2030;" horiz-adv-x="2463" 
d="M397 37l946 1352l91 -56l-947 -1356zM1321 629q139 0 229 -90q82 -82 82 -209q0 -150 -102 -252q-95 -92 -244 -92q-147 0 -233 86t-86 213q0 136 102 241q98 103 252 103zM1290 133q80 0 127 51q26 26 41 65t15 77q0 72 -50 116q-42 39 -108 39q-81 0 -131 -53
q-54 -54 -54 -137q0 -69 46 -115q43 -43 114 -43zM549 1378q141 0 231 -90q82 -82 82 -209q0 -146 -102 -248q-96 -96 -250 -96q-141 0 -227 86t-86 213q0 67 27.5 131.5t72.5 110.5q98 102 252 102zM520 883q80 0 127 51q26 26 40.5 64.5t14.5 76.5q0 74 -49 117
q-42 39 -108 39q-81 0 -131 -53q-54 -54 -54 -138q0 -68 46 -114q43 -43 114 -43zM2122 629q139 0 229 -90q82 -82 82 -209q0 -150 -102 -252q-95 -92 -244 -92q-148 0 -234 86t-86 213q0 63 27 126.5t76 114.5q98 103 252 103zM2091 133q80 0 127 51q26 26 40.5 65t14.5 77
q0 73 -49 116q-42 39 -108 39q-81 0 -131 -53q-54 -54 -54 -137q0 -70 45 -115q43 -43 115 -43z" />
    <glyph glyph-name="guilsinglleft" unicode="&#x2039;" horiz-adv-x="667" 
d="M342 440l217 -338l-145 -88l-277 435l395 442l121 -105z" />
    <glyph glyph-name="guilsinglright" unicode="&#x203a;" horiz-adv-x="667" 
d="M426 455l-223 338l145 90l285 -434l-379 -435l-121 103z" />
    <glyph glyph-name="fraction" unicode="&#x2044;" horiz-adv-x="450" 
d="M-201 35l949 1354l92 -58l-949 -1354z" />
    <glyph glyph-name="uni2080" unicode="&#x2080;" horiz-adv-x="757" 
d="M393 -14q-130 0 -205 90t-75 248q0 108 34 222t113 193q95 95 221 95q102 0 174 -68q93 -88 93 -279q0 -121 -36 -232t-108 -183q-86 -86 -211 -86zM465 698q-58 0 -105 -47q-35 -35 -58.5 -85.5t-31.5 -102.5t-10 -77.5t-2 -49.5q0 -123 53 -178q32 -37 82 -37
q60 0 107 47t73.5 136.5t26.5 178.5q0 132 -53 185q-30 30 -82 30z" />
    <glyph glyph-name="uni2081" unicode="&#x2081;" horiz-adv-x="757" 
d="M332 0l84 684h-160l102 135h226l-101 -819h-151z" />
    <glyph glyph-name="uni2082" unicode="&#x2082;" horiz-adv-x="757" 
d="M657 135l-16 -135h-592l338 332q74 70 119 125q57 71 57 129q0 50 -35 82q-34 30 -92 30q-67 0 -106 -39q-42 -42 -49 -110h-144q18 116 92 196q81 89 217 89q135 0 205 -74q62 -62 62 -160q0 -93 -66 -180q-49 -62 -141 -152l-137 -133h288z" />
    <glyph glyph-name="uni2083" unicode="&#x2083;" horiz-adv-x="757" 
d="M92 244h144q4 -58 36 -90q33 -33 103 -33q64 0 104 35q41 36 41 104q0 58 -43 86q-31 21 -104 21h-29l16 135h50q76 0 108 26q35 26 35 76q0 46 -31 70q-32 24 -84 24q-64 0 -94 -32q-28 -28 -39 -80h-143q15 106 88 176q75 72 196 72q129 0 197 -68q57 -57 57 -150
q0 -79 -41 -127q-36 -43 -90 -57q43 -13 72 -49q35 -45 35 -113q0 -119 -74 -196q-82 -88 -231 -88q-136 0 -207 71q-72 72 -72 187z" />
    <glyph glyph-name="uni2084" unicode="&#x2084;" horiz-adv-x="757" 
d="M324 252h163l29 225zM713 881l-78 -629h88l-16 -135h-89l-14 -117h-147l14 117h-428z" />
    <glyph glyph-name="uni2085" unicode="&#x2085;" horiz-adv-x="757" 
d="M713 819l-17 -135h-258l-49 -125q148 17 232 -67q67 -64 67 -177q0 -153 -90 -243q-88 -86 -238 -86q-121 0 -198 57q-58 42 -101 117l123 80q23 -54 66 -86q46 -33 112 -33q82 0 127 43q52 45 52 127q0 74 -47 112q-44 35 -113 35q-100 0 -162 -69h-55l190 450h359z" />
    <glyph glyph-name="uni2086" unicode="&#x2086;" horiz-adv-x="757" 
d="M537 868l118 -88l-215 -262q63 7 118 -12t89 -55q64 -64 64 -166q0 -133 -78 -211q-84 -88 -240 -88q-59 0 -105 11.5t-91 47.5q-86 70 -86 195q0 82 47 159q27 45 100 131zM418 389q-69 0 -113 -41q-45 -45 -45 -108q0 -52 41 -88q41 -35 102 -35q64 0 107 37
q49 40 49 110q0 62 -41 94q-36 31 -100 31z" />
    <glyph glyph-name="uni2087" unicode="&#x2087;" horiz-adv-x="757" 
d="M74 33l477 651h-393l16 135h651l-620 -848z" />
    <glyph glyph-name="uni2088" unicode="&#x2088;" horiz-adv-x="757" 
d="M477 834q115 0 178 -66q58 -63 58 -150q0 -57 -31 -114q-32 -54 -82 -78q90 -48 90 -168q0 -125 -86 -203q-46 -42 -97.5 -55.5t-117.5 -13.5q-120 0 -188 57q-76 62 -76 166q0 75 43 139q35 51 96 78q-71 55 -71 152q0 107 73 180q76 76 211 76zM457 702q-56 0 -88 -30
q-35 -32 -35 -84q0 -37 26 -66q29 -33 84 -33q62 0 93 31q34 31 34 84q0 49 -34 76q-30 22 -80 22zM414 358q-63 0 -99 -34q-41 -35 -41 -91q0 -59 37 -88q32 -28 92 -28q64 0 101 37q37 35 37 98q0 54 -41 82q-36 24 -86 24z" />
    <glyph glyph-name="uni2089" unicode="&#x2089;" horiz-adv-x="757" 
d="M324 -47l-121 86l215 262q-124 -2 -199 64q-72 66 -72 165q0 62 21.5 120.5t64.5 99.5q84 84 238 84q125 0 197 -62q80 -68 80 -188q0 -66 -29 -131q-24 -50 -86 -125zM440 430q68 0 109 35q24 20 37.5 51t13.5 62q0 56 -41 92q-40 32 -100 32q-70 0 -113 -40
q-47 -44 -47 -107q0 -60 43 -94q40 -31 98 -31z" />
    <glyph glyph-name="Euro" unicode="&#x20ac;" horiz-adv-x="1163" 
d="M1231 1313l-111 -183q-93 68 -258 68q-19 0 -39.5 -1t-58.5 -7.5t-72.5 -17t-77 -32.5t-77 -50.5t-67 -74.5t-52.5 -102h592l-80 -143h-561q-20 -66 -23 -152h506l-80 -143h-416q12 -139 111 -224t264 -85q190 0 352 117l-26 -224q-94 -46 -189 -66t-166 -20
q-141 0 -255 45t-185 123q-55 61 -90.5 148t-36.5 186h-139l80 143h61q3 86 23 152h-127l80 143h88q51 177 188 299q203 179 514 179q193 0 328 -78z" />
    <glyph glyph-name="uni20B4" unicode="&#x20b4;" horiz-adv-x="1163" 
d="M496 1063l-156 98q70 93 170 158q114 72 254 72q171 0 260 -86q80 -77 80 -187q0 -116 -96 -203h178l-19 -143h-299l-178 -151h459l-16 -144h-613q-39 -33 -65.5 -80t-26.5 -92q0 -69 59 -108q46 -31 127 -31q91 0 160 41q79 46 131 149l170 -102q-32 -63 -82 -114.5
t-84.5 -74t-68.5 -38.5q-115 -54 -254 -54q-160 0 -256 70q-49 36 -81 93.5t-32 131.5q0 120 86 209h-162l17 144h295l178 151h-455l19 143h579q23 14 46.5 33t48 55t24.5 72q0 52 -41 88q-42 35 -113 35q-79 0 -141 -39q-66 -42 -102 -96z" />
    <glyph glyph-name="uni20B6" unicode="&#x20b6;" horiz-adv-x="1163" 
d="M735 1366q220 0 330 -106q100 -96 100 -269q0 -184 -112 -293q-72 -72 -177.5 -101.5t-250.5 -29.5h-70l-23 -151h324l-16 -144h-324l-33 -272h-209l35 272h-149l16 144h150l18 151h-149l22 181h150l75 618h293zM627 1174l-52 -426h78q171 0 242 63q70 60 70 170
q0 92 -64 145q-59 48 -186 48h-88z" />
    <glyph glyph-name="uni20B6" unicode="&#x20cf;" horiz-adv-x="1163" 
d="M735 1366q220 0 330 -106q100 -96 100 -269q0 -184 -112 -293q-72 -72 -177.5 -101.5t-250.5 -29.5h-70l-23 -151h324l-16 -144h-324l-33 -272h-209l35 272h-149l16 144h150l18 151h-149l22 181h150l75 618h293zM627 1174l-52 -426h78q171 0 242 63q70 60 70 170
q0 92 -64 145q-59 48 -186 48h-88z" />
    <glyph glyph-name="uni20B6" unicode="&#x20ce;" horiz-adv-x="1163" 
d="M735 1366q220 0 330 -106q100 -96 100 -269q0 -184 -112 -293q-72 -72 -177.5 -101.5t-250.5 -29.5h-70l-23 -151h324l-16 -144h-324l-33 -272h-209l35 272h-149l16 144h150l18 151h-149l22 181h150l75 618h293zM627 1174l-52 -426h78q171 0 242 63q70 60 70 170
q0 92 -64 145q-59 48 -186 48h-88z" />
    <glyph glyph-name="uni20B6" unicode="&#x20cd;" horiz-adv-x="1163" 
d="M735 1366q220 0 330 -106q100 -96 100 -269q0 -184 -112 -293q-72 -72 -177.5 -101.5t-250.5 -29.5h-70l-23 -151h324l-16 -144h-324l-33 -272h-209l35 272h-149l16 144h150l18 151h-149l22 181h150l75 618h293zM627 1174l-52 -426h78q171 0 242 63q70 60 70 170
q0 92 -64 145q-59 48 -186 48h-88z" />
    <glyph glyph-name="uni20B6" unicode="&#x20cc;" horiz-adv-x="1163" 
d="M735 1366q220 0 330 -106q100 -96 100 -269q0 -184 -112 -293q-72 -72 -177.5 -101.5t-250.5 -29.5h-70l-23 -151h324l-16 -144h-324l-33 -272h-209l35 272h-149l16 144h150l18 151h-149l22 181h150l75 618h293zM627 1174l-52 -426h78q171 0 242 63q70 60 70 170
q0 92 -64 145q-59 48 -186 48h-88z" />
    <glyph glyph-name="uni20B6" unicode="&#x20cb;" horiz-adv-x="1163" 
d="M735 1366q220 0 330 -106q100 -96 100 -269q0 -184 -112 -293q-72 -72 -177.5 -101.5t-250.5 -29.5h-70l-23 -151h324l-16 -144h-324l-33 -272h-209l35 272h-149l16 144h150l18 151h-149l22 181h150l75 618h293zM627 1174l-52 -426h78q171 0 242 63q70 60 70 170
q0 92 -64 145q-59 48 -186 48h-88z" />
    <glyph glyph-name="uni20B6" unicode="&#x20ca;" horiz-adv-x="1163" 
d="M735 1366q220 0 330 -106q100 -96 100 -269q0 -184 -112 -293q-72 -72 -177.5 -101.5t-250.5 -29.5h-70l-23 -151h324l-16 -144h-324l-33 -272h-209l35 272h-149l16 144h150l18 151h-149l22 181h150l75 618h293zM627 1174l-52 -426h78q171 0 242 63q70 60 70 170
q0 92 -64 145q-59 48 -186 48h-88z" />
    <glyph glyph-name="uni20B6" unicode="&#x20c9;" horiz-adv-x="1163" 
d="M735 1366q220 0 330 -106q100 -96 100 -269q0 -184 -112 -293q-72 -72 -177.5 -101.5t-250.5 -29.5h-70l-23 -151h324l-16 -144h-324l-33 -272h-209l35 272h-149l16 144h150l18 151h-149l22 181h150l75 618h293zM627 1174l-52 -426h78q171 0 242 63q70 60 70 170
q0 92 -64 145q-59 48 -186 48h-88z" />
    <glyph glyph-name="uni20B6" unicode="&#x20c8;" horiz-adv-x="1163" 
d="M735 1366q220 0 330 -106q100 -96 100 -269q0 -184 -112 -293q-72 -72 -177.5 -101.5t-250.5 -29.5h-70l-23 -151h324l-16 -144h-324l-33 -272h-209l35 272h-149l16 144h150l18 151h-149l22 181h150l75 618h293zM627 1174l-52 -426h78q171 0 242 63q70 60 70 170
q0 92 -64 145q-59 48 -186 48h-88z" />
    <glyph glyph-name="uni20B6" unicode="&#x20c7;" horiz-adv-x="1163" 
d="M735 1366q220 0 330 -106q100 -96 100 -269q0 -184 -112 -293q-72 -72 -177.5 -101.5t-250.5 -29.5h-70l-23 -151h324l-16 -144h-324l-33 -272h-209l35 272h-149l16 144h150l18 151h-149l22 181h150l75 618h293zM627 1174l-52 -426h78q171 0 242 63q70 60 70 170
q0 92 -64 145q-59 48 -186 48h-88z" />
    <glyph glyph-name="uni20B6" unicode="&#x20c6;" horiz-adv-x="1163" 
d="M735 1366q220 0 330 -106q100 -96 100 -269q0 -184 -112 -293q-72 -72 -177.5 -101.5t-250.5 -29.5h-70l-23 -151h324l-16 -144h-324l-33 -272h-209l35 272h-149l16 144h150l18 151h-149l22 181h150l75 618h293zM627 1174l-52 -426h78q171 0 242 63q70 60 70 170
q0 92 -64 145q-59 48 -186 48h-88z" />
    <glyph glyph-name="uni20B6" unicode="&#x20c5;" horiz-adv-x="1163" 
d="M735 1366q220 0 330 -106q100 -96 100 -269q0 -184 -112 -293q-72 -72 -177.5 -101.5t-250.5 -29.5h-70l-23 -151h324l-16 -144h-324l-33 -272h-209l35 272h-149l16 144h150l18 151h-149l22 181h150l75 618h293zM627 1174l-52 -426h78q171 0 242 63q70 60 70 170
q0 92 -64 145q-59 48 -186 48h-88z" />
    <glyph glyph-name="uni20B6" unicode="&#x20c4;" horiz-adv-x="1163" 
d="M735 1366q220 0 330 -106q100 -96 100 -269q0 -184 -112 -293q-72 -72 -177.5 -101.5t-250.5 -29.5h-70l-23 -151h324l-16 -144h-324l-33 -272h-209l35 272h-149l16 144h150l18 151h-149l22 181h150l75 618h293zM627 1174l-52 -426h78q171 0 242 63q70 60 70 170
q0 92 -64 145q-59 48 -186 48h-88z" />
    <glyph glyph-name="uni20B6" unicode="&#x20c3;" horiz-adv-x="1163" 
d="M735 1366q220 0 330 -106q100 -96 100 -269q0 -184 -112 -293q-72 -72 -177.5 -101.5t-250.5 -29.5h-70l-23 -151h324l-16 -144h-324l-33 -272h-209l35 272h-149l16 144h150l18 151h-149l22 181h150l75 618h293zM627 1174l-52 -426h78q171 0 242 63q70 60 70 170
q0 92 -64 145q-59 48 -186 48h-88z" />
    <glyph glyph-name="uni20B6" unicode="&#x20c2;" horiz-adv-x="1163" 
d="M735 1366q220 0 330 -106q100 -96 100 -269q0 -184 -112 -293q-72 -72 -177.5 -101.5t-250.5 -29.5h-70l-23 -151h324l-16 -144h-324l-33 -272h-209l35 272h-149l16 144h150l18 151h-149l22 181h150l75 618h293zM627 1174l-52 -426h78q171 0 242 63q70 60 70 170
q0 92 -64 145q-59 48 -186 48h-88z" />
    <glyph glyph-name="uni20B6" unicode="&#x20c1;" horiz-adv-x="1163" 
d="M735 1366q220 0 330 -106q100 -96 100 -269q0 -184 -112 -293q-72 -72 -177.5 -101.5t-250.5 -29.5h-70l-23 -151h324l-16 -144h-324l-33 -272h-209l35 272h-149l16 144h150l18 151h-149l22 181h150l75 618h293zM627 1174l-52 -426h78q171 0 242 63q70 60 70 170
q0 92 -64 145q-59 48 -186 48h-88z" />
    <glyph glyph-name="uni20B6" unicode="&#x20c0;" horiz-adv-x="1163" 
d="M735 1366q220 0 330 -106q100 -96 100 -269q0 -184 -112 -293q-72 -72 -177.5 -101.5t-250.5 -29.5h-70l-23 -151h324l-16 -144h-324l-33 -272h-209l35 272h-149l16 144h150l18 151h-149l22 181h150l75 618h293zM627 1174l-52 -426h78q171 0 242 63q70 60 70 170
q0 92 -64 145q-59 48 -186 48h-88z" />
    <glyph glyph-name="uni20B6" unicode="&#x20bf;" horiz-adv-x="1163" 
d="M735 1366q220 0 330 -106q100 -96 100 -269q0 -184 -112 -293q-72 -72 -177.5 -101.5t-250.5 -29.5h-70l-23 -151h324l-16 -144h-324l-33 -272h-209l35 272h-149l16 144h150l18 151h-149l22 181h150l75 618h293zM627 1174l-52 -426h78q171 0 242 63q70 60 70 170
q0 92 -64 145q-59 48 -186 48h-88z" />
    <glyph glyph-name="uni20B6" unicode="&#x20be;" horiz-adv-x="1163" 
d="M735 1366q220 0 330 -106q100 -96 100 -269q0 -184 -112 -293q-72 -72 -177.5 -101.5t-250.5 -29.5h-70l-23 -151h324l-16 -144h-324l-33 -272h-209l35 272h-149l16 144h150l18 151h-149l22 181h150l75 618h293zM627 1174l-52 -426h78q171 0 242 63q70 60 70 170
q0 92 -64 145q-59 48 -186 48h-88z" />
    <glyph glyph-name="uni20B6" unicode="&#x20bd;" horiz-adv-x="1163" 
d="M735 1366q220 0 330 -106q100 -96 100 -269q0 -184 -112 -293q-72 -72 -177.5 -101.5t-250.5 -29.5h-70l-23 -151h324l-16 -144h-324l-33 -272h-209l35 272h-149l16 144h150l18 151h-149l22 181h150l75 618h293zM627 1174l-52 -426h78q171 0 242 63q70 60 70 170
q0 92 -64 145q-59 48 -186 48h-88z" />
    <glyph glyph-name="uni20B6" unicode="&#x20bc;" horiz-adv-x="1163" 
d="M735 1366q220 0 330 -106q100 -96 100 -269q0 -184 -112 -293q-72 -72 -177.5 -101.5t-250.5 -29.5h-70l-23 -151h324l-16 -144h-324l-33 -272h-209l35 272h-149l16 144h150l18 151h-149l22 181h150l75 618h293zM627 1174l-52 -426h78q171 0 242 63q70 60 70 170
q0 92 -64 145q-59 48 -186 48h-88z" />
    <glyph glyph-name="uni20B6" unicode="&#x20bb;" horiz-adv-x="1163" 
d="M735 1366q220 0 330 -106q100 -96 100 -269q0 -184 -112 -293q-72 -72 -177.5 -101.5t-250.5 -29.5h-70l-23 -151h324l-16 -144h-324l-33 -272h-209l35 272h-149l16 144h150l18 151h-149l22 181h150l75 618h293zM627 1174l-52 -426h78q171 0 242 63q70 60 70 170
q0 92 -64 145q-59 48 -186 48h-88z" />
    <glyph glyph-name="uni20B6" unicode="&#x20ba;" horiz-adv-x="1163" 
d="M735 1366q220 0 330 -106q100 -96 100 -269q0 -184 -112 -293q-72 -72 -177.5 -101.5t-250.5 -29.5h-70l-23 -151h324l-16 -144h-324l-33 -272h-209l35 272h-149l16 144h150l18 151h-149l22 181h150l75 618h293zM627 1174l-52 -426h78q171 0 242 63q70 60 70 170
q0 92 -64 145q-59 48 -186 48h-88z" />
    <glyph glyph-name="uni20B6" unicode="&#x20b9;" horiz-adv-x="1163" 
d="M735 1366q220 0 330 -106q100 -96 100 -269q0 -184 -112 -293q-72 -72 -177.5 -101.5t-250.5 -29.5h-70l-23 -151h324l-16 -144h-324l-33 -272h-209l35 272h-149l16 144h150l18 151h-149l22 181h150l75 618h293zM627 1174l-52 -426h78q171 0 242 63q70 60 70 170
q0 92 -64 145q-59 48 -186 48h-88z" />
    <glyph glyph-name="uni20B6" unicode="&#x20b7;" horiz-adv-x="1163" 
d="M735 1366q220 0 330 -106q100 -96 100 -269q0 -184 -112 -293q-72 -72 -177.5 -101.5t-250.5 -29.5h-70l-23 -151h324l-16 -144h-324l-33 -272h-209l35 272h-149l16 144h150l18 151h-149l22 181h150l75 618h293zM627 1174l-52 -426h78q171 0 242 63q70 60 70 170
q0 92 -64 145q-59 48 -186 48h-88z" />
    <glyph glyph-name="uni20B8" unicode="&#x20b8;" horiz-adv-x="1163" 
d="M1102 903h-314l-112 -903h-209l113 903h-314l25 197h835zM1135 1190h-836l23 176h835z" />
    <glyph glyph-name="afii61352" unicode="&#x2116;" horiz-adv-x="2172" 
d="M373 0h-209l178 1458l788 -989l111 897h209l-178 -1450l-789 989zM1911 1366q139 0 223 -80q82 -80 82 -213q0 -160 -98 -256q-94 -94 -250 -94q-146 0 -232 86q-84 84 -84 209q0 70 26 134t69 108q98 106 264 106zM1872 870q79 0 129 50q55 55 55 137q0 72 -45 117
t-115 45q-77 0 -131 -54q-53 -53 -53 -135q0 -72 45 -117q43 -43 115 -43zM1518 416l20 164h578l-21 -164h-577z" />
    <glyph glyph-name="uni2117" unicode="&#x2117;" horiz-adv-x="1552" 
d="M645 1079h223q128 0 193 -63q61 -58 61 -164q0 -104 -57 -164q-40 -43 -96.5 -57.5t-132.5 -14.5h-45v-303h-146v766zM791 950v-213h28q83 0 123 31q37 27 37 84q0 52 -39 80q-27 18 -100 18h-49zM860 1290q-250 0 -422 -172t-172 -436t172 -436t422 -172t422 172
t172 436t-172 436t-422 172zM1569 682q0 -154 -54 -285.5t-147 -224.5q-92 -92 -221.5 -146.5t-286.5 -54.5t-286.5 54.5t-221.5 146.5q-93 93 -146.5 224t-53.5 286t53.5 286t146.5 224q92 92 221.5 146.5t286.5 54.5t286.5 -54.5t221.5 -146.5q93 -93 147 -224.5
t54 -285.5z" />
    <glyph glyph-name="trademark" unicode="&#x2122;" horiz-adv-x="1454" 
d="M639 1231h-172l-80 -643h-143l80 643h-172l16 135h487zM750 588h-146l273 848l188 -574l330 574l61 -848h-145l-19 422l-264 -437l-154 437z" />
    <glyph glyph-name="partialdiff" unicode="&#x2202;" horiz-adv-x="1067" 
d="M250 1200l37 178q252 -29 436 -155q160 -111 242 -277q92 -182 92 -434q0 -279 -135 -418q-121 -121 -322 -121q-206 0 -332 129q-133 136 -133 328q0 205 131 336q119 119 291 119q160 0 268 -97q-55 198 -233 304q-157 94 -342 108zM596 154q115 0 176 61
q39 38 59.5 97.5t20.5 121.5q0 133 -82 207q-71 64 -174 64q-107 0 -174 -64q-82 -82 -82 -213q0 -141 82 -215q66 -59 174 -59z" />
    <glyph glyph-name="product" unicode="&#x220f;" horiz-adv-x="1490" 
d="M164 1339v197h1306v-197h-163v-1654h163v-197h-538v197h166v1654h-559v-1654h163v-197h-538v197h166v1654h-166z" />
    <glyph glyph-name="summation" unicode="&#x2211;" horiz-adv-x="1425" 
d="M164 1536h1225v-502h-193v305h-745l450 -782l-450 -872h761v301h193v-498h-1241v94l516 975l-516 885v94z" />
    <glyph glyph-name="minus" unicode="&#x2212;" 
d="M154 596v184h888v-184h-888z" />
    <glyph glyph-name="uni2215" unicode="&#x2215;" horiz-adv-x="1406" 
d="M-37 -362l1301 1929l159 -74l-1300 -1929z" />
    <glyph glyph-name="uni2219" unicode="&#x2219;" horiz-adv-x="409" 
d="M129 674q0 77 59 133q52 49 121 49q64 0 105 -41q39 -42 39 -96q0 -74 -54 -131q-48 -51 -123 -51q-65 0 -106 38t-41 99z" />
    <glyph glyph-name="radical" unicode="&#x221a;" horiz-adv-x="1163" 
d="M909 1694h561v-181h-389l-395 -1513h-258l-145 586h-181v180h344l103 -514h16z" />
    <glyph glyph-name="infinity" unicode="&#x221e;" horiz-adv-x="1372" 
d="M772 563q-47 -70 -117 -121q-97 -69 -215 -69q-139 0 -227 88q-90 93 -90 235q0 70 25 133.5t69 106.5q84 84 227 84q111 0 199 -62q70 -50 129 -129q59 79 129 129q88 62 199 62q143 0 227 -84q44 -43 69 -106.5t25 -133.5q0 -142 -90 -235q-88 -88 -227 -88
q-118 0 -215 69q-70 51 -117 121zM1073 840q-63 0 -119 -49q-36 -31 -82 -95q30 -54 80 -94q60 -49 123 -49q62 0 103 41t41 106q0 63 -41 99q-45 41 -105 41zM471 840q-59 0 -104 -41q-41 -36 -41 -99q0 -65 41 -106t102 -41q63 0 123 49q50 40 80 94q-46 64 -82 95
q-56 49 -119 49z" />
    <glyph glyph-name="integral" unicode="&#x222b;" horiz-adv-x="778" 
d="M94 -489l37 176q52 -27 109 -27q53 0 82 31q14 15 20 44t7 52.5t1 81.5v1294q0 109 15.5 178t66.5 117q87 78 225 78q83 0 154 -23l-37 -176q-52 27 -106 27q-58 0 -84 -31q-19 -22 -24 -60t-5 -118v-1266q0 -64 -1.5 -99.5t-9 -80.5t-25 -78t-46.5 -63q-78 -80 -225 -80
q-81 0 -154 23z" />
    <glyph glyph-name="approxequal" unicode="&#x2248;" 
d="M975 1034l117 -67q-39 -93 -105 -162q-83 -86 -201 -86q-85 0 -192 47l-82 35q-6 3 -22.5 10t-25.5 10.5t-23.5 8t-28.5 6.5t-29 2q-64 0 -109 -45q-35 -35 -59 -93l-115 74q51 121 117 184q72 72 176 72q81 0 176 -43l80 -35q101 -43 158 -43q66 0 113 47q30 30 55 78z
M975 662l117 -68q-39 -93 -105 -162q-83 -86 -201 -86q-85 0 -192 47l-82 35q-6 3 -22.5 10t-25.5 10.5t-23.5 8t-28.5 6.5t-29 2q-64 0 -109 -45q-36 -36 -59 -92l-115 73q52 123 117 185q71 71 176 71q81 0 176 -43l80 -34q101 -43 158 -43q66 0 113 47q30 30 55 78z" />
    <glyph glyph-name="notequal" unicode="&#x2260;" 
d="M154 778v172h487l107 226h159l-106 -226h241v-172h-323l-76 -160h399v-172h-481l-112 -237h-160l112 237h-247v172h329l76 160h-405z" />
    <glyph glyph-name="lessequal" unicode="&#x2264;" 
d="M365 801l675 -305v-189l-888 410v168l888 409v-188zM1040 66h-888v184h888v-184z" />
    <glyph glyph-name="greaterequal" unicode="&#x2265;" 
d="M803 801l-676 305v188l889 -409v-168l-889 -410v189zM1016 66h-889v184h889v-184z" />
    <glyph glyph-name="dotmath" unicode="&#x22c5;" horiz-adv-x="409" 
d="M129 674q0 77 59 133q52 49 121 49q64 0 105 -41q39 -42 39 -96q0 -74 -54 -131q-48 -51 -123 -51q-65 0 -106 38t-41 99z" />
    <glyph glyph-name="lozenge" unicode="&#x25ca;" horiz-adv-x="1433" 
d="M268 684l533 737l532 -737l-532 -737zM1100 684l-299 414l-299 -414l299 -414z" />
    <glyph glyph-name="openbullet" unicode="&#x25e6;" horiz-adv-x="1028" 
d="M344 1044q0 133 84 224q91 98 236 98q119 0 200 -72q82 -74 82 -200q0 -148 -88 -236q-86 -86 -229 -86q-131 0 -213 82q-72 72 -72 190zM471 1055q0 -74 47 -121q43 -43 115 -43q82 0 131 49q55 52 55 143q0 76 -45 121q-43 43 -117 43q-82 0 -133 -51q-53 -53 -53 -141
z" />
    <glyph glyph-name="uniF400" unicode="&#xf400;" horiz-adv-x="4" 
d="M-270 1382l172 -94l-355 -295l-102 70z" />
    <glyph glyph-name="uniF401" unicode="&#xf401;" horiz-adv-x="4" 
d="M-530 1489l-88 82l317 284l162 -122z" />
    <glyph glyph-name="uniF406" unicode="&#xf406;" 
d="M911 1790h168q-8 -34 -23 -71.5t-51.5 -89t-84.5 -81.5q-85 -53 -213 -53q-122 0 -197 57q-53 39 -86 102.5t-41 135.5h168q12 -67 57 -100q40 -31 107 -31q80 0 127 33q48 34 69 98z" />
    <glyph glyph-name="uniF407" unicode="&#xf407;" 
d="M580 -109l168 -77l-265 -273l-123 66z" />
    <glyph glyph-name="uniF408" unicode="&#xf408;" 
d="M723 1663l-223 -168l-127 115l370 274l306 -274l-144 -115z" />
    <glyph glyph-name="uniF409" unicode="&#xf409;" 
d="M258 -561l213 459l184 -70l-260 -442z" />
    <glyph glyph-name="uniF40A" unicode="&#xf40a;" 
d="M369 971l233 422l176 -90l-274 -402z" />
    <glyph glyph-name="uniF40B" unicode="&#xf40b;" 
d="M575 1626q0 63 46 109q43 43 104 43q57 0 94 -37q33 -37 33 -84q0 -65 -41 -109q-39 -45 -113 -45q-53 0 -86 33q-37 33 -37 90z" />
    <glyph glyph-name="uniF40C" unicode="&#xf40c;" 
d="M518 1669q0 87 55 146q63 69 164 69q82 0 131 -49q52 -49 52 -131q0 -96 -60 -156q-61 -61 -160 -61q-80 0 -129 49q-53 53 -53 133zM631 1677q0 -37 22 -59q21 -21 56 -21q42 0 71 29q27 27 27 70q0 32 -23 55t-55 23q-39 0 -70 -27q-28 -28 -28 -70z" />
    <glyph glyph-name="uniF40D" unicode="&#xf40d;" 
d="M979 1767l106 -94q-47 -76 -98 -119q-63 -53 -156 -53q-25 0 -49 5.5t-34.5 10t-40.5 17.5l-43 20q-68 33 -101 33q-37 0 -69 -28q-26 -21 -45 -58l-111 84q55 74 100 111q67 55 152 55q63 0 123 -31l39 -20q73 -39 102 -39q43 0 78 39q22 26 47 67z" />
    <glyph glyph-name="uniF40E" unicode="&#xf40e;" 
d="M494 0h159q-79 -55 -112 -88q-47 -47 -47 -94q0 -25 16 -39q20 -15 57 -15q56 0 111 19l-37 -148q-66 -30 -147 -30q-80 0 -127 45q-48 44 -48 112q0 84 70 154q44 44 105 84z" />
    <glyph glyph-name="uniF4C6" unicode="&#xf4c6;" horiz-adv-x="1245" 
d="M1040 1366h209l-188 -1520q-6 -57 -12.5 -90.5t-25.5 -78.5t-50 -74q-76 -74 -228 -74q-81 0 -151 18l22 191q47 -17 91 -17q67 0 100 33q26 26 36.5 66t18.5 108l80 641q-107 -22 -248 -22q-100 0 -182.5 20t-116 38t-47.5 32q-106 82 -106 246q0 46 14 164l39 319h209
l-39 -309q-12 -108 -12 -139q0 -87 57 -132q60 -47 211 -47q126 0 246 23z" />
    <glyph glyph-name="uniF4C7" unicode="&#xf4c7;" horiz-adv-x="919" 
d="M698 862h201l-129 -1038q-8 -59 -15.5 -93.5t-30 -76.5t-60.5 -70q-71 -55 -201 -55q-77 0 -137 18l22 181q46 -19 94 -19q57 0 90 33q31 33 41 117l60 481q-76 -25 -164 -25q-135 0 -217 62q-78 60 -78 162q0 32 10 110l27 213h201l-25 -198q-6 -48 -6 -70q0 -56 41 -82
q37 -25 117 -25q57 0 116 23z" />
    </font>
</defs>
</svg>
